<svg width="17" height="16" viewBox="0 0 17 16" fill="none" xmlns="http://www.w3.org/2000/svg">
<path d="M16.5 7.98489C16.5081 12.3926 12.9135 15.9969 8.5058 16C6.60209 16.0014 4.85345 15.3377 3.47929 14.2287C3.12197 13.9403 3.09526 13.4048 3.41997 13.0801L3.78342 12.7166C4.06113 12.4389 4.50448 12.4085 4.81216 12.6526C5.82458 13.456 7.10583 13.9355 8.49999 13.9355C11.7808 13.9355 14.4355 11.2803 14.4355 8.00002C14.4355 4.7192 11.7803 2.06452 8.49999 2.06452C6.92535 2.06452 5.49519 2.67642 4.43329 3.67523L6.07051 5.31246C6.39567 5.63762 6.16538 6.19356 5.70558 6.19356H1.01613C0.731064 6.19356 0.5 5.9625 0.5 5.67743V0.98797C0.5 0.528162 1.05593 0.297872 1.3811 0.623001L2.97374 2.21565C4.40996 0.843098 6.35651 0 8.49999 0C12.9132 0 16.4918 3.57356 16.5 7.98489ZM10.6641 10.5263L10.981 10.1189C11.2435 9.78137 11.1827 9.29495 10.8452 9.03247L9.53225 8.01127V4.64517C9.53225 4.21759 9.18564 3.87098 8.75806 3.87098H8.24193C7.81435 3.87098 7.46774 4.21759 7.46774 4.64517V9.02102L9.5777 10.6621C9.91522 10.9246 10.4016 10.8638 10.6641 10.5263Z" fill="#7C8364"/>
</svg>
