<svg width="31" height="31" viewBox="0 0 31 31" fill="none" xmlns="http://www.w3.org/2000/svg">
<g clip-path="url(#clip0_151_7889)">
<path d="M0.008668 4.87846C0.0236236 4.75531 0.0585895 4.63538 0.112195 4.52329C0.455573 3.75292 1.03376 3.27268 1.89473 3.25017C2.7557 3.22765 3.61163 3.23266 4.47007 3.25017C4.56395 3.24601 4.65768 3.26106 4.74543 3.29437C4.83318 3.32768 4.91307 3.37853 4.98011 3.44377C5.04715 3.50901 5.0999 3.58723 5.13508 3.67355C5.17026 3.75987 5.18711 3.85244 5.18459 3.9455C5.18263 4.03835 5.16217 4.12991 5.1244 4.2149C5.08663 4.2999 5.0323 4.37667 4.9645 4.44081C4.89671 4.50495 4.81679 4.5552 4.72934 4.58867C4.64189 4.62213 4.54863 4.63816 4.45491 4.63584C3.69746 4.63584 2.91981 4.63584 2.15226 4.63584C1.60941 4.63584 1.37714 4.86345 1.37714 5.3862C1.37714 6.96446 1.52357 10.1385 1.52357 10.1385V10.3211H25.5096C25.5096 10.226 25.5247 10.131 25.5247 10.0335V5.31867C25.5247 4.7634 25.3151 4.5508 24.7673 4.54829C24.0628 4.54829 23.3584 4.54829 22.654 4.54829C22.0404 4.54829 21.7071 3.98553 22.0026 3.49029C22.0628 3.38504 22.1513 3.29843 22.2583 3.24014C22.3653 3.18184 22.4866 3.15413 22.6085 3.16013C23.3937 3.16013 24.179 3.14262 24.9642 3.16013C25.2229 3.16078 25.479 3.212 25.7177 3.31083C25.9564 3.40967 26.173 3.55419 26.3553 3.73611C26.5375 3.91804 26.6817 4.13379 26.7797 4.37102C26.8776 4.60824 26.9273 4.86228 26.926 5.11857C26.9512 7.82988 26.926 10.5412 26.926 13.2525C26.921 13.288 26.9134 13.3231 26.9033 13.3576L25.5096 12.9924V11.8143H1.52357V25.1157C1.52357 25.3267 1.60816 25.529 1.75874 25.6782C1.90931 25.8273 2.11353 25.9111 2.32647 25.9111C5.97066 25.9111 9.61317 25.9111 13.254 25.9111C13.4812 25.9111 13.5923 25.9562 13.6529 26.1913C13.7489 26.5589 13.8903 26.9141 14.0291 27.3268H13.557C13.557 27.3268 5.98245 27.2343 2.19519 27.2343C1.03376 27.2343 0.369728 26.734 0.0162499 25.631C0.0162499 25.6135 -0.0115233 25.6035 0.0162499 25.591L0.008668 4.87846Z" fill="#7C8364"/>
<path d="M14.7462 22.9373C14.7468 20.8115 15.5971 18.7725 17.1112 17.266C18.6252 15.7596 20.6798 14.9084 22.8256 14.8984C27.3098 14.8984 31.0011 18.4652 31.0112 22.8298C31.0112 27.382 27.4234 31.0037 22.8888 31.0012C21.8185 31.0055 20.7579 30.7999 19.7682 30.3962C18.7785 29.9925 17.8792 29.3987 17.1223 28.6491C16.3654 27.8995 15.7657 27.0088 15.3579 26.0285C14.9501 25.0482 14.7421 23.9976 14.7462 22.9373ZM22.8635 29.6306C24.1966 29.6315 25.5 29.2411 26.6092 28.5086C27.7184 27.7761 28.5836 26.7344 29.0954 25.5151C29.6073 24.2957 29.7429 22.9535 29.4851 21.6578C29.2273 20.3622 28.5876 19.1713 27.647 18.2356C26.7063 17.2999 25.5068 16.6613 24.2 16.4006C22.8931 16.1399 21.5376 16.2687 20.3047 16.7707C19.0717 17.2728 18.0166 18.1255 17.2726 19.2213C16.5287 20.3171 16.1292 21.6067 16.1247 22.9273C16.1201 23.8066 16.291 24.6781 16.6276 25.4916C16.9643 26.3052 17.4601 27.0448 18.0864 27.6678C18.7127 28.2908 19.4572 28.785 20.2771 29.1218C21.0969 29.4587 21.9759 29.6316 22.8635 29.6306Z" fill="#7C8364"/>
<path d="M23.458 3.1875H3.55715C1.88384 3.1875 0.527344 4.5313 0.527344 6.18895V8.1499C0.527344 9.80756 1.88384 11.1514 3.55715 11.1514H23.458C25.1313 11.1514 26.4878 9.80756 26.4878 8.1499V6.18895C26.4878 4.5313 25.1313 3.1875 23.458 3.1875Z" fill="#7C8364"/>
<path d="M13.3418 4.62311C12.5844 4.62311 11.8269 4.62311 11.0695 4.62311C10.4685 4.62311 10.1201 4.09286 10.3802 3.60262C10.4345 3.48879 10.5213 3.39327 10.63 3.32791C10.7386 3.26254 10.8642 3.23022 10.9912 3.23494C12.5566 3.23494 14.1195 3.23494 15.6823 3.23494C15.776 3.23114 15.8695 3.24645 15.9569 3.27992C16.0444 3.31338 16.124 3.3643 16.1907 3.4295C16.2575 3.4947 16.31 3.57279 16.345 3.65894C16.3801 3.74508 16.3969 3.83744 16.3944 3.93028C16.3941 4.02309 16.3749 4.11489 16.338 4.2002C16.3011 4.28551 16.2473 4.36256 16.1796 4.42677C16.112 4.49098 16.0319 4.54103 15.9443 4.5739C15.8567 4.60678 15.7633 4.62181 15.6697 4.61811C14.8946 4.63062 14.1195 4.62311 13.3418 4.62311Z" fill="#7C8364"/>
<path d="M21.1057 3.82828C21.0651 4.57826 21.0701 5.32999 21.1208 6.07937C21.2723 7.29996 19.51 7.76269 18.3132 7.46504C17.4851 7.25994 17.0508 6.85975 17.0508 6.23945C17.0508 4.62867 17.0508 3.01539 17.0508 1.40461C17.0508 0.634233 17.889 0.121484 19.1111 0.128988C20.3331 0.136491 21.0981 0.64424 21.1006 1.41461C21.1032 2.18499 21.1057 3.02039 21.1057 3.82828Z" fill="white" stroke="white" stroke-miterlimit="10"/>
<path d="M9.71825 3.89078C9.6772 4.64078 9.6831 5.39259 9.73593 6.14187C9.88742 7.36246 8.11244 7.82769 6.90305 7.52754C6.06985 7.32244 5.64062 6.92224 5.64062 6.30445C5.64062 4.692 5.64062 3.07955 5.64062 1.46711C5.64062 0.696733 6.48646 0.183984 7.71858 0.191488C8.9507 0.198991 9.72078 0.70674 9.73845 1.47711C9.75613 2.24749 9.71825 3.08539 9.71825 3.89078Z" fill="white" stroke="white" stroke-miterlimit="10"/>
<path d="M6.45034 3.88106C6.45034 3.16071 6.45034 2.44036 6.45034 1.72001C6.45034 1.05719 6.95531 0.616975 7.68499 0.609471C8.41467 0.601967 8.97013 1.03468 8.97518 1.6975C8.98528 3.14653 8.98528 4.59641 8.97518 6.04711C8.97518 6.70242 8.41466 7.16764 7.69256 7.15264C6.97045 7.13763 6.45287 6.68241 6.45034 6.00958C6.44782 5.29424 6.45034 4.5889 6.45034 3.88106Z" fill="#7C8364"/>
<path d="M20.3345 3.87131C20.3345 4.52912 20.2865 5.19445 20.3345 5.84976C20.4279 6.92528 19.3245 7.33298 18.5671 7.07035C18.3308 7.0072 18.1235 6.86578 17.9797 6.66963C17.8359 6.47347 17.7643 6.23443 17.7768 5.99233C17.7768 4.57164 17.7768 3.15429 17.7768 1.74027C17.7768 1.06244 18.3019 0.612226 19.067 0.617229C19.832 0.622231 20.3117 1.07245 20.3142 1.75028L20.3345 3.87131Z" fill="#7C8364"/>
<path d="M22.694 30.4577C26.9736 30.4577 30.4428 27.1049 30.4428 22.9691C30.4428 18.8332 26.9736 15.4805 22.694 15.4805C18.4145 15.4805 14.9453 18.8332 14.9453 22.9691C14.9453 27.1049 18.4145 30.4577 22.694 30.4577Z" fill="#7C8364"/>
<path d="M27.0657 26.3212H18.663C18.6479 25.7284 18.8145 25.2131 19.3346 24.9055C19.7305 24.7111 20.1368 24.5383 20.5516 24.3877C20.9368 24.2228 21.3127 24.0374 21.6777 23.8324C21.8999 23.7049 21.9302 23.5248 21.7332 23.2972C21.4618 22.986 21.2089 22.6595 20.9758 22.3192C20.8092 22.0841 20.7637 21.849 21.0339 21.6339C21.081 21.5749 21.1059 21.5015 21.1046 21.4263C21.1046 21.2262 21.1046 21.0261 21.1046 20.826C21.1099 20.5608 21.1911 20.3026 21.3385 20.0813C21.486 19.8599 21.6938 19.6845 21.9378 19.5754C22.0747 19.4733 22.1993 19.3558 22.3089 19.2252C22.3746 19.1652 22.4478 19.0776 22.526 19.0701C23.3239 19.0001 24.5459 19.9281 24.6469 20.6909C24.6608 20.8699 24.6608 21.0497 24.6469 21.2287C24.6469 21.4213 24.604 21.6039 24.7984 21.7664C24.8716 21.8265 24.8565 22.0866 24.7984 22.1991C24.5611 22.5793 24.2934 22.9495 24.0182 23.2997C23.9809 23.3464 23.9545 23.4008 23.9408 23.4588C23.9271 23.5168 23.9265 23.5771 23.9391 23.6354C23.9516 23.6937 23.977 23.7485 24.0134 23.796C24.0497 23.8434 24.0962 23.8824 24.1495 23.91C24.5413 24.1159 24.9442 24.3004 25.3564 24.4628C25.6866 24.5825 26.0103 24.7194 26.3259 24.8729C26.8789 25.1781 27.0834 25.6883 27.0657 26.3212Z" fill="white"/>
</g>
<defs>
<clipPath id="clip0_151_7889">
<rect width="31" height="31" fill="white"/>
</clipPath>
</defs>
</svg>
