<svg width="31" height="31" viewBox="0 0 31 31" fill="none" xmlns="http://www.w3.org/2000/svg">
<g clip-path="url(#clip0_151_7690)">
<path d="M17.8153 1.04723C17.8153 0.470671 18.3784 0 19.0783 0C19.7788 0 20.3419 0.468222 20.3419 1.04723V5.62846C20.3419 6.20502 19.7788 6.67569 19.0783 6.67569C18.3784 6.67569 17.8153 6.20747 17.8153 5.62846V1.04723ZM20.8602 21.7267C20.863 21.6403 20.8917 21.5567 20.9425 21.4871C20.9933 21.4175 21.0639 21.3651 21.1448 21.3369C21.1254 20.9996 21.0848 20.4928 21.1751 20.1685C21.2781 19.8284 21.5031 19.5396 21.806 19.3587C21.9131 19.292 22.0294 19.2357 22.148 19.1928C22.3666 19.1139 22.2582 18.7442 22.4962 18.7393C23.0514 18.7246 23.9638 19.2387 24.3199 19.6286C24.5475 19.882 24.6765 20.2095 24.6838 20.5516L24.6613 21.3748C24.7679 21.3969 24.8557 21.4734 24.8945 21.5762C25.0131 22.0603 23.8458 23.2036 23.8458 23.3267C23.8488 23.3689 23.8645 23.4087 23.8924 23.4411C24.7019 24.5667 27.0832 23.9375 27.0832 26.1764H18.6684C18.6684 23.9369 21.0497 24.5673 21.8598 23.4423C21.8992 23.383 21.918 23.3505 21.9174 23.3248C21.9174 23.2153 20.8602 22.1221 20.8602 21.7267ZM22.8758 14.5737C25.1148 14.5737 27.148 15.4942 28.6181 16.9821C30.0894 18.4657 31 20.5192 31 22.7874C31 25.0533 30.0906 27.1092 28.6205 28.5946L28.5793 28.6338C27.1123 30.0954 25.0979 31 22.8758 31C20.6362 31 18.6036 30.0795 17.1336 28.5946C15.6623 27.1061 14.7516 25.0514 14.7516 22.7874C14.7516 20.5192 15.6623 18.4657 17.1317 16.9803L17.1735 16.9411C18.6412 15.4783 20.6568 14.5737 22.8758 14.5737ZM27.6433 17.9651C26.4269 16.7342 24.7395 15.971 22.8758 15.971C21.0291 15.971 19.3556 16.7207 18.1417 17.9314L18.1084 17.9675C16.8889 19.2002 16.1333 20.9054 16.1333 22.7874C16.1333 24.6701 16.8889 26.3771 18.1065 27.6086C19.3247 28.8394 21.0128 29.6033 22.8758 29.6033C24.7219 29.6033 26.3948 28.8529 27.6112 27.6429L27.6439 27.6074C28.8639 26.3741 29.6183 24.6695 29.6183 22.7874C29.6183 20.9054 28.8633 19.2002 27.6433 17.9651ZM6.46822 1.04723C6.46822 0.470671 7.0307 0 7.73123 0C8.43176 0 8.99424 0.468222 8.99424 1.04723V5.62846C8.99424 6.20502 8.42994 6.67569 7.73123 6.67569C7.0307 6.67569 6.46822 6.20747 6.46822 5.62846V1.04723ZM1.39137 10.0157H25.4521V4.74098C25.4521 4.56104 25.3806 4.40252 25.2656 4.28622C25.1506 4.16993 24.9865 4.09771 24.8151 4.09771H22.5083C22.1214 4.09771 21.8078 3.77944 21.8078 3.38956C21.8078 2.99907 22.1214 2.6808 22.5083 2.6808H24.8151C25.3806 2.6808 25.8868 2.91155 26.2574 3.28613C26.6285 3.66132 26.8562 4.173 26.8562 4.74404V13.1176C26.396 12.9572 25.9225 12.8281 25.4363 12.7326V11.424H25.4521H1.39137V25.0833C1.39137 25.2632 1.46342 25.4211 1.57785 25.5374C1.69289 25.6537 1.85697 25.7265 2.02771 25.7265H13.4632C13.5928 26.2168 13.7569 26.6954 13.9542 27.1557H2.04104C1.47795 27.1557 0.969355 26.9262 0.598809 26.5504C0.227051 26.1788 0 25.6672 0 25.0955V4.74649C0 4.17789 0.227051 3.66315 0.598809 3.28857C0.969355 2.91338 1.47553 2.68386 2.04104 2.68386H4.50348C4.88977 2.68386 5.20461 3.00213 5.20461 3.3914C5.20461 3.7825 4.88977 4.10077 4.50348 4.10077H2.04104C1.86182 4.10077 1.70561 4.17299 1.59057 4.28929C1.47553 4.40558 1.40348 4.57022 1.40348 4.74404V10.0175H1.39137V10.0157ZM11.0147 4.09771C10.629 4.09771 10.3142 3.77944 10.3142 3.38956C10.3142 2.99907 10.629 2.6808 11.0147 2.6808H15.7101C16.097 2.6808 16.4118 2.99907 16.4118 3.38956C16.4118 3.77944 16.097 4.09771 15.7101 4.09771H11.0147Z" fill="#828282"/>
</g>
<defs>
<clipPath id="clip0_151_7690">
<rect width="31" height="31" fill="white"/>
</clipPath>
</defs>
</svg>
