<svg width="35" height="27" viewBox="0 0 35 27" fill="none" xmlns="http://www.w3.org/2000/svg">
<path d="M2.17757 0H31.8169C32.3592 0 32.849 0.217984 33.2059 0.566758C33.5628 0.918256 33.7814 1.40054 33.7814 1.9346V17.6131C33.7814 18.1471 33.5601 18.6294 33.2059 18.9809C32.8517 19.3297 32.3592 19.5477 31.8169 19.5477H2.17757C1.63525 19.5477 1.14551 19.3297 0.788574 18.9809C0.431641 18.6294 0.213053 18.1471 0.213053 17.6131V1.9346C0.213053 1.40054 0.434408 0.918256 0.788574 0.566758C1.14551 0.217984 1.63802 0 2.17757 0ZM18.5578 9.80109L14.637 7.10899V12.4714L18.5578 9.80109ZM14.2552 4.72207L20.5804 9.06812C20.68 9.12807 20.7686 9.20981 20.8377 9.31063C21.1144 9.70572 21.0148 10.2507 20.6136 10.5232L14.3105 14.8147C14.1584 14.9373 13.9619 15.0109 13.7489 15.0109C13.2591 15.0109 12.8607 14.6185 12.8607 14.1362V5.43597H12.8634C12.8634 5.26431 12.916 5.08992 13.0239 4.93733C13.3034 4.54223 13.8568 4.44687 14.2552 4.72207ZM17.1494 21.0872C17.9767 21.0872 18.7266 21.4196 19.2689 21.9537L19.2716 21.9564L19.2744 21.9537C19.6147 22.2888 19.8748 22.7057 20.0215 23.1689H33.1146C33.6043 23.1689 34.0028 23.5613 34.0028 24.0436C34.0028 24.5259 33.6043 24.9183 33.1146 24.9183H20.0187C19.8721 25.3842 19.6147 25.7984 19.2716 26.1335C18.7293 26.6676 17.9767 27 17.1494 27C16.3193 27 15.5695 26.6703 15.0272 26.1335C14.6868 25.7984 14.4268 25.3815 14.2801 24.9183H0.888184C0.398438 24.9183 0 24.5259 0 24.0436C0 23.5613 0.398438 23.1689 0.888184 23.1689H14.2801C14.4268 22.703 14.6841 22.2888 15.0272 21.9537C15.0465 21.9346 15.0659 21.9183 15.0853 21.9019C15.6221 21.3978 16.3498 21.0872 17.1494 21.0872ZM18.0182 23.188C17.7969 22.97 17.4897 22.8365 17.1494 22.8365C16.8257 22.8365 16.5324 22.9564 16.3138 23.1553L16.2806 23.1907C16.0592 23.4087 15.9209 23.7112 15.9209 24.0463C15.9209 24.3787 16.0592 24.6812 16.2806 24.9019C16.502 25.1199 16.8091 25.2561 17.1494 25.2561C17.487 25.2561 17.7941 25.1199 18.0182 24.9019C18.2257 24.6975 18.3586 24.4196 18.3752 24.1117C18.3724 24.0899 18.3724 24.0708 18.3724 24.049C18.3724 24.0272 18.3724 24.0054 18.3752 23.9864C18.3586 23.673 18.2257 23.3951 18.0182 23.188ZM31.8169 1.74932H2.17757C2.12777 1.74932 2.08073 1.77112 2.04476 1.80381C2.01156 1.83651 1.98942 1.88283 1.98942 1.9346V17.6131C1.98942 17.6621 2.01156 17.7084 2.04476 17.7439C2.07796 17.7766 2.125 17.7984 2.17757 17.7984H31.8169C31.8667 17.7984 31.9137 17.7766 31.9497 17.7439C31.9829 17.7112 32.005 17.6649 32.005 17.6131V1.9346C32.005 1.88556 31.9829 1.83924 31.9497 1.80381C31.9165 1.77112 31.8695 1.74932 31.8169 1.74932Z" fill="#828282"/>
</svg>
