<svg width="33" height="88" viewBox="0 0 33 88" fill="none" xmlns="http://www.w3.org/2000/svg">
<path d="M2 83.9146C2.46725 83.9146 2.8401 83.9146 3.21177 83.9146C4.01293 83.9158 4.79875 83.7997 5.5598 83.5558C6.70077 83.1889 7.65532 82.5411 8.4435 81.6517C8.91075 81.1234 9.37092 80.5882 9.85704 80.0773C10.7219 79.167 11.7048 78.4065 12.8694 77.891C13.1903 77.7493 13.5112 77.6414 13.8711 77.6309C14.4091 77.6158 14.8882 77.4068 15.2599 77.0341C15.9206 76.3712 16.7135 75.9265 17.5784 75.5979C17.9878 75.4423 18.1353 75.1857 18.1436 74.7526C18.1778 73.0134 18.0067 71.3031 17.6173 69.6033C17.3164 68.2901 17.3566 66.9479 17.5866 65.629C17.8085 64.3588 18.1058 63.1013 18.3913 61.8439C19.1394 58.5616 19.104 55.3071 18.0834 52.0805C17.8179 51.241 17.5878 50.3923 17.5383 49.5076C17.4486 47.9343 17.8085 46.4447 18.4881 45.0386C19.6126 42.7107 20.2603 40.2469 20.7099 37.7251C21.0084 36.0485 21.2703 34.3661 21.55 32.6872C21.7305 31.6016 21.6739 30.5265 21.419 29.4571C21.006 27.7295 20.7252 25.9832 20.6379 24.2079C20.501 21.4342 20.8963 18.7312 21.7517 16.0886C21.8615 15.7484 21.9641 15.4059 22.0798 15.068C22.2674 14.5223 22.1588 14.0416 21.7777 13.612C21.5936 13.4054 21.4072 13.201 21.229 12.9897C20.8078 12.4928 20.6993 11.9436 20.9553 11.3375C20.9765 11.2864 20.986 11.2307 21.0119 11.1831C21.2054 10.8232 21.2786 10.4539 21.2125 10.0394C21.1453 9.61798 21.2845 9.21857 21.5394 8.87606C21.6951 8.66707 21.865 8.45924 22.0656 8.2932C23.1653 7.38061 23.7647 6.1998 23.9806 4.8251C24.0974 4.07969 24.1422 3.32384 24.2343 2.57495C24.2685 2.29049 24.3298 2.00719 24.4006 1.72737C24.4337 1.5985 24.4986 1.4673 24.5824 1.36396C24.9635 0.894891 25.1888 0.889085 25.6419 1.28965C26.2307 1.80981 26.567 2.4693 26.6543 3.22515C26.7723 4.24689 26.8631 5.27559 26.8985 6.30314C26.9705 8.36403 26.8513 10.4214 26.6897 12.4777C26.613 13.4495 26.5363 14.4225 26.4997 15.3966C26.4325 17.2009 26.6472 18.9889 26.8726 20.7747C27.0779 22.3955 27.282 24.0164 27.5026 25.636C27.7575 27.4996 27.9923 29.3677 28.3073 31.2208C28.6129 33.0193 29.0047 34.805 29.3657 36.5942C29.7976 38.7329 29.9545 40.8936 29.8802 43.0683C29.8223 44.7426 29.702 46.4145 29.6583 48.0899C29.5982 50.3993 29.7291 52.7028 29.9899 54.9994C30.1763 56.6365 30.397 58.2701 30.5669 59.9084C30.7108 61.3028 30.7722 62.7054 30.6117 64.1033C30.5468 64.6664 30.6412 65.1947 30.797 65.7253C30.9173 66.134 31.0329 66.5439 31.1427 66.9549C31.3161 67.6005 31.3456 68.26 31.2571 68.9171C31.1226 69.9075 30.6341 70.7086 29.7952 71.2694C29.3952 71.5376 28.9504 71.749 28.5091 71.9475C27.9652 72.1913 27.4035 72.3957 26.7911 72.6395C27.0378 73.0215 27.2513 73.3837 27.4956 73.7251C28.5716 75.2345 29.5415 76.8054 30.312 78.4889C31.0306 80.0587 31.6111 81.6726 31.8978 83.3782C32.0406 84.2258 32.0382 85.0734 31.8624 85.9186C31.7574 86.4202 31.6229 86.5816 31.1037 86.6536C30.4135 86.7499 29.7185 86.8149 29.0247 86.8753C25.8508 87.1528 22.6933 86.9357 19.5465 86.5328C17.9524 86.3285 16.4115 85.8768 14.8823 85.4019C14.2723 85.2127 13.805 84.8377 13.5348 84.2002C13.3897 84.3047 13.267 84.3883 13.149 84.4766C12.6711 84.833 12.2062 85.208 11.713 85.5436C10.6145 86.2913 9.39451 86.6721 8.05177 86.6269C7.44884 86.6071 6.86242 86.4933 6.28662 86.3169C5.07013 85.9441 3.01237 84.8051 2 83.9146ZM29.0401 50.2936C29.0401 49.7235 29.0625 49.2022 29.0365 48.6821C28.9445 46.865 29.1628 45.0595 29.2135 43.2483C29.276 40.99 29.1675 38.741 28.6873 36.528C28.0832 33.7496 27.5062 30.9665 27.1251 28.1486C26.8454 26.0807 26.5906 24.0094 26.3298 21.9381C26.2366 21.2019 26.1611 20.4647 26.0679 19.7285C26.0207 19.357 25.8767 19.1886 25.5393 19.1294C24.3299 18.9146 23.1499 19.0458 21.9995 19.4603C21.7281 19.5579 21.5653 19.7518 21.5264 20.0374C21.4969 20.2545 21.4709 20.4728 21.445 20.6911C21.2066 22.7241 21.2821 24.749 21.5984 26.7681C21.7895 27.9884 22.0078 29.2052 22.173 30.4289C22.3039 31.3973 22.3252 32.3772 22.1576 33.3444C21.8851 34.913 21.5984 36.4804 21.2928 38.0432C20.7583 40.7717 20.035 43.4422 18.8267 45.9733C18.1094 47.4757 18.0669 49.0803 18.33 50.6965C18.3972 51.1098 18.5495 51.2225 18.9742 51.2654C21.7612 51.5499 24.5198 51.3943 27.249 50.7627C27.8566 50.6245 28.456 50.4492 29.0401 50.2936ZM28.5103 84.1166C28.2849 84.1805 28.102 84.2327 27.9073 84.2885C27.7587 84.0063 27.6253 83.7544 27.4861 83.492C27.3693 83.514 27.2749 83.5268 27.1817 83.5489C26.0148 83.8217 24.849 84.0957 23.6821 84.3674C22.4809 84.6472 21.2762 84.8249 20.0338 84.66C18.6887 84.4824 18.4787 84.3593 17.8439 83.1855C17.8238 83.1495 17.8038 83.1135 17.7849 83.0763C17.5288 82.5666 17.1926 82.1138 16.7855 81.7121C16.4705 81.4009 16.1554 81.0897 15.8357 80.7821C15.7861 80.7344 15.7141 80.7101 15.6528 80.6741C16.0811 81.4334 16.5094 82.1626 16.159 83.0821C15.8026 82.9544 15.4829 82.8395 15.1631 82.7257C15.1548 82.7431 15.1454 82.7617 15.1371 82.7791C15.3413 82.9544 15.5466 83.1297 15.7649 83.3167C15.5714 83.4955 15.4038 83.651 15.2103 83.8299C15.3696 83.9576 15.5041 84.0667 15.6563 84.1886C15.4274 84.3639 15.2445 84.5044 15.0333 84.667C15.536 84.9712 16.0445 85.15 16.5566 85.3149C17.9088 85.7514 19.3117 85.8698 20.7181 85.9697C22.0125 86.0614 23.3092 86.1311 24.6012 86.2449C26.5115 86.4132 28.4147 86.4701 30.3179 86.1415C31.1958 85.9894 31.2843 85.9116 31.2972 85.0385C31.322 83.3225 30.9503 81.6877 30.3002 80.104C29.6701 78.5691 28.797 77.1653 27.9321 75.7523C26.8454 73.977 25.7965 72.1786 24.7322 70.3905C24.6779 70.2988 24.6354 70.2001 24.5717 70.0759C24.7959 69.9946 24.9989 69.9214 25.2219 69.8413C25.5758 70.495 25.9133 71.1197 26.2507 71.7443C26.2791 71.7385 26.3086 71.7339 26.3369 71.7281C26.3475 71.5167 26.3794 71.3043 26.3664 71.0953C26.2873 69.8216 25.7292 68.7743 24.7593 67.9441C23.7257 67.0606 22.5175 66.8063 21.1984 67.1035C20.0338 67.3659 19.1654 68.0997 18.3795 68.938C18.3111 69.01 18.2686 69.1377 18.2722 69.2376C18.3088 70.2245 18.5259 71.1406 19.3329 71.8291C19.6373 72.0892 19.9241 72.3748 20.1907 72.6732C21.8261 74.496 23.4296 76.3468 25.0885 78.1476C26.6802 79.8741 27.6242 81.9408 28.5103 84.1166ZM27.1298 71.7315C27.1746 71.7257 27.2324 71.7304 27.282 71.7106C27.8236 71.4924 28.3746 71.2927 28.9008 71.043C29.9285 70.5577 30.4701 69.7252 30.6105 68.621C30.7332 67.6643 30.5256 66.7587 30.1645 65.8867C29.9274 65.3132 29.8318 64.7373 29.8377 64.1231C29.853 62.544 29.84 60.9638 29.8341 59.3848C29.8318 58.896 29.7091 58.781 29.2147 58.7752C29.1592 58.774 29.1026 58.7752 29.0471 58.7752C26.856 58.8054 24.6649 58.817 22.4738 58.8762C21.5299 58.9018 20.5883 59.0272 19.6468 59.1073C19.6055 59.2559 19.5701 59.3604 19.5465 59.466C19.2692 60.7548 18.9943 62.0436 18.717 63.3324C18.4598 64.5283 18.1908 65.7219 18.1719 66.9514C18.1672 67.3021 18.1813 67.6539 18.1884 68.0788C18.3512 67.9557 18.4421 67.8791 18.5412 67.8129C19.0497 67.4762 19.5406 67.1105 20.0727 66.8167C20.7524 66.4417 21.504 66.2676 22.2874 66.3105C24.6319 66.4406 26.4513 67.9894 26.9174 70.2558C27.0189 70.7377 27.0602 71.23 27.1298 71.7315ZM23.4603 83.6592C23.3033 83.3852 23.144 83.1762 23.0567 82.9416C22.77 82.1718 22.2898 81.5484 21.6668 81.0166C21.5051 80.8784 21.3423 80.8215 21.1346 80.8494C20.8585 80.8865 20.5813 80.9237 20.304 80.9376C19.3801 80.9829 18.9636 80.0529 19.2822 79.4352C19.4427 79.1252 19.707 78.8663 19.9335 78.5911C20.0161 78.4901 20.1258 78.4112 20.2485 78.2997C19.3483 77.7424 18.717 76.9842 18.2026 76.1331C17.3153 76.4989 16.4917 76.8484 15.8368 77.5113C15.3271 78.0268 14.6793 78.3043 13.9384 78.3728C13.6682 78.3984 13.3909 78.4739 13.1407 78.5818C12.0234 79.066 11.1054 79.8207 10.2853 80.6973C9.8417 81.1722 9.41929 81.6668 8.98744 82.1521C7.92316 83.3492 6.59812 84.112 5.02176 84.4545C4.81291 84.4998 4.60171 84.5393 4.35983 84.588C5.00052 85.0652 6.10492 85.5389 7.01817 85.7491C7.66358 85.8965 8.31253 85.9383 8.96975 85.8455C9.90306 85.7143 10.7361 85.3508 11.4877 84.8028C12.0139 84.4185 12.5225 84.0087 13.0522 83.629C13.5325 83.2853 13.9962 83.4165 14.2534 83.9402C14.2947 84.0249 14.3501 84.105 14.4233 84.2281C14.4681 83.8844 14.5047 83.6092 14.546 83.2865C14.2876 83.0577 14.0504 82.7547 14.2558 82.3251C14.5071 81.7991 14.9708 81.8827 15.464 81.9977C15.4144 81.8804 15.3944 81.8142 15.3602 81.7574C15.241 81.5565 15.1171 81.3568 14.9932 81.1582C14.7466 80.7646 14.7808 80.3687 15.0864 80.1191C15.4368 79.8323 15.9006 79.8253 16.2297 80.1342C17.1583 81.0073 18.1011 81.8723 18.6262 83.067C18.6698 83.1669 18.7418 83.2551 18.7878 83.355C18.894 83.5883 19.0863 83.6905 19.3282 83.7602C20.3559 84.0551 21.393 84.047 22.4361 83.8705C22.7724 83.8136 23.1051 83.7335 23.4603 83.6592ZM28.9563 51.0216C25.5711 51.9876 22.2095 52.3313 18.7146 51.9435C19.4828 54.0346 19.6102 56.1616 19.6137 58.3317C22.9647 58.2144 26.2625 58.0995 29.6076 57.9822C29.3893 55.6461 29.1746 53.3577 28.9563 51.0216ZM25.1558 1.81097C25.1204 1.99558 25.0933 2.12678 25.0708 2.25798C24.9033 3.25998 24.7582 4.26547 24.567 5.26282C24.3169 6.56438 23.7611 7.70803 22.7016 8.58115C22.4821 8.76228 22.311 9.01074 22.1506 9.24876C21.6821 9.94772 21.8037 10.5341 22.5069 11.0101C22.993 11.3387 23.2455 11.7869 23.2384 12.3662C23.2349 12.5984 23.2243 12.8365 23.17 13.0605C22.8196 14.5014 22.455 15.9377 22.0975 17.3762C22.0031 17.7571 21.9134 18.139 21.8084 18.5779C23.1794 18.5001 24.4927 18.4258 25.8213 18.3504C25.8213 17.5388 25.8083 16.7841 25.8248 16.0294C25.8449 15.0831 25.8696 14.1357 25.9298 13.1906C25.9758 12.4788 26.1481 11.7718 26.1469 11.0623C26.1457 8.5498 26.1009 6.03725 26.0584 3.52471C26.0454 2.842 25.6926 2.31023 25.1558 1.81097ZM24.8467 78.951C24.7971 78.8849 24.7759 78.85 24.7487 78.8187C22.9057 76.7369 21.0627 74.6563 19.2196 72.5756C19.1736 72.5234 19.1347 72.4549 19.0769 72.4282C19.0025 72.3933 18.9117 72.3933 18.8267 72.3771C18.8055 72.4595 18.7854 72.499 18.7854 72.5385C18.7843 73.5138 18.7819 74.4891 18.7878 75.4644C18.789 75.5689 18.8173 75.6861 18.8704 75.7767C19.3978 76.6928 20.0833 77.4521 21.0792 77.8968C21.1759 77.9398 21.2821 77.9641 21.386 77.999C21.596 77.7505 21.7871 77.5229 21.9901 77.2826C22.16 77.4417 22.2898 77.5624 22.4267 77.6913C22.2414 77.9908 22.0739 78.2753 21.8922 78.5493C21.7329 78.7897 21.5016 78.8814 21.2078 78.8489C21.0757 78.8338 20.9223 78.8361 20.8054 78.8872C20.4656 79.037 20.2179 79.3005 20.0137 79.6001C19.9146 79.7464 19.9064 79.9124 19.9949 80.0692C20.0881 80.234 20.2533 80.2108 20.4043 80.198C20.724 80.1713 21.0426 80.1365 21.3612 80.1017C21.583 80.0773 21.7612 80.1481 21.937 80.2863C22.7157 80.897 23.3364 81.6227 23.6986 82.5469C23.721 82.6049 23.7517 82.6618 23.8248 82.8186C23.9228 82.5434 24.0467 82.3565 24.0467 82.1707C24.0455 81.4961 24.4042 81.0363 24.8997 80.6416C25.1676 80.4291 25.4331 80.2143 25.7387 79.9693C25.3363 79.7313 24.9705 79.5142 24.5894 79.2889C24.6862 79.16 24.7593 79.0648 24.8467 78.951ZM27.2608 82.8278C26.8855 82.0836 26.5339 81.387 26.1788 80.681C26.0785 80.7008 26.01 80.7066 25.9463 80.7286C25.4236 80.9098 25.0862 81.2778 24.895 81.7771C24.6803 82.339 24.4809 82.9068 24.2591 83.5187C25.2537 83.29 26.226 83.0659 27.2608 82.8278ZM22.4373 13.1395C22.6933 12.242 22.4502 11.6742 21.6857 11.3352C21.3128 11.9622 21.5866 12.7505 22.4373 13.1395Z" stroke="white" stroke-width="0.92" stroke-miterlimit="10"/>
</svg>
