<svg width="214" height="25" viewBox="0 0 214 25" fill="none" xmlns="http://www.w3.org/2000/svg">
<path d="M25.3809 0.203582V23.8904H22.9027V4.93843L13.3011 20.8762H12.0798L2.47816 5.03891V23.8873H0V0.200439H2.1283L12.7407 17.7646L23.2494 0.200439H25.3809V0.203582Z" fill="white"/>
<path d="M31.1768 12.0475C31.1768 5.14303 36.6222 0 44.0243 0C51.3552 0 56.8363 5.10849 56.8363 12.0475C56.8363 18.9834 51.3552 24.095 44.0243 24.095C36.6255 24.095 31.1768 18.952 31.1768 12.0475ZM54.2577 12.0475C54.2577 6.39581 49.8942 2.23241 44.0276 2.23241C38.1286 2.23241 33.7294 6.39581 33.7294 12.0475C33.7294 17.6992 38.1286 21.8626 44.0276 21.8626C49.8909 21.8626 54.2577 17.6992 54.2577 12.0475Z" fill="white"/>
<path d="M60.2969 21.0147L61.3108 19.0869C63.0569 20.7447 66.1635 21.963 69.377 21.963C73.9511 21.963 75.9401 20.1011 75.9401 17.7682C75.9401 11.2719 60.8929 15.2626 60.8929 6.49934C60.8929 3.01414 63.6853 0.00305176 69.9018 0.00305176C72.6585 0.00305176 75.5222 0.781725 77.4788 2.10045L76.6074 4.09737C74.5115 2.77865 72.069 2.13498 69.905 2.13498C65.4346 2.13498 63.4456 4.06283 63.4456 6.4334C63.4456 12.9297 78.4927 9.00491 78.4927 17.6331C78.4927 21.1183 75.6291 24.098 69.3802 24.098C65.71 24.0949 62.111 22.8421 60.2969 21.0147Z" fill="white"/>
<path d="M81.7651 21.0147L82.7791 19.0869C84.5251 20.7447 87.6317 21.963 90.8453 21.963C95.4193 21.963 97.4083 20.1011 97.4083 17.7682C97.4083 11.2719 82.3612 15.2626 82.3612 6.49934C82.3612 3.01414 85.1536 0.00305176 91.37 0.00305176C94.1268 0.00305176 96.9904 0.781725 98.9471 2.10045L98.0756 4.09737C95.9797 2.77865 93.5372 2.13498 91.3733 2.13498C86.9029 2.13498 84.9139 4.06283 84.9139 6.4334C84.9139 12.9297 99.961 9.00491 99.961 17.6331C99.961 21.1183 97.0973 24.098 90.8485 24.098C87.1782 24.0949 83.5825 22.8421 81.7651 21.0147Z" fill="white"/>
<path d="M123.103 15.7016V23.8902H120.553V15.7016L110.777 0.20343H113.534L121.914 13.5037L130.294 0.20343H132.879L123.103 15.7016Z" fill="white"/>
<path d="M133.685 12.0475C133.685 5.14303 139.13 0 146.532 0C153.863 0 159.344 5.10849 159.344 12.0475C159.344 18.9834 153.863 24.095 146.532 24.095C139.13 24.095 133.685 18.952 133.685 12.0475ZM156.762 12.0475C156.762 6.39581 152.399 2.23241 146.532 2.23241C140.633 2.23241 136.234 6.39581 136.234 12.0475C136.234 17.6992 140.633 21.8626 146.532 21.8626C152.399 21.8626 156.762 17.6992 156.762 12.0475Z" fill="white"/>
<path d="M182.353 12.0475H184.832V21.0839C182.528 23.0808 179.247 24.095 175.858 24.095C168.421 24.095 162.975 18.9865 162.975 12.0475C162.975 5.10849 168.421 0 175.894 0C179.593 0 182.807 1.14918 184.971 3.41613L183.364 5.00802C181.304 3.04563 178.861 2.23241 175.998 2.23241C169.956 2.23241 165.525 6.39581 165.525 12.0475C165.525 17.6646 169.959 21.8626 175.965 21.8626C178.304 21.8626 180.468 21.3539 182.353 20.0352V12.0475Z" fill="white"/>
<path d="M207.457 17.5635H193.842L190.91 23.8902H188.221L199.394 0.20343H201.943L213.116 23.8902H210.392L207.457 17.5635ZM206.514 15.532L200.648 2.80949L194.781 15.532H206.514Z" fill="white"/>
</svg>
