<svg width="82" height="82" viewBox="0 0 82 82" fill="none" xmlns="http://www.w3.org/2000/svg">
<path d="M50.3658 57.3874L51.993 48.6493C52.0827 48.1496 52.0571 45.7537 51.0193 42.0637C51.0193 42.0637 49.4561 36.9771 46.5989 30.6606C45.433 28.0724 42.2043 30.1737 42.9986 32.8899L44.5874 38.4377C45.6636 42.1662 46.2914 46.279 44.9461 49.6487C43.588 53.0568 37.7327 54.0946 36.4258 51.4681C34.7986 48.1881 37.7839 44.844 39.3471 40.7184C40.3208 38.1559 40.5771 35.3243 40.5899 34.594C40.6539 31.3652 40.2439 30.5709 39.4239 29.5074C38.5399 28.3543 36.9383 28.649 36.7205 30.084C35.9518 35.1193 32.8127 38.1046 31.8774 39.1424C26.6883 44.8952 27.6493 48.5084 26.8677 52.5699C25.3558 60.424 9.94238 65.0109 9.94238 65.0109" stroke="white" stroke-width="2.5" stroke-miterlimit="10" stroke-linecap="round" stroke-linejoin="round"/>
<path d="M51.6471 50.5071L57.6689 41.8843C58.2583 41.0386 59.3218 40.6671 60.2314 41.1668C60.9105 41.5511 61.5127 42.384 61.5639 44.1777C61.6024 45.3565 61.3205 46.5096 60.8849 47.5474L53.9661 63.909C52.608 67.7143 49.9943 70.3024 46.7911 71.0199L22.7549 79.1558" stroke="white" stroke-width="2.5" stroke-miterlimit="10" stroke-linecap="round" stroke-linejoin="round"/>
<path d="M47.3421 9.99422C45.6892 5.79172 42.2299 2.83203 42.2299 2.83203C42.2299 2.83203 38.7705 5.79172 37.1177 9.99422" stroke="white" stroke-width="2.5" stroke-miterlimit="10" stroke-linecap="round" stroke-linejoin="round"/>
<path d="M44.126 12.9153C40.4104 18.0019 42.2169 25.6638 42.2169 25.6638C42.2169 25.6638 50.0582 25.0616 53.7738 19.975C57.4894 14.8884 55.6829 7.22656 55.6829 7.22656C55.6829 7.22656 47.8544 7.82875 44.126 12.9153Z" stroke="white" stroke-width="2.5" stroke-miterlimit="10" stroke-linecap="round" stroke-linejoin="round"/>
<path d="M42.2297 17.2461C41.8838 15.747 41.2944 14.2479 40.3207 12.9154C39.4366 11.6982 38.3219 10.7373 37.1176 9.98137C33.3122 7.5598 28.7638 7.21387 28.7638 7.21387C28.7638 7.21387 26.9572 14.8629 30.6729 19.9495C34.3885 25.0361 42.2297 25.6382 42.2297 25.6382" stroke="white" stroke-width="2.5" stroke-miterlimit="10" stroke-linecap="round" stroke-linejoin="round"/>
</svg>
