<svg width="68" height="68" viewBox="0 0 68 68" fill="none" xmlns="http://www.w3.org/2000/svg">
<path d="M41.767 47.5893L43.1164 40.343C43.1907 39.9287 43.1695 37.9418 42.3089 34.8818C42.3089 34.8818 41.0126 30.6637 38.6432 25.4255C37.6764 23.2793 34.9989 25.0218 35.6576 27.2743L36.9751 31.8749C37.8676 34.9668 38.3882 38.3774 37.2726 41.1718C36.1464 43.998 31.2907 44.8587 30.207 42.6805C28.8576 39.9605 31.3332 37.1874 32.6295 33.7662C33.437 31.6412 33.6495 29.293 33.6601 28.6874C33.7132 26.0099 33.3732 25.3512 32.6932 24.4693C31.9601 23.513 30.632 23.7574 30.4514 24.9474C29.8139 29.123 27.2107 31.5987 26.4351 32.4593C22.132 37.2299 22.9289 40.2262 22.2807 43.5943C21.027 50.1074 8.24512 53.9112 8.24512 53.9112" stroke="#252525" stroke-width="2.5" stroke-miterlimit="10" stroke-linecap="round" stroke-linejoin="round"/>
<path d="M42.8295 41.8837L47.8232 34.7331C48.312 34.0318 49.1939 33.7237 49.9482 34.1381C50.5114 34.4568 51.0107 35.1474 51.0532 36.6349C51.0851 37.6124 50.8514 38.5687 50.4901 39.4293L44.7526 52.9974C43.6264 56.1531 41.4589 58.2993 38.8026 58.8943L18.8701 65.6412" stroke="#252525" stroke-width="2.5" stroke-miterlimit="10" stroke-linecap="round" stroke-linejoin="round"/>
<path d="M39.2595 8.28703C37.8889 4.80203 35.0201 2.34766 35.0201 2.34766C35.0201 2.34766 32.1514 4.80203 30.7808 8.28703" stroke="#252525" stroke-width="2.5" stroke-miterlimit="10" stroke-linecap="round" stroke-linejoin="round"/>
<path d="M36.5928 10.7097C33.5115 14.9278 35.0096 21.2816 35.0096 21.2816C35.0096 21.2816 41.5121 20.7822 44.5934 16.5641C47.6746 12.3459 46.1765 5.99219 46.1765 5.99219C46.1765 5.99219 39.6846 6.49156 36.5928 10.7097Z" stroke="#252525" stroke-width="2.5" stroke-miterlimit="10" stroke-linecap="round" stroke-linejoin="round"/>
<path d="M35.0203 14.3008C34.7334 13.0577 34.2446 11.8146 33.4371 10.7096C32.704 9.7002 31.7796 8.90332 30.7809 8.27645C27.6253 6.26832 23.8534 5.98145 23.8534 5.98145C23.8534 5.98145 22.3553 12.3246 25.4365 16.5427C28.5178 20.7608 35.0203 21.2602 35.0203 21.2602" stroke="#252525" stroke-width="2.5" stroke-miterlimit="10" stroke-linecap="round" stroke-linejoin="round"/>
</svg>
