<svg width="20" height="20" viewBox="0 0 20 20" fill="none" xmlns="http://www.w3.org/2000/svg">
<mask id="path-1-inside-1_883_10197" fill="white">
<path fill-rule="evenodd" clip-rule="evenodd" d="M8.00002 18C11.3137 18 14 15.3137 14 12C14 8.68631 11.3137 6 8.00002 6C4.68631 6 2 8.68631 2 12C2 15.3137 4.68631 18 8.00002 18ZM8.00002 20C12.4183 20 16 16.4183 16 12C16 7.58171 12.4183 4 8.00002 4C3.58171 4 0 7.58171 0 12C0 16.4183 3.58171 20 8.00002 20Z"/>
</mask>
<path d="M8.00002 20.3275C12.5991 20.3275 16.3275 16.5991 16.3275 12H11.6726C11.6726 14.0283 10.0283 15.6726 8.00002 15.6726V20.3275ZM16.3275 12C16.3275 7.40088 12.5991 3.67254 8.00002 3.67254V8.32747C10.0283 8.32747 11.6726 9.97174 11.6726 12H16.3275ZM8.00002 3.67254C3.40088 3.67254 -0.327464 7.40088 -0.327464 12H4.32747C4.32747 9.97174 5.97174 8.32747 8.00002 8.32747V3.67254ZM-0.327464 12C-0.327464 16.5991 3.40088 20.3275 8.00002 20.3275V15.6726C5.97174 15.6726 4.32747 14.0283 4.32747 12H-0.327464ZM8.00002 22.3275C13.7038 22.3275 18.3275 17.7038 18.3275 12H13.6726C13.6726 15.1329 11.1329 17.6726 8.00002 17.6726V22.3275ZM18.3275 12C18.3275 6.29628 13.7038 1.67253 8.00002 1.67253V6.32747C11.1329 6.32747 13.6726 8.86713 13.6726 12H18.3275ZM8.00002 1.67253C2.29628 1.67253 -2.32747 6.29628 -2.32747 12H2.32747C2.32747 8.86713 4.86713 6.32747 8.00002 6.32747V1.67253ZM-2.32747 12C-2.32747 17.7038 2.29628 22.3275 8.00002 22.3275V17.6726C4.86713 17.6726 2.32747 15.1329 2.32747 12H-2.32747Z" fill="#7C8364" mask="url(#path-1-inside-1_883_10197)"/>
<mask id="path-3-inside-2_883_10197" fill="white">
<path fill-rule="evenodd" clip-rule="evenodd" d="M15.9856 12.4851C17.2215 11.3861 18.0001 9.78397 18.0001 8.00002C18.0001 4.68631 15.3138 2 12 2C10.216 2 8.61394 2.77858 7.51489 4.01446C6.51888 4.07406 5.57198 4.31586 4.70703 4.70701C5.96228 1.93133 8.75564 0 12 0C16.4183 0 20.0001 3.58171 20.0001 8.00002C20.0001 11.2444 18.0687 14.0377 15.2931 15.293C15.6842 14.4281 15.926 13.4812 15.9856 12.4851Z"/>
</mask>
<path d="M15.9856 12.4851L14.4389 10.7458L13.7197 11.3854L13.6622 12.3462L15.9856 12.4851ZM7.51489 4.01446L7.65391 6.33777L8.61458 6.28028L9.25411 5.56113L7.51489 4.01446ZM4.70703 4.70701L2.58634 3.74796L0.0437622 9.37024L5.66606 6.82771L4.70703 4.70701ZM15.2931 15.293L13.1723 14.334L10.6297 19.9565L16.2521 17.4137L15.2931 15.293ZM17.5322 14.2244C19.2437 12.7024 20.3275 10.4763 20.3275 8.00002H15.6726C15.6726 9.09166 15.1992 10.0698 14.4389 10.7458L17.5322 14.2244ZM20.3275 8.00002C20.3275 3.40088 16.5992 -0.327465 12 -0.327465V4.32747C14.0283 4.32747 15.6726 5.97173 15.6726 8.00002H20.3275ZM12 -0.327465C9.52374 -0.327465 7.29765 0.75631 5.77566 2.46778L9.25411 5.56113C9.93022 4.80085 10.9083 4.32747 12 4.32747V-0.327465ZM7.37586 1.69115C6.09126 1.76801 4.86686 2.08034 3.748 2.58631L5.66606 6.82771C6.27711 6.55138 6.94651 6.3801 7.65391 6.33777L7.37586 1.69115ZM6.82772 5.66605C7.72008 3.69283 9.70311 2.32747 12 2.32747V-2.32747C7.80817 -2.32747 4.20449 0.169823 2.58634 3.74796L6.82772 5.66605ZM12 2.32747C15.1329 2.32747 17.6726 4.86714 17.6726 8.00002H22.3275C22.3275 2.29627 17.7037 -2.32747 12 -2.32747V2.32747ZM17.6726 8.00002C17.6726 10.2969 16.3072 12.2799 14.334 13.1724L16.2521 17.4137C19.8302 15.7955 22.3275 12.1919 22.3275 8.00002H17.6726ZM17.4138 16.2521C17.9197 15.1332 18.2321 13.9088 18.3089 12.624L13.6622 12.3462C13.6199 13.0536 13.4487 13.723 13.1723 14.334L17.4138 16.2521Z" fill="#7C8364" mask="url(#path-3-inside-2_883_10197)"/>
<path d="M5.65559 9.3619L5.65553 9.36184L5.65559 9.3619ZM5.65492 9.36116L5.65487 9.3611L5.65492 9.36116Z" stroke="#7C8364" stroke-width="2.32747"/>
</svg>
