<?xml version="1.0" standalone="no"?>
<!DOCTYPE svg PUBLIC "-//W3C//DTD SVG 20010904//EN"
 "http://www.w3.org/TR/2001/REC-SVG-20010904/DTD/svg10.dtd">
<svg version="1.0" xmlns="http://www.w3.org/2000/svg"
 width="49.000000pt" height="44.000000pt" viewBox="0 0 49.000000 44.000000"
 preserveAspectRatio="xMidYMid meet">

<g transform="translate(0.000000,44.000000) scale(0.100000,-0.100000)"
fill="#000000" stroke="none">
<path d="M202 389 c-45 -51 -51 -77 -32 -154 35 -140 32 -185 -13 -185 -25 0
-67 -25 -67 -41 0 -5 65 -9 155 -9 90 0 155 4 155 9 0 15 -42 41 -67 41 -12 0
-25 5 -29 11 -11 18 -6 91 11 154 25 96 20 123 -28 176 l-42 46 -43 -48z m72
-19 c14 -22 26 -49 26 -60 0 -27 -17 -60 -32 -60 -7 0 -7 5 2 14 6 8 10 25 8
38 -2 18 -9 23 -33 23 -29 0 -30 -1 -28 -45 2 -44 1 -44 -12 -20 -21 37 -18
66 11 110 15 22 28 40 29 40 1 0 14 -18 29 -40z"/>
</g>
</svg>
