<svg width="15" height="12" viewBox="0 0 15 12" fill="none" xmlns="http://www.w3.org/2000/svg">
<path fill-rule="evenodd" clip-rule="evenodd" d="M5.37388 0.572266L5.30073 0.576514C5.13202 0.596197 4.9792 0.683297 4.88357 0.81718L3.87946 2.22227H1.83817C0.861809 2.22227 0.0703125 2.961 0.0703125 3.87227V9.92227C0.0703125 10.8335 0.861809 11.5723 1.83817 11.5723H12.4453C13.4217 11.5723 14.2132 10.8335 14.2132 9.92227V3.87227L14.2102 3.77532C14.1564 2.90917 13.3868 2.22227 12.4453 2.22227H10.4034L9.39991 0.81718C9.29062 0.664171 9.10663 0.572266 8.9096 0.572266H5.37388ZM5.68831 1.67188H8.5929L9.59702 3.07696C9.70631 3.22997 9.8903 3.32188 10.0873 3.32188H12.4445C12.7699 3.32188 13.0338 3.56812 13.0338 3.87188V9.92188C13.0338 10.2256 12.7699 10.4719 12.4445 10.4719H1.83733C1.51188 10.4719 1.24805 10.2256 1.24805 9.92188V3.87188C1.24805 3.56812 1.51188 3.32188 1.83733 3.32188H4.19448L4.26763 3.31763C4.43634 3.29794 4.58916 3.21084 4.68479 3.07696L5.68831 1.67188ZM7.14174 3.87305C5.51447 3.87305 4.19531 5.10426 4.19531 6.62305C4.19531 8.14183 5.51447 9.37305 7.14174 9.37305C8.76901 9.37305 10.0882 8.14183 10.0882 6.62305C10.0882 5.10426 8.76901 3.87305 7.14174 3.87305ZM7.1409 4.97266C8.11726 4.97266 8.90876 5.71139 8.90876 6.62266C8.90876 7.53393 8.11726 8.27266 7.1409 8.27266C6.16454 8.27266 5.37305 7.53393 5.37305 6.62266C5.37305 5.71139 6.16454 4.97266 7.1409 4.97266Z" fill="#404342"/>
</svg>
