<svg width="12" height="13" viewBox="0 0 12 13" fill="none" xmlns="http://www.w3.org/2000/svg">
<path fill-rule="evenodd" clip-rule="evenodd" d="M11.6004 6.50039C11.6004 9.59318 9.09318 12.1004 6.00039 12.1004C2.9076 12.1004 0.400391 9.59318 0.400391 6.50039C0.400391 3.4076 2.9076 0.900391 6.00039 0.900391C9.09318 0.900391 11.6004 3.4076 11.6004 6.50039ZM6.00039 3.00039C6.29034 3.00039 6.52539 3.23544 6.52539 3.52539V6.67539C6.52539 6.96534 6.29034 7.20039 6.00039 7.20039C5.71044 7.20039 5.47539 6.96534 5.47539 6.67539V3.52539C5.47539 3.23544 5.71044 3.00039 6.00039 3.00039ZM6.00039 10.0004C6.38699 10.0004 6.70039 9.68699 6.70039 9.30039C6.70039 8.91379 6.38699 8.60039 6.00039 8.60039C5.61379 8.60039 5.30039 8.91379 5.30039 9.30039C5.30039 9.68699 5.61379 10.0004 6.00039 10.0004Z" fill="white"/>
</svg>
