<svg width="19" height="21" viewBox="0 0 19 21" fill="none" xmlns="http://www.w3.org/2000/svg">
<path d="M1.39007 9.92154C1.39007 11.7232 1.38174 13.5232 1.3934 15.3248C1.40173 16.7328 2.2414 17.5472 3.69583 17.5584C5.35018 17.5712 7.00287 17.5648 8.65722 17.56C9.15202 17.5584 9.65683 17.5744 9.67515 18.2017C9.69181 18.8353 9.19701 18.8753 8.69387 18.8737C6.95789 18.8689 5.22023 18.8881 3.48425 18.8673C1.49503 18.8433 0.0472646 17.464 0.0356025 15.5456C0.0139443 11.7856 0.0156104 8.02392 0.0339365 4.26387C0.0422666 2.36144 1.47337 0.935822 3.46426 0.902221C6.2465 0.855821 9.03207 0.852621 11.8143 0.902221C13.8002 0.937422 15.223 2.37584 15.2596 4.26867C15.2796 5.27508 15.258 6.28149 15.2663 7.28791C15.2696 7.78231 15.1847 8.23832 14.5499 8.23352C13.8968 8.22872 13.8685 7.73751 13.8685 7.26231C13.8702 6.30869 13.8852 5.35508 13.8618 4.40147C13.8302 3.03985 13.0688 2.25744 11.6627 2.24144C8.99209 2.20944 6.31814 2.21104 3.64585 2.23984C2.17476 2.25584 1.3984 3.07185 1.39174 4.51827C1.38341 6.31989 1.39007 8.11992 1.39007 9.92154Z" fill="white"/>
<path d="M13.8628 19.9855C13.438 20.2559 13.1064 20.4975 12.7466 20.6879C11.9219 21.1231 11.1722 20.7231 11.1189 19.8271C11.0972 19.4575 11.1139 19.0863 11.1122 18.715C11.1072 17.571 11.1056 16.5294 10.2975 15.4558C9.06136 13.8126 9.71777 11.5293 11.4371 10.3261C13.1098 9.15492 15.4222 9.35492 16.8633 10.7965C18.3261 12.259 18.3994 14.4846 17.0932 16.099C16.835 16.4174 16.6817 16.8798 16.6484 17.2878C16.5801 18.1038 16.645 18.9294 16.6217 19.7503C16.5934 20.7599 15.837 21.1519 14.9241 20.6431C14.5675 20.4431 14.2293 20.2143 13.8628 19.9855ZM16.6234 13.5918C16.6351 12.0958 15.4255 10.9053 13.8861 10.8957C12.3467 10.8861 11.1156 12.0702 11.1156 13.5582C11.1172 15.0494 12.3434 16.2222 13.8928 16.211C15.4005 16.2014 16.6117 15.0398 16.6234 13.5918ZM12.515 19.0878C12.555 19.1551 12.595 19.2239 12.635 19.2911C13.4713 18.123 14.3543 18.5742 15.2039 19.1919C15.2039 18.5086 15.2039 17.9694 15.2039 17.4862C14.276 17.4862 13.4113 17.4862 12.515 17.4862C12.515 18.0062 12.515 18.547 12.515 19.0878Z" fill="white"/>
<path d="M7.08443 9.57237C6.20311 9.57237 5.32345 9.57237 4.44213 9.57237C3.95732 9.57237 3.51916 9.46037 3.5075 8.90996C3.4975 8.36275 3.91567 8.21875 4.41048 8.21875C6.17145 8.21875 7.9341 8.22035 9.69507 8.21875C10.1815 8.21875 10.6147 8.33075 10.628 8.88116C10.6414 9.43637 10.2132 9.56917 9.72506 9.57237C8.84707 9.57557 7.96575 9.57237 7.08443 9.57237Z" fill="white"/>
<path d="M6.593 4.88033C7.30771 4.88033 8.0241 4.87713 8.73882 4.88193C9.21363 4.88513 9.65513 4.98593 9.67512 5.54274C9.69678 6.11395 9.26361 6.23075 8.78214 6.23235C7.32437 6.23715 5.86661 6.23715 4.40885 6.23235C3.92571 6.23075 3.48921 6.11075 3.50921 5.54594C3.52753 4.99553 3.97069 4.88353 4.44717 4.88033C5.16356 4.87713 5.87828 4.88033 6.593 4.88033Z" fill="white"/>
<path d="M6.10638 10.896C6.71281 10.896 7.33256 10.8256 7.919 10.9264C8.20055 10.9744 8.42047 11.3488 8.6687 11.576C8.4338 11.7856 8.20722 12.1648 7.96065 12.1776C6.69614 12.2384 5.42498 12.2368 4.16214 12.1728C3.93056 12.1616 3.72065 11.7584 3.50073 11.536C3.73564 11.3232 3.94722 10.9648 4.20879 10.9264C4.82854 10.8352 5.47163 10.896 6.10638 10.896Z" fill="white"/>
<path d="M5.92811 13.5724C6.47623 13.5724 7.03768 13.502 7.5658 13.5996C7.85402 13.654 8.08393 13.9948 8.3405 14.206C8.0956 14.43 7.86235 14.8284 7.60246 14.846C6.48456 14.918 5.35667 14.918 4.23878 14.846C3.97888 14.8284 3.74564 14.4252 3.50073 14.198C3.7623 13.99 3.99887 13.654 4.29042 13.5996C4.81855 13.5036 5.38166 13.5724 5.92811 13.5724Z" fill="white"/>
</svg>
