<svg width="65" height="48" viewBox="0 0 65 48" fill="none" xmlns="http://www.w3.org/2000/svg">
<path d="M1 42.3225C1.24535 42.0046 1.53049 41.7194 1.84844 41.4741C3.99251 40.2014 6.15947 38.9631 8.315 37.7057C8.68939 37.4497 9.12879 37.3051 9.58207 37.2889C10.0354 37.2726 10.4839 37.3854 10.8757 37.614C11.2493 37.8338 11.6748 37.9497 12.1082 37.9497C12.5417 37.9497 12.9672 37.8338 13.3408 37.614C15.9604 36.2457 18.8115 35.3761 21.7489 35.0495C23.5528 34.8431 25.3835 34.8546 27.1988 34.7247C27.9907 34.6953 28.7767 34.5761 29.5416 34.3692C32.0067 33.6049 34.4451 32.7908 36.8911 31.9806C37.1625 31.9014 37.4105 31.7571 37.6134 31.5602C39.295 29.6874 41.4773 28.8849 43.8889 28.5562C44.2683 28.4974 44.6516 28.468 45.0355 28.4683C47.5541 28.5256 49.1402 26.2439 49.2778 24.2642C49.3751 21.9516 49.7918 19.6636 50.516 17.4651C51.1619 15.6727 52.0027 14.0063 53.4895 12.7451C53.7379 12.5349 53.8716 12.3209 53.4895 12.1604C51.418 11.3349 50.3403 9.64942 49.5873 7.67734C49.5568 7.6009 49.5185 7.53211 49.488 7.46331C48.823 7.50917 48.5248 7.79199 48.5401 8.5449C48.5669 9.77172 48.651 10.9985 48.7465 12.2215C48.8306 13.3222 48.9758 14.4191 49.0599 15.5236C49.0599 15.7071 48.9185 15.9058 48.8382 16.1045C48.6357 16.0128 48.3452 15.9822 48.2344 15.8256C46.9311 13.9796 45.7693 12.0457 45.326 9.79465C45.1876 9.07414 45.1967 8.33308 45.3527 7.61619C45.6852 6.15624 47.0038 5.49123 48.4331 5.94221C48.7045 6.02629 48.9682 6.1333 49.2395 6.23267C49.488 2.85415 53.0041 0.752125 55.5533 1.02348C56.4932 1.12716 57.3848 1.49411 58.1254 2.08213C60.2503 3.7026 61.8211 5.72054 62.4823 8.35381C62.8301 9.74497 62.3906 10.4902 61.0376 10.9489C60.7892 11.0329 60.5255 11.0788 60.2733 11.1399C60.0281 11.1795 59.8047 11.3043 59.6425 11.4924C59.4804 11.6804 59.3897 11.9197 59.3866 12.168C59.3025 13.1273 59.1802 14.079 59.1534 15.0459C59.1549 15.4408 59.2603 15.8283 59.4592 16.1695C60.686 18.2486 61.9893 20.278 63.1932 22.3686C64.4697 24.5929 64.0646 25.9955 61.5689 27.272C61.2505 27.4017 60.977 27.6217 60.7821 27.9049C60.5872 28.188 60.4794 28.5221 60.472 28.8657C60.1357 31.9729 59.7841 35.0839 59.3598 38.1796C59.1534 39.7084 58.8057 41.2371 58.4617 42.7659C58.3585 43.2245 58.4884 43.3735 58.8821 43.5302C60.2809 44.0424 61.6682 44.5965 63.0861 45.1163C63.5868 45.3036 63.9996 45.5635 63.9193 46.1635C63.8391 46.7635 63.3728 46.9011 62.8377 46.9279C60.6745 47.0884 58.5458 47.0272 56.4781 46.2629C55.6106 45.938 55.0296 45.4029 54.9494 44.4628C54.8271 43.0028 54.7583 41.5352 54.6589 39.9568C54.2309 39.9568 53.6652 39.9568 53.0958 39.9568C51.697 39.9377 51.376 39.6625 51.1008 38.2561L50.9441 37.4497C50.7071 37.5949 50.5199 37.6904 50.3517 37.8318C45.7655 41.1378 40.5524 42.6627 34.9419 42.8003C32.817 42.8576 30.6921 42.6703 28.5633 42.6397C27.2982 42.6397 26.0255 42.6397 24.7605 42.72C19.3258 43.0525 13.8949 43.45 8.46024 43.7519C6.40025 43.8627 4.32499 43.7825 2.26119 43.7825C1.99413 43.7809 1.7337 43.6992 1.51361 43.5479C1.29352 43.3966 1.12391 43.1828 1.02673 42.934L1 42.3225ZM58.2706 14.9427C58.3547 13.9719 58.4311 13.0967 58.5076 12.2215C58.5955 11.1667 59.0235 10.6355 60.0363 10.3106C60.1127 10.2877 60.1892 10.2609 60.2694 10.2418C61.7982 9.85962 62.0084 9.45833 61.4848 7.94869C60.9071 6.23201 59.8804 4.70125 58.5114 3.51533C57.8313 2.87076 57.0314 2.36567 56.1571 2.02862C53.9137 1.31011 50.9861 2.95351 50.3211 5.2237C50.1531 5.81067 50.1531 6.43301 50.3211 7.01998C50.9555 9.01117 51.976 10.7157 54.1086 11.4648C54.701 11.6712 54.8729 12.7642 54.3723 13.1464C52.7633 14.3962 51.9186 16.1275 51.2728 17.9811C50.5657 20.0105 50.3402 22.124 50.1644 24.2489C50.1257 25.1131 49.8782 25.955 49.4429 26.7025C49.0075 27.45 48.3975 28.0808 47.6649 28.5409C47.0343 28.946 46.2547 29.1218 45.4559 29.4352C45.5973 32.4927 45.8687 35.6343 47.9057 38.3058C50.9983 36.4531 53.819 34.1803 56.287 31.5525C56.3526 31.4727 56.4014 31.3804 56.4303 31.2812C56.4592 31.182 56.4676 31.078 56.4552 30.9754C56.073 28.904 55.6526 26.8402 55.2322 24.7764C55.2065 24.5813 55.1132 24.4014 54.9685 24.268C53.8859 23.5392 53.1166 22.4302 52.813 21.1609C52.1785 18.7951 52.3887 16.5746 54.0856 14.6637C55.022 13.6051 55.9966 13.4751 57.1966 14.2127C57.5253 14.4497 57.8578 14.6752 58.2706 14.9427ZM44.5539 29.3473C42.1156 29.6034 39.9677 30.2722 38.2937 32.0838C38.1225 32.31 37.8997 32.4921 37.644 32.615C34.7738 33.5705 31.9112 34.568 29.0104 35.4011C28.0167 35.684 26.9008 35.5234 25.8421 35.5922C25.7429 35.5936 25.645 35.6157 25.5548 35.6572C25.4646 35.6986 25.3841 35.7585 25.3185 35.833C25.1716 36.2146 25.0591 36.6085 24.9822 37.0101C26.4842 36.9146 27.9135 37.0331 29.2206 36.6967C32.1864 35.9324 35.091 34.931 38.0109 34.0406C38.1761 34.0012 38.3287 33.9206 38.4544 33.8063C38.58 33.692 38.6746 33.5478 38.7294 33.387C38.9496 32.8327 39.2907 32.3345 39.7277 31.9285C40.1647 31.5226 40.6867 31.2192 41.2557 31.0404C41.5499 30.9334 41.9321 30.7652 42.1041 31.1971C42.2761 31.629 41.8824 31.736 41.5767 31.8468C41.0651 32.0028 40.5997 32.2819 40.2212 32.6598C39.8427 33.0376 39.5628 33.5025 39.4059 34.0138C39.3572 34.192 39.2599 34.3532 39.1249 34.4794C38.99 34.6056 38.8226 34.6918 38.6415 34.7285C35.6108 35.6496 32.5953 36.6165 29.5531 37.5108C28.8037 37.7012 28.0332 37.7962 27.26 37.7936C26.1746 37.8318 25.0892 37.7669 24.0038 37.7936C23.828 37.7936 23.5222 37.935 23.4993 38.0535C23.2623 39.3262 23.0712 40.6103 22.861 41.9059H23.7286C25.7504 41.9059 27.7798 41.8104 29.7977 41.9289C33.8069 42.162 37.7739 41.9938 41.6761 40.9696C43.569 40.4933 45.3893 39.7644 47.0878 38.8026C45.0699 35.9859 44.7412 32.7373 44.5539 29.3473ZM62.7536 46.1215V45.9495C62.5893 45.8769 62.4288 45.8042 62.2606 45.7393C60.8503 45.1966 59.4401 44.6462 58.0222 44.1226C57.9179 44.1037 57.819 44.0621 57.7326 44.0007C57.6462 43.9393 57.5744 43.8596 57.5222 43.7673C57.47 43.675 57.4388 43.5724 57.4308 43.4667C57.4228 43.361 57.438 43.2548 57.4756 43.1557C57.9648 40.6906 58.4999 38.2293 58.8515 35.7413C59.3369 32.3016 59.6732 28.839 60.0783 25.3879C60.2656 23.7865 60.5217 22.2004 60.2236 20.5685C59.8032 18.2563 58.9241 16.2727 56.8068 15.0268C55.8055 14.4382 55.2781 14.4917 54.5787 15.409C53.027 17.3811 53.0079 19.5442 53.9137 21.7762C54.1346 22.2162 54.3902 22.6379 54.678 23.0374L54.8424 22.9533C54.74 22.5611 54.671 22.1609 54.636 21.7571C54.636 21.4972 54.7316 21.0653 54.8921 20.9927C55.2743 20.8551 55.3927 21.2067 55.4501 21.5316C55.4501 21.6539 55.5074 21.7724 55.5303 21.8908C56.0998 24.7572 56.6769 27.6236 57.2196 30.4977C57.3189 31.032 57.3189 31.58 57.2196 32.1143C56.7419 34.6024 56.1036 37.0598 55.7367 39.5593C55.5189 41.0575 55.6641 42.6168 55.6947 44.1456C55.6867 44.4582 55.7904 44.7635 55.9872 45.0066C56.1841 45.2496 56.4611 45.4146 56.7686 45.4717C57.7741 45.7426 58.7951 45.952 59.8261 46.0985C60.8008 46.1586 61.7781 46.1663 62.7536 46.1215ZM22.6699 37.8051C19.5857 38.0076 16.6238 38.3669 13.8797 39.609C12.0796 40.4192 10.44 40.4269 8.79656 39.2268C8.61749 39.1257 8.4178 39.0667 8.21255 39.0541C8.0073 39.0415 7.80187 39.0757 7.61179 39.1542C5.78112 40.1479 3.98869 41.2142 2.19242 42.2728C2.05865 42.3493 1.9975 42.548 1.90195 42.6894C2.05483 42.7697 2.20768 42.9187 2.35673 42.9187C4.48551 42.9187 6.61431 42.9722 8.73545 42.8614C11.7585 42.7009 14.7701 42.4104 17.7894 42.1926C19.192 42.0932 20.5985 42.0321 21.9935 41.9518L22.6699 37.8051ZM24.4127 35.684C24.1911 35.684 24.0305 35.684 23.8738 35.684C20.4571 35.9171 17.1588 36.628 14.0899 38.214C12.8325 38.8637 11.5942 39.0319 10.2909 38.3019C9.98135 38.1299 9.52655 38.1987 9.14437 38.1567C10.1954 39.3529 11.4184 39.5899 12.9012 39.051C13.9752 38.6688 15.0377 38.2255 16.1384 37.9045C18.5316 37.2601 20.998 36.9274 23.4764 36.9146C23.9464 36.9146 24.2025 36.777 24.2407 36.2954C24.283 36.0877 24.3405 35.8833 24.4127 35.684ZM48.3987 6.87857C47.1604 6.40084 46.205 6.95119 46.1056 8.18947C45.9107 10.3182 46.954 12.0419 48.0165 13.9223C47.9019 12.1986 47.8025 10.6507 47.6917 9.10671C47.6332 8.70603 47.6665 8.2973 47.7889 7.91133C47.9114 7.52537 48.1199 7.17224 48.3987 6.87857ZM60.8198 26.6147L60.9879 26.7331C61.5353 26.3693 62.0471 25.9547 62.5167 25.4949C62.6655 25.3217 62.7786 25.1207 62.8495 24.9036C62.9203 24.6865 62.9475 24.4575 62.9294 24.2298C62.6734 22.8616 61.8478 21.7418 61.1064 20.5799C61.588 22.6285 60.9191 24.6082 60.8198 26.6147ZM55.1137 37.5223C55.259 36.8038 55.3966 36.0929 55.5494 35.382C55.7023 34.6712 55.8743 33.9488 56.0692 33.0889C55.6341 33.5636 55.1598 34.0009 54.6513 34.396C53.757 34.9731 53.6118 35.6534 53.9252 36.6509C53.9721 36.9217 54.1221 37.1637 54.3438 37.3262C54.5654 37.4886 54.8414 37.5589 55.1137 37.5223ZM52.92 35.9056C52.5378 36.1884 52.2703 36.391 52.0066 36.6088C51.6244 36.9375 51.8728 38.7988 52.3505 39.0204C52.3859 39.0405 52.4248 39.0535 52.4652 39.0587H54.9035V38.3669C53.2028 38.4624 53.1646 37.1745 52.92 35.9056Z" fill="#252525" stroke="#252525" stroke-width="1.2"/>
</svg>
