<svg width="71" height="48" viewBox="0 0 71 48" fill="none" xmlns="http://www.w3.org/2000/svg">
<path d="M55.9779 13.8805C55.4018 13.7666 54.8539 13.6902 54.3225 13.5467C53.0751 13.2107 52.0094 12.5329 51.0274 11.7124C50.9568 11.6533 50.8861 11.5942 50.8183 11.5314C50.6654 11.3908 50.4967 11.3642 50.3086 11.4521C50.2249 11.4911 50.1377 11.5221 50.0555 11.5624C49.6712 11.7542 49.5299 11.964 49.5904 12.3931C49.6546 12.8473 49.7303 13.308 49.8774 13.7399C50.0735 14.3153 50.3186 14.8777 50.5869 15.425C51.1197 16.5123 51.4853 17.6443 51.5797 18.8549C51.7181 20.6343 51.1089 22.0843 49.656 23.1536C49.1787 23.5047 48.6466 23.7528 48.0929 23.9532C47.6732 24.1053 47.2485 24.2438 46.8073 24.3952C46.8015 24.3389 46.7856 24.3036 46.7965 24.2813C47.2788 23.2553 47.2694 22.2011 46.9284 21.1477C46.6631 20.3272 46.3501 19.5211 46.0502 18.7114C45.6904 17.7394 45.3133 16.774 44.9607 15.7999C44.6846 15.0363 44.513 14.249 44.562 13.4299C44.6644 11.711 45.4561 10.4593 47.0762 9.788C47.3415 9.67841 47.622 9.60775 47.8931 9.51113C48.3467 9.34962 48.798 9.18234 49.2429 9.02011C49.2429 8.87807 49.2523 8.77569 49.2414 8.67474C48.9617 6.00696 50.1896 3.70979 52.5769 2.49054C53.3967 2.07234 54.2403 1.7003 55.0796 1.32032C55.5122 1.1242 55.9715 0.994417 56.4495 1.00018C56.9499 1.00595 57.3782 1.18477 57.7192 1.58133C58.0264 1.93896 58.3624 2.27279 58.7056 2.59653C59.2673 3.12648 59.8549 3.62831 60.2889 4.27939C60.3618 4.38899 60.4829 4.48561 60.604 4.53968C60.9919 4.71345 61.3885 4.86558 61.7836 5.02277C61.9011 5.06963 62.0295 5.09126 62.1412 5.1475C62.4974 5.32704 62.5969 5.67673 62.3994 6.02066C62.3878 6.04085 62.3734 6.05888 62.3612 6.07834C62.2847 6.2038 62.1614 6.32349 62.1448 6.45688C62.1218 6.6393 62.3633 6.62848 62.452 6.74096C62.6013 6.92987 62.7404 7.12743 62.899 7.3423C62.6907 7.69488 62.8507 7.984 63.1117 8.22411C63.6229 8.69421 63.6244 9.49166 62.9358 9.97258C62.6726 10.1564 62.3979 10.3317 62.1095 10.4708C61.4743 10.7765 61.1556 11.2848 61.1051 11.9691C61.0799 12.313 61.0871 12.6598 61.0886 13.0059C61.0922 14.1704 61.1037 15.3341 61.1023 16.4986C61.1015 16.8201 61.1816 17.1078 61.3416 17.3847C62.142 18.7669 63.2437 19.8643 64.5278 20.7944C64.9749 21.1181 65.4241 21.444 65.8437 21.8017C66.3599 22.2415 66.7565 22.7736 66.9324 23.4485C67.1495 24.2791 67.068 25.0881 66.5214 25.7435C65.6656 26.7695 65.2626 27.934 65.1212 29.2426C64.8516 31.733 63.8847 33.9523 62.3503 35.9222C61.5882 36.8999 61.7303 36.7802 61.5998 37.7939C61.431 39.1076 61.2861 40.4242 61.1361 41.7408C61.1181 41.8973 61.134 42.0574 61.134 42.2412C61.4736 42.3169 61.7988 42.3818 62.1203 42.4618C63.5054 42.8072 64.8883 43.1605 66.2741 43.5023C66.5186 43.5628 66.7709 43.5946 67.0218 43.6212C67.3578 43.6566 67.4696 43.7842 67.4271 44.118C67.3787 44.4958 67.1862 44.6646 66.7861 44.7143C65.9028 44.8232 65.0398 44.715 64.1853 44.4908C64.0851 44.4648 63.9849 44.4331 63.8832 44.4223C63.584 44.3899 63.4751 44.4807 63.3901 44.8405C63.6763 44.8686 63.9589 44.9133 64.243 44.922C65.5034 44.9616 66.6981 45.2565 67.8539 45.7612C68.4105 46.0042 68.9989 46.1758 69.5779 46.3655C69.9896 46.5003 70.0768 46.638 69.9398 47.0483C69.8295 47.3785 69.6146 47.6179 69.2549 47.6518C68.2916 47.7426 67.3276 47.8241 66.3628 47.8897C66.1862 47.902 66.0009 47.832 65.8249 47.7823C65.1335 47.5898 64.4363 47.4556 63.7131 47.4809C62.9877 47.5061 62.2617 47.5299 61.5356 47.5357C61.2378 47.5378 60.9342 47.5191 60.6422 47.4636C60.0488 47.3504 59.5823 47.0281 59.2521 46.519C58.9983 46.1275 58.8375 45.6992 58.7517 45.2407C58.6659 44.7806 58.4482 44.3913 58.0588 44.1245C57.526 43.7597 57.2657 43.2355 57.1612 42.6262C57.0523 41.991 56.9758 41.35 56.8843 40.7119C56.8763 40.655 56.8677 40.5987 56.8533 40.4992C56.7148 40.5562 56.5901 40.6023 56.4697 40.6578C55.3514 41.1748 54.2424 41.7127 53.1155 42.2088C50.8803 43.1922 48.5464 43.844 46.1382 44.2435C44.1438 44.5737 42.1394 44.7806 40.1169 44.71C39.0584 44.6725 38 44.5889 36.948 44.4684C34.7604 44.2175 32.5729 43.9976 30.3694 43.9486C27.2697 43.8787 24.1701 43.7957 21.0711 43.697C17.9895 43.5989 14.9511 43.8923 11.9516 44.6098C10.5709 44.94 9.16415 45.1174 7.74806 45.2017C6.47113 45.2774 5.19276 45.3286 3.91511 45.395C3.12919 45.4361 2.40745 45.2616 1.76574 44.79C1.61793 44.6811 1.44849 44.6026 1.29564 44.4995C0.951709 44.2673 0.907722 44.0019 1.16441 43.6854C1.33601 43.4734 1.5242 43.3357 1.84145 43.3617C2.0938 43.3819 2.36779 43.3011 2.61221 43.2117C3.10179 43.0336 3.59569 42.9031 4.11411 42.8353C4.72265 42.7553 5.29082 42.5217 5.84673 42.2643C7.01478 41.7235 7.01406 41.7228 7.86415 40.7552C8.12299 40.461 8.38689 40.1712 8.64718 39.8784C9.0322 39.4451 9.5225 39.2475 10.0921 39.2605C10.3827 39.267 10.6235 39.1898 10.8658 39.0291C11.6293 38.5215 12.3698 38.5438 13.1175 39.0702C13.3057 39.2028 13.4896 39.342 13.6749 39.4783C14.1536 39.8287 14.6547 39.8741 15.207 39.6426C16.0247 39.3002 16.8531 38.9858 17.6787 38.6621C19.381 37.9944 21.1396 37.5445 22.9566 37.3332C24.4484 37.1602 25.9452 37.1111 27.4428 37.2251C28.3267 37.2921 29.2064 37.4089 30.0882 37.4998C30.8157 37.5748 31.5447 37.5445 32.2578 37.4089C33.1612 37.2373 34.0546 37.0095 34.9515 36.8011C36.8824 36.3526 38.8306 35.9986 40.8019 35.7852C41.5005 35.7095 42.1999 35.6424 42.9008 35.5869C43.1813 35.5645 43.3629 35.429 43.5187 35.2069C43.8424 34.7455 44.1518 34.2674 44.5238 33.8471C46.162 31.9926 48.2428 31.1555 50.7022 31.2435C51.349 31.2665 51.9885 31.3805 52.5992 31.5932C53.2388 31.8152 53.7428 31.6436 54.1876 31.1677C54.8243 30.4864 55.1791 29.6824 55.2951 28.7617C55.4365 27.6347 55.2706 26.5323 55.0421 25.4349C54.8726 24.6238 54.6621 23.8198 54.5172 23.0043C54.161 20.992 54.4234 19.0582 55.3269 17.2189C55.6484 16.5642 55.9116 15.8922 56.019 15.1654C56.0811 14.7313 56.0681 14.1689 55.9779 13.8805ZM49.8067 31.7287C49.762 31.7251 49.7498 31.7215 49.7389 31.7237C49.5133 31.7676 49.2883 31.8159 49.0619 31.8563C47.5542 32.1238 46.2485 32.7749 45.1806 33.8846C44.6903 34.3936 44.2729 34.9574 43.9225 35.5696C43.7357 35.8962 43.4761 36.0649 43.0911 36.0952C42.161 36.1688 41.2309 36.2452 40.3058 36.3649C37.8486 36.6828 35.4223 37.1659 33.0343 37.83C32.1453 38.0773 31.2491 38.1487 30.3326 38.0225C29.683 37.9331 29.0297 37.8596 28.3758 37.8076C26.8688 37.6872 25.3612 37.6728 23.8528 37.7954C22.622 37.8956 21.4085 38.0946 20.2095 38.3881C19.8951 38.4652 19.7163 38.6383 19.6291 38.9505C19.4135 39.7256 19.3176 40.5144 19.412 41.3104C19.474 41.8324 19.6255 42.3443 19.7423 42.8598C19.7927 43.0826 19.9449 43.1843 20.1713 43.18C20.229 43.1785 20.2866 43.1821 20.3443 43.1836C24.0648 43.2802 27.7853 43.3588 31.505 43.4843C32.792 43.5275 34.0769 43.6775 35.3603 43.8001C36.1506 43.8758 36.9358 44.0113 37.7267 44.0841C39.1161 44.2118 40.5091 44.2363 41.905 44.1692C43.7263 44.082 45.5296 43.8664 47.317 43.5059C49.7346 43.0185 52.0376 42.1994 54.2482 41.1114C54.2965 41.0876 54.3391 41.0522 54.396 41.014C54.3174 40.908 54.2475 40.8179 54.1812 40.7249C53.5056 39.7782 52.8004 38.851 52.1609 37.8805C51.1918 36.4089 50.4592 34.8241 50.0677 33.0958C49.9661 32.6487 49.8947 32.1952 49.8067 31.7287ZM56.9398 20.3164C57.0371 21.1405 57.1208 21.9286 57.2253 22.7138C57.4149 24.1399 57.5945 25.5683 57.8202 26.9894C58.1453 29.0407 58.3934 31.0942 58.3407 33.178C58.278 35.6439 58.3198 38.1076 58.5282 40.5684C58.6724 42.2729 58.9752 43.9464 59.3862 45.6019C59.6126 46.5147 60.3286 47.0382 61.2652 47.0158C62.0713 46.9963 62.8781 46.9726 63.6835 46.9379C63.8883 46.9293 64.0967 46.8947 64.2921 46.8363C64.4572 46.7873 64.5999 46.7894 64.76 46.8471C65.2041 47.0072 65.6519 47.1557 66.0997 47.3035C66.1624 47.3244 66.233 47.3186 66.3008 47.3251C66.3087 47.2992 66.316 47.2725 66.3239 47.2465C65.8019 46.9992 65.2806 46.7512 64.7427 46.496C64.7982 46.3193 64.8444 46.1715 64.897 46.0042C65.039 46.0626 65.1443 46.103 65.2474 46.1492C65.7932 46.395 66.3325 46.6553 66.8848 46.8846C67.4537 47.1211 68.05 47.2415 68.6708 47.2191C68.9189 47.2098 69.1467 47.1514 69.4293 46.9935C68.5331 46.6229 67.7097 46.2681 66.8748 45.9451C66.5121 45.8052 66.1292 45.6978 65.7456 45.6336C64.9056 45.4923 64.0592 45.3914 63.2163 45.2659C62.5558 45.1678 61.8975 45.0582 61.2385 44.9508C60.8816 44.8924 60.7129 44.6775 60.6696 44.3178C60.5045 42.9471 60.5572 41.5786 60.7172 40.2144C60.8852 38.7853 61.1044 37.3621 61.2703 35.9323C61.4246 34.602 61.4181 33.2652 61.3553 31.9277C61.3092 30.9385 61.2414 29.9471 61.2638 28.9585C61.3049 27.1848 61.4022 25.4126 61.4837 23.6403C61.5637 21.8968 61.4959 20.1664 61.1707 18.4446C60.8391 16.6889 58.6299 15.6629 57.0638 16.9052C55.8309 17.8829 55.0601 19.1087 54.9123 20.6963C54.7818 22.0951 55.1726 23.3144 56.151 24.3339C56.3565 24.548 56.5944 24.7196 56.9153 24.9143C56.7458 23.362 56.5843 21.8817 56.4192 20.3733C56.593 20.3539 56.7386 20.338 56.9398 20.3164ZM56.9117 10.5076C56.766 10.4549 56.5908 10.4016 56.4235 10.3295C56.0746 10.1795 55.7941 9.94807 55.621 9.60342C55.3701 9.10303 55.5259 8.46276 55.9808 8.11667C56.4235 7.77996 57.0847 7.78356 57.495 8.1484C57.5988 7.96814 57.699 7.79438 57.8079 7.60403C57.6435 7.55716 57.5123 7.51967 57.3558 7.47496C57.3356 7.2738 57.3212 7.06831 57.2938 6.86498C57.2037 6.19227 57.1424 5.51378 57.0068 4.84972C56.8057 3.86408 56.3478 3.00823 55.5338 2.38166C55.3471 2.23746 55.1856 2.09902 55.2144 1.79547C54.0737 2.34057 52.9158 2.75299 51.9301 3.48915C50.7787 4.35005 50.0281 5.47845 49.7901 6.91689C49.6762 7.60403 49.6928 8.2926 49.7815 8.99127C50.062 9.1088 50.2343 9.33232 50.3648 9.59765C50.4412 9.75267 50.527 9.90264 50.6085 10.0548C50.6792 10.1867 50.7779 10.3122 50.8118 10.4528C50.8472 10.5992 50.8197 10.7607 50.8197 10.9092C50.9697 11.0253 51.1219 11.1464 51.2769 11.2625C51.6922 11.5718 52.0945 11.9006 52.5279 12.1832C53.4573 12.7903 54.4761 13.1696 55.5828 13.2936C55.8316 13.3217 56.0854 13.3109 56.2469 13.4941C56.4113 13.4025 56.5454 13.3174 56.6889 13.2504C57.0955 13.0607 57.5108 12.8906 57.9117 12.6908C58.2189 12.538 58.4539 12.2972 58.5686 11.9655C58.6255 11.7997 58.6962 11.6266 58.6147 11.4182C58.459 11.4911 58.3285 11.5603 58.1922 11.6144C57.6637 11.8249 57.2203 11.6482 57.0141 11.1219C56.947 10.9481 56.9492 10.7462 56.9117 10.5076ZM1.56025 43.9709C2.24017 44.5485 2.94605 44.9133 3.81633 44.8665C4.21866 44.8448 4.62099 44.798 5.02332 44.7936C7.63558 44.7655 10.2125 44.4454 12.7693 43.9212C14.7095 43.5232 16.6541 43.141 18.6506 43.1641C18.8439 43.1663 19.0378 43.1432 19.2678 43.1295C19.0205 42.3825 18.8835 41.6507 18.8576 40.9008C18.8316 40.1459 18.9744 39.4076 19.1287 38.6347C18.9527 38.7003 18.8345 38.7435 18.7163 38.7882C17.4783 39.2562 16.246 39.7385 15.0015 40.1863C14.2877 40.443 13.5624 40.6766 12.8277 40.8626C12.1009 41.0465 11.457 40.8641 10.9854 40.236C10.9645 40.2086 10.9436 40.1813 10.9206 40.1553C10.555 39.7414 9.98683 39.6282 9.50879 39.8964C9.34079 39.9909 9.18866 40.1236 9.05311 40.262C8.58589 40.7393 8.13453 41.2332 7.66514 41.7077C7.47191 41.903 7.26858 42.1057 7.03208 42.2376C6.05294 42.7834 5.03269 43.2312 3.91583 43.4165C3.65554 43.4597 3.39164 43.49 3.13568 43.5528C2.82348 43.6285 2.51921 43.7366 2.20917 43.8217C2.01233 43.8765 1.81116 43.9147 1.56025 43.9709ZM50.3648 31.7222C50.3735 31.8354 50.3734 31.9046 50.3842 31.971C50.5724 33.1354 50.8983 34.2581 51.3778 35.3374C52.2027 37.1948 53.3505 38.8438 54.6268 40.4113C54.8921 40.7372 54.9707 40.7545 55.3607 40.5591C56.0601 40.2086 56.7502 39.8388 57.4582 39.5071C57.8202 39.3377 57.9233 39.0947 57.9023 38.7118C57.849 37.7233 57.8158 36.7333 57.8029 35.7434C57.787 34.5227 57.7935 33.302 57.8036 32.082C57.8057 31.7705 57.6947 31.5679 57.4171 31.4158C56.872 31.118 56.3428 30.7921 55.8056 30.4792C55.6895 30.4121 55.5691 30.3537 55.4393 30.2852C55.368 30.4064 55.3103 30.5037 55.2533 30.6025C54.962 31.1065 54.5849 31.534 54.1458 31.9162C53.763 32.2493 53.365 32.3372 52.8711 32.1844C52.0693 31.9349 51.238 31.8196 50.3648 31.7222ZM48.4526 9.88606C47.9263 10.0195 47.4201 10.1593 46.945 10.3994C46.1468 10.8032 45.5887 11.4168 45.2917 12.2626C45.0206 13.0326 44.9953 13.8164 45.1561 14.6131C45.3328 15.487 45.6695 16.3082 45.981 17.1381C46.4136 18.2917 46.8714 19.4353 47.2882 20.5947C47.6069 21.4808 47.7756 22.3958 47.6134 23.3439C47.6026 23.4088 47.6119 23.4766 47.6119 23.5552C47.6754 23.548 47.723 23.5516 47.7641 23.5372C48.3647 23.3274 48.9422 23.0714 49.452 22.6828C50.2833 22.0497 50.819 21.2313 51.0173 20.1988C51.1781 19.3668 51.0808 18.547 50.8983 17.7322C50.7289 16.9752 50.4427 16.2606 50.093 15.5692C49.687 14.7652 49.3373 13.9389 49.1672 13.0485C49.0626 12.5012 48.9718 11.9518 49.346 11.4478C48.9011 11.008 48.643 10.4744 48.4526 9.88606ZM58.9291 10.6338C59.3776 11.4637 59.1403 12.4868 58.3725 12.9893C58.048 13.202 57.6832 13.3556 57.3313 13.5251C57.0955 13.6383 56.8504 13.7327 56.6189 13.8315C56.5944 14.2194 56.5872 14.577 56.5454 14.9303C56.5021 15.2952 56.4408 15.6593 56.3565 16.0162C56.2779 16.3486 56.1596 16.6716 56.0457 17.0422C56.4531 16.7502 56.7999 16.482 57.1655 16.244C57.7444 15.8669 58.3833 15.7581 59.0517 15.9347C59.4735 16.0465 59.883 16.2015 60.2983 16.337C60.3906 16.3673 60.4836 16.3962 60.5701 16.4236C60.5701 15.412 60.5716 14.4335 60.5694 13.4551C60.5687 13.029 60.5485 12.6022 60.5586 12.176C60.5817 11.1551 61.0042 10.3843 61.9696 9.95384C62.1679 9.86515 62.3554 9.74618 62.5349 9.62217C63.0007 9.29987 63.0368 9.00281 62.7044 8.55073C62.5695 8.36759 62.4571 8.16426 62.3604 7.95805C62.1852 7.58456 62.0547 7.19521 61.7541 6.88373C61.5003 6.62127 61.5147 6.29753 61.7238 5.99759C61.7872 5.90674 61.8528 5.81805 61.9336 5.7063C61.8103 5.65078 61.7216 5.59742 61.6257 5.57002C60.6473 5.29099 59.8571 4.75166 59.2882 3.89941C59.2507 3.84317 59.1843 3.80568 59.1101 3.74007C59.2088 5.30613 59.1065 6.09997 58.5253 7.27019C58.1475 8.03087 57.6774 8.74613 57.247 9.48085C57.234 9.5032 57.1957 9.51113 57.128 9.54862C57.1503 9.15495 57.1705 8.79516 57.1914 8.41662C56.9881 8.40292 56.8288 8.38057 56.6694 8.38417C56.3731 8.39138 56.177 8.55289 56.0587 8.81751C55.9433 9.07707 55.9844 9.32294 56.1712 9.52339C56.2937 9.65461 56.4459 9.77214 56.606 9.85289C56.9405 10.0202 57.3039 10.0836 57.6796 10.062C58.1446 10.0353 58.3141 9.86731 58.3501 9.40081C58.3609 9.25733 58.3667 9.11313 58.3782 8.91845C58.4936 9.01435 58.5693 9.06554 58.6299 9.12971C59.0805 9.61352 58.9334 10.2264 58.3097 10.4499C58.1699 10.4997 58.0184 10.5177 57.8728 10.5508C57.7034 10.5898 57.5361 10.6338 57.4438 10.8018C57.5858 11.2127 57.7372 11.2863 58.1057 11.0981C58.3818 10.9589 58.6464 10.7953 58.9291 10.6338ZM63.4131 20.5846C63.3735 20.6437 63.3619 20.6531 63.3619 20.6625C63.3627 20.7656 63.3648 20.8687 63.367 20.9718C63.3915 22.062 63.1514 23.075 62.4909 23.9647C62.0857 24.5113 61.9112 25.135 61.8745 25.8048C61.7807 27.4862 61.7548 29.1684 61.8045 30.8512C61.8175 31.2889 61.8478 31.7258 61.8766 32.1628C61.8882 32.3387 61.9156 32.5189 62.1376 32.5564C62.6222 32.6386 63.1074 32.7158 63.5934 32.7951C63.6395 32.6985 63.6713 32.6379 63.6979 32.5752C64.2459 31.2809 64.5754 29.9326 64.6922 28.5331C64.7744 27.5518 65.0974 26.6722 65.7334 25.9115C65.8884 25.7262 66.0348 25.5315 66.1631 25.3282C66.4804 24.8271 66.5669 24.2834 66.4335 23.7037C66.2914 23.0844 65.9706 22.5703 65.4825 22.1766C64.8105 21.6358 64.1154 21.1232 63.4131 20.5846ZM55.4804 24.4471C55.4617 24.4637 55.443 24.4795 55.4242 24.4961C55.43 24.5524 55.4329 24.6093 55.443 24.6641C55.5388 25.184 55.647 25.7017 55.7299 26.2237C55.8936 27.2627 55.9787 28.3031 55.7306 29.3428C55.6672 29.6082 55.758 29.8122 55.9989 29.955C56.5425 30.278 57.0818 30.6082 57.6233 30.9334C57.6601 30.9558 57.707 30.9608 57.7682 30.9803C57.7682 30.8375 57.7834 30.7128 57.7661 30.5924C57.5426 29.0213 57.3162 27.4509 57.0826 25.8819C57.0653 25.7651 57.0133 25.6209 56.9268 25.5517C56.4531 25.1724 55.9643 24.8134 55.4804 24.4471ZM55.5554 1.74067C55.6174 1.79619 55.6484 1.82864 55.6845 1.8546C56.6002 2.51866 57.1568 3.41921 57.4452 4.50147C57.6356 5.21672 57.7178 5.94712 57.7827 6.68112C57.8007 6.88733 57.8259 7.09354 57.8476 7.29976C58.2477 6.6292 58.5289 5.94351 58.6162 5.19004C58.7077 4.39908 58.5715 3.65283 58.1857 2.95632C57.9045 2.44872 57.5195 2.03557 57.0141 1.73058C57.4589 2.34129 57.7805 3.00246 57.9442 3.73935C58.1259 4.55554 58.1699 5.67962 58.0134 5.96154C58.0019 5.92477 57.9896 5.89304 57.9824 5.8606C57.7978 5.04151 57.6255 4.22027 57.4265 3.40479C57.2585 2.7155 56.8612 2.17689 56.2599 1.79619C56.0501 1.66425 55.8287 1.56763 55.5554 1.74067ZM61.9199 19.2478C61.9725 20.6978 62.0259 22.147 62.0785 23.597C62.1715 23.5739 62.2126 23.5393 62.2292 23.4946C62.3763 23.1074 62.5378 22.7246 62.6589 22.3295C62.8284 21.775 62.8947 21.2032 62.8327 20.6228C62.7693 20.0294 62.4888 19.5622 61.9199 19.2478ZM66.6577 44.3105C66.6678 44.2601 66.6779 44.2103 66.688 44.1598C64.8537 43.6883 63.0137 43.2369 61.1772 42.7784C61.0864 43.0711 61.0994 43.1259 61.3157 43.198C61.5226 43.2665 61.7368 43.3126 61.9495 43.3646C63.3454 43.7042 64.7254 44.1187 66.1624 44.2702C66.3268 44.2875 66.4926 44.2976 66.6577 44.3105ZM61.935 35.5581C61.9552 35.5681 61.9754 35.5775 61.9956 35.5876C62.4592 34.8414 62.9228 34.0951 63.4088 33.3121C62.8933 33.2248 62.4253 33.1448 61.935 33.0619C61.935 33.9293 61.935 34.7433 61.935 35.5581ZM58.2657 43.6602C58.2939 43.6537 58.322 43.6472 58.3501 43.6407C58.2016 42.3919 58.0538 41.1424 57.9038 39.8813C57.4337 40.12 57.3746 40.1892 57.4322 40.6232C57.5224 41.3075 57.6392 41.9889 57.7452 42.6709C57.805 43.0617 58.0379 43.3595 58.2657 43.6602ZM11.1123 39.5749C11.2782 39.7602 11.4202 39.9253 11.568 40.0839C11.7425 40.2714 11.9567 40.3593 12.217 40.3355C12.5256 40.3074 12.8356 40.2908 13.1449 40.2656C13.2639 40.2562 13.3821 40.2382 13.5566 40.218C13.1557 39.789 12.7671 39.4559 12.2782 39.2641C11.8312 39.0889 11.4469 39.1992 11.1123 39.5749ZM50.4131 10.7592C50.2264 10.4102 50.0548 10.0742 49.8694 9.74618C49.6856 9.41956 49.4916 9.38207 49.1556 9.57242C48.9999 9.66038 48.9386 9.78007 49.0049 9.9423C49.0922 10.1536 49.1823 10.3663 49.297 10.5631C49.6438 11.1558 49.7945 11.1825 50.4131 10.7592Z" stroke="white" stroke-width="0.8" stroke-miterlimit="10"/>
</svg>
