<svg width="57" height="64" viewBox="0 0 57 64" fill="none" xmlns="http://www.w3.org/2000/svg">
<path d="M50.7141 29.4643C49.3028 30.1876 48.0037 31.05 46.5737 31.5229C44.4615 32.2184 43.5362 33.396 43.9007 35.6494C44.0783 36.7714 44.0316 37.9769 43.8166 39.0989C43.4334 41.0369 41.5175 42.3722 39.3492 42.4C37.293 42.4279 35.2369 42.4464 33.1901 42.3908C32.2461 42.363 31.9003 42.6319 31.9283 43.6148C31.9938 45.9608 31.9377 48.3069 31.9564 50.653C31.9564 51.265 31.8629 51.6637 31.0778 51.6544C24.5636 51.6266 18.0587 51.6266 11.5444 51.6173C11.4697 51.6173 11.3949 51.5802 11.1893 51.5153C11.1706 51.1259 11.1239 50.6808 11.1239 50.2357C11.1145 45.2376 11.0958 40.2302 11.1425 35.2321C11.1519 34.3511 10.8622 33.7299 10.2827 33.09C6.17975 28.639 4.34791 23.3071 5.20775 17.4188C6.31059 9.82424 10.5537 4.3903 17.9091 1.58061C21.3952 0.245305 25.0215 -0.0421558 28.6105 0.801681C34.8911 2.2668 39.4987 5.9667 42.2371 11.8086C43.2652 14.0063 43.8727 16.3338 43.9568 18.7912C43.9755 19.3104 44.3026 19.8576 44.6017 20.3212C46.4242 23.0567 48.2841 25.7644 50.1252 28.4814C50.3122 28.7596 50.4711 29.0563 50.7141 29.4643ZM46.527 28.333C45.2559 26.4413 44.1811 24.7629 43.0315 23.1402C41.9754 21.638 41.1062 20.2099 40.9754 18.2162C40.8445 16.2504 40.1716 14.2103 39.2837 12.4299C35.4518 4.78904 27.2085 1.63624 19.5167 4.02866C11.6566 6.47671 6.69379 14.5998 8.19851 22.6487C8.89013 26.3579 10.6005 29.3623 13.1707 32.0236C13.5632 32.4316 13.881 33.1178 13.881 33.6742C13.937 38.2921 13.937 42.9101 13.8997 47.528C13.8903 48.4089 14.1333 48.7891 15.0586 48.7891C19.3578 48.7613 23.6664 48.7705 27.9656 48.7891C28.8067 48.7891 29.1245 48.4553 29.1152 47.6114C29.0778 45.423 29.1712 43.2253 29.0778 41.0369C29.031 39.8778 29.3582 39.4883 30.5545 39.5254C33.3396 39.6089 36.1341 39.5718 38.9286 39.5347C40.5642 39.5162 41.1436 38.8949 41.1436 37.2628C41.153 35.5288 41.1904 33.7948 41.1249 32.07C41.0969 31.254 41.3773 30.8182 42.1156 30.4936C43.5736 29.826 44.9849 29.0934 46.527 28.333Z" fill="#252525"/>
<path d="M24.6198 30.9104C21.0776 27.6278 17.1429 25.1427 14.3297 21.4335C12.2081 18.6331 12.0399 15.1001 13.8624 12.3089C15.9372 9.1283 20.6383 8.42356 23.4702 10.9458C24.302 11.6876 24.7413 11.6227 25.5544 10.9365C27.5545 9.25812 29.891 9.00776 32.293 9.95359C34.5828 10.8531 35.8538 12.6706 36.3118 15.0259C36.8539 17.7985 35.994 20.2929 34.0687 22.2124C31.0686 25.1983 27.8349 27.9709 24.6198 30.9104ZM15.498 16.3519C15.3765 18.1601 16.3111 19.5325 17.4793 20.7195C18.956 22.2124 20.5449 23.6126 22.1431 24.9757C24.517 27.0065 24.5637 27.0065 26.9283 24.9757C28.5171 23.6033 30.0966 22.2031 31.5733 20.7102C32.7229 19.5511 33.5921 18.188 33.564 16.4446C33.536 14.5437 32.6294 13.1342 30.9658 12.4944C29.5265 11.938 27.8629 12.4387 26.6479 13.8668C26.0871 14.5251 25.5918 15.0815 24.5637 15.0166C23.6852 14.961 23.087 14.7755 22.5356 14.0244C21.4141 12.5037 19.6103 11.9473 18.1616 12.4666C16.4887 13.0693 15.5167 14.4881 15.498 16.3519Z" fill="#252525"/>
</svg>
