<svg width="26" height="23" viewBox="0 0 26 23" fill="none" xmlns="http://www.w3.org/2000/svg">
<path d="M7.46154 7.125H18.5385M7.46154 10.625H13M1 12.3859C1 14.2538 2.38266 15.8797 4.33226 16.1515C5.72118 16.345 7.12583 16.4928 8.54444 16.5931C8.97544 16.6236 9.36944 16.8378 9.60918 17.1787L13 22L16.3908 17.1788C16.6305 16.8379 17.0245 16.6236 17.4555 16.5932C18.8741 16.4929 20.2788 16.3452 21.6677 16.1516C23.6173 15.8799 25 14.254 25 12.386V5.36398C25 3.49604 23.6173 1.87013 21.6677 1.59842C18.8388 1.20418 15.9447 1 13.0004 1C10.0557 1 7.16137 1.20422 4.33227 1.59853C2.38267 1.87026 1 3.49615 1 5.36408V12.3859Z" stroke="#7C8364" stroke-linecap="round" stroke-linejoin="round"/>
</svg>
