<svg width="275" height="31" viewBox="0 0 275 31" fill="none" xmlns="http://www.w3.org/2000/svg">
<path d="M33.0096 0.262832V30.7337H29.8216V6.35378L17.47 26.8562H15.899L3.5473 6.48303V30.7297H0.359375V0.258789H3.09724L16.7491 22.8535L30.2675 0.258789H33.0096V0.262832Z" fill="white"/>
<path d="M40.4651 15.498C40.4651 6.61603 47.4702 0 56.9923 0C66.4227 0 73.4737 6.5716 73.4737 15.498C73.4737 24.4203 66.4227 30.996 56.9923 30.996C47.4744 30.996 40.4651 24.38 40.4651 15.498ZM70.1566 15.498C70.1566 8.22763 64.5433 2.87179 56.9965 2.87179C49.408 2.87179 43.7489 8.22763 43.7489 15.498C43.7489 22.7684 49.408 28.1242 56.9965 28.1242C64.5391 28.1242 70.1566 22.7684 70.1566 15.498Z" fill="white"/>
<path d="M77.9258 27.0335L79.2301 24.5535C81.4763 26.6861 85.4726 28.2533 89.6065 28.2533C95.4906 28.2533 98.0493 25.8581 98.0493 22.8571C98.0493 14.5002 78.6925 19.6339 78.6925 8.36079C78.6925 3.8774 82.2847 0.00390625 90.2816 0.00390625C93.8279 0.00390625 97.5117 1.0056 100.029 2.70202L98.9078 5.27087C96.2116 3.57445 93.0695 2.74644 90.2858 2.74644C84.535 2.74644 81.9763 5.22644 81.9763 8.27596C81.9763 16.6328 101.333 11.584 101.333 22.6834C101.333 27.1668 97.6493 30.9999 89.6107 30.9999C84.8892 30.9958 80.2594 29.3842 77.9258 27.0335Z" fill="white"/>
<path d="M105.543 27.0335L106.847 24.5535C109.093 26.6861 113.09 28.2533 117.224 28.2533C123.108 28.2533 125.666 25.8581 125.666 22.8571C125.666 14.5002 106.31 19.6339 106.31 8.36079C106.31 3.8774 109.902 0.00390625 117.899 0.00390625C121.445 0.00390625 125.129 1.0056 127.646 2.70202L126.525 5.27087C123.829 3.57445 120.687 2.74644 117.903 2.74644C112.152 2.74644 109.593 5.22644 109.593 8.27596C109.593 16.6328 128.95 11.584 128.95 22.6834C128.95 27.1668 125.266 30.9999 117.228 30.9999C112.506 30.9958 107.881 29.3842 105.543 27.0335Z" fill="white"/>
<path d="M158.72 20.1997V30.7336H155.44V20.1997L142.863 0.262695H146.41L157.19 17.3723L167.971 0.262695H171.296L158.72 20.1997Z" fill="white"/>
<path d="M172.332 15.498C172.332 6.61603 179.337 0 188.859 0C198.29 0 205.341 6.5716 205.341 15.498C205.341 24.4203 198.29 30.996 188.859 30.996C179.337 30.996 172.332 24.38 172.332 15.498ZM202.019 15.498C202.019 8.22763 196.406 2.87179 188.859 2.87179C181.271 2.87179 175.612 8.22763 175.612 15.498C175.612 22.7684 181.271 28.1242 188.859 28.1242C196.406 28.1242 202.019 22.7684 202.019 15.498Z" fill="white"/>
<path d="M234.94 15.498H238.128V27.1225C235.165 29.6914 230.944 30.996 226.585 30.996C217.017 30.996 210.012 24.4244 210.012 15.498C210.012 6.5716 217.017 0 226.631 0C231.39 0 235.523 1.47831 238.307 4.39453L236.24 6.44235C233.59 3.91792 230.448 2.87179 226.764 2.87179C218.992 2.87179 213.291 8.22763 213.291 15.498C213.291 22.7239 218.996 28.1242 226.722 28.1242C229.731 28.1242 232.515 27.4699 234.94 25.7734V15.498Z" fill="white"/>
<path d="M267.233 22.5948H249.718L245.947 30.7336H242.488L256.861 0.262695H260.141L274.513 30.7336H271.009L267.233 22.5948ZM266.021 19.9815L258.474 3.61515L250.927 19.9815H266.021Z" fill="white"/>
</svg>
