<svg width="12" height="12" viewBox="0 0 12 12" fill="none" xmlns="http://www.w3.org/2000/svg">
<path fill-rule="evenodd" clip-rule="evenodd" d="M11.5999 6.00039C11.5999 9.09318 9.0927 11.6004 5.9999 11.6004C2.90711 11.6004 0.399902 9.09318 0.399902 6.00039C0.399902 2.9076 2.90711 0.400391 5.9999 0.400391C9.0927 0.400391 11.5999 2.9076 11.5999 6.00039ZM5.9999 2.50039C6.28985 2.50039 6.5249 2.73544 6.5249 3.02539V6.17539C6.5249 6.46534 6.28985 6.70039 5.9999 6.70039C5.70995 6.70039 5.4749 6.46534 5.4749 6.17539V3.02539C5.4749 2.73544 5.70995 2.50039 5.9999 2.50039ZM5.9999 9.50039C6.3865 9.50039 6.6999 9.18699 6.6999 8.80039C6.6999 8.41379 6.3865 8.10039 5.9999 8.10039C5.6133 8.10039 5.2999 8.41379 5.2999 8.80039C5.2999 9.18699 5.6133 9.50039 5.9999 9.50039Z" fill="#F36986"/>
</svg>
