<svg width="20" height="15" viewBox="0 0 20 15" fill="none" xmlns="http://www.w3.org/2000/svg">
<mask id="path-2-inside-1_883_10205" fill="white">
<path fill-rule="evenodd" clip-rule="evenodd" d="M18.3333 1.11111H1.66667C1.35984 1.11111 1.11111 1.35983 1.11111 1.66667V12.7778C1.11111 13.0846 1.35984 13.3333 1.66667 13.3333H18.3333C18.6402 13.3333 18.8889 13.0846 18.8889 12.7778V1.66667C18.8889 1.35983 18.6402 1.11111 18.3333 1.11111ZM1.66667 0C0.746194 0 0 0.746167 0 1.66667V12.7778C0 13.6983 0.746194 14.4444 1.66667 14.4444H18.3333C19.2538 14.4444 20 13.6983 20 12.7778V1.66667C20 0.746167 19.2538 0 18.3333 0H1.66667Z"/>
</mask>
<path fill-rule="evenodd" clip-rule="evenodd" d="M18.3333 1.11111H1.66667C1.35984 1.11111 1.11111 1.35983 1.11111 1.66667V12.7778C1.11111 13.0846 1.35984 13.3333 1.66667 13.3333H18.3333C18.6402 13.3333 18.8889 13.0846 18.8889 12.7778V1.66667C18.8889 1.35983 18.6402 1.11111 18.3333 1.11111ZM1.66667 0C0.746194 0 0 0.746167 0 1.66667V12.7778C0 13.6983 0.746194 14.4444 1.66667 14.4444H18.3333C19.2538 14.4444 20 13.6983 20 12.7778V1.66667C20 0.746167 19.2538 0 18.3333 0H1.66667Z" fill="#B5BF8F"/>
<path d="M18.3333 -1.35807H1.66667V3.58029H18.3333V-1.35807ZM1.66667 -1.35807C-0.00381469 -1.35807 -1.35807 -0.00389 -1.35807 1.66667H3.58029C3.58029 2.72356 2.7235 3.58029 1.66667 3.58029V-1.35807ZM-1.35807 1.66667V12.7778H3.58029V1.66667H-1.35807ZM-1.35807 12.7778C-1.35807 14.4483 -0.00381469 15.8025 1.66667 15.8025V10.8642C2.7235 10.8642 3.58029 11.7209 3.58029 12.7778H-1.35807ZM1.66667 15.8025H18.3333V10.8642H1.66667V15.8025ZM18.3333 15.8025C20.0039 15.8025 21.3581 14.4483 21.3581 12.7778H16.4197C16.4197 11.7209 17.2765 10.8642 18.3333 10.8642V15.8025ZM21.3581 12.7778V1.66667H16.4197V12.7778H21.3581ZM21.3581 1.66667C21.3581 -0.0038579 20.0039 -1.35807 18.3333 -1.35807V3.58029C17.2765 3.58029 16.4197 2.72352 16.4197 1.66667H21.3581ZM1.66667 -2.46918C-0.61747 -2.46918 -2.46918 -0.617551 -2.46918 1.66667H2.46918C2.46918 2.10988 2.10986 2.46918 1.66667 2.46918V-2.46918ZM-2.46918 1.66667V12.7778H2.46918V1.66667H-2.46918ZM-2.46918 12.7778C-2.46918 15.062 -0.61747 16.9136 1.66667 16.9136V11.9753C2.10986 11.9753 2.46918 12.3346 2.46918 12.7778H-2.46918ZM1.66667 16.9136H18.3333V11.9753H1.66667V16.9136ZM18.3333 16.9136C20.6175 16.9136 22.4692 15.062 22.4692 12.7778H17.5308C17.5308 12.3346 17.8901 11.9753 18.3333 11.9753V16.9136ZM22.4692 12.7778V1.66667H17.5308V12.7778H22.4692ZM22.4692 1.66667C22.4692 -0.617525 20.6175 -2.46918 18.3333 -2.46918V2.46918C17.8901 2.46918 17.5308 2.10986 17.5308 1.66667H22.4692ZM18.3333 -2.46918H1.66667V2.46918H18.3333V-2.46918Z" fill="#7C8364" mask="url(#path-2-inside-1_883_10205)"/>
<path d="M1.23459 4.57053H18.7654V5.99024H1.23459V4.57053Z" fill="#B5BF8F" stroke="#7C8364" stroke-width="2.46918"/>
<rect x="0.5" y="0.5" width="19" height="13.4444" stroke="#B5BF8F"/>
</svg>
