<svg width="17" height="18" viewBox="0 0 17 18" fill="none" xmlns="http://www.w3.org/2000/svg">
<path fill-rule="evenodd" clip-rule="evenodd" d="M7.00308 0.979478C7.77461 0.206871 9.02549 0.206875 9.79702 0.979479L16.2107 7.40218C16.396 7.58769 16.5 7.83929 16.5 8.10164V14.0227C16.5 15.7853 14.372 16.668 13.1275 15.4216L11.3635 13.6552L8.20249 16.8206C7.83199 17.1916 7.32949 17.4 6.80552 17.4H2.27566C1.18456 17.4 0.300049 16.5143 0.300049 15.4216V8.51138C0.300049 7.98668 0.508193 7.48347 0.878692 7.11245L7.00308 0.979478ZM12.7604 12.2562L14.5244 14.0227V10.4898L12.7604 12.2562ZM14.1153 8.10164L11.3635 10.8573L5.64824 5.13408L8.40005 2.3784L14.1153 8.10164ZM4.25127 6.533L9.9665 12.2562L6.80552 15.4216H2.27566V8.51138L4.25127 6.533Z" fill="url(#paint0_linear_683_44863)"/>
<defs>
<linearGradient id="paint0_linear_683_44863" x1="8.40005" y1="0.400024" x2="8.40005" y2="17.4" gradientUnits="userSpaceOnUse">
<stop stop-color="#444B2E"/>
<stop offset="1" stop-color="#838C53"/>
</linearGradient>
</defs>
</svg>
