<svg width="19" height="20" viewBox="0 0 19 20" fill="none" xmlns="http://www.w3.org/2000/svg">
<g clip-path="url(#clip0_7_29277)">
<path d="M0.501953 9.27223C0.501953 6.73939 0.501953 4.20655 0.501953 1.67371C0.501953 0.935194 0.909207 0.524906 1.64769 0.524906C5.72023 0.524906 9.79277 0.535847 13.8653 0.513965C14.6038 0.508495 15.0979 0.957076 15.0925 1.76671C15.0708 5.0873 15.0871 8.40242 15.0816 11.723C15.0816 11.8871 15.1196 11.9692 15.2934 12.0239C16.9876 12.5873 18.0139 14.2011 17.8673 16.0502C17.7369 17.6913 16.4066 19.1301 14.7233 19.4036C13.382 19.6169 12.2363 19.2012 11.3078 18.2055C11.1992 18.0907 11.096 18.0469 10.9439 18.0469C7.84338 18.0524 4.73739 18.0524 1.63683 18.0469C1.03953 18.0469 0.626844 17.7296 0.529103 17.2044C0.507383 17.1005 0.512813 16.9856 0.512813 16.8762C0.501953 14.3379 0.501953 11.8051 0.501953 9.27223ZM14.5169 11.8324C14.5169 11.7394 14.5169 11.6683 14.5169 11.5972C14.5169 8.29848 14.5169 4.99977 14.5169 1.70653C14.5169 1.24701 14.3703 1.09931 13.925 1.09931C9.84164 1.09931 5.75281 1.09931 1.66941 1.09931C1.21329 1.09931 1.07211 1.24154 1.07211 1.69559C1.07211 6.7558 1.07211 11.816 1.07211 16.8707C1.07211 17.3248 1.21872 17.467 1.66941 17.467C4.62336 17.467 7.57731 17.467 10.5313 17.467C10.6018 17.467 10.6724 17.467 10.7647 17.467C10.1131 16.083 10.1294 14.7537 10.9657 13.5064C11.8019 12.2646 13.0128 11.7394 14.5169 11.8324ZM17.3134 15.6289C17.3025 13.8292 15.869 12.3959 14.0879 12.4014C12.3069 12.4068 10.8733 13.8565 10.8733 15.6508C10.8788 17.4506 12.334 18.8948 14.1205 18.8839C15.8907 18.8729 17.3242 17.4069 17.3134 15.6289Z" fill="#686D43"/>
<path d="M7.79816 3.92855C6.44607 3.92855 5.08856 3.92855 3.73648 3.92855C3.67132 3.92855 3.60073 3.93402 3.53557 3.91761C3.38896 3.87932 3.29665 3.78632 3.30751 3.62768C3.31294 3.46903 3.41068 3.3815 3.56272 3.35962C3.62245 3.34868 3.68218 3.35415 3.74734 3.35415C6.44607 3.35415 9.15024 3.35415 11.849 3.35415C11.8978 3.35415 11.9413 3.35415 11.9902 3.35415C12.1693 3.35962 12.2671 3.45809 12.2834 3.63315C12.2997 3.78632 12.1748 3.90667 12.0064 3.92855C11.9467 3.93402 11.887 3.92855 11.8218 3.92855C10.4806 3.92855 9.13938 3.92855 7.79816 3.92855Z" fill="#686D43"/>
<path d="M7.78795 6.17682C9.14004 6.17682 10.4975 6.17682 11.8496 6.17682C11.9148 6.17682 12.0017 6.15494 12.0505 6.18776C12.1429 6.25341 12.2569 6.34641 12.2732 6.43941C12.284 6.52146 12.1917 6.64181 12.1157 6.71293C12.0668 6.7567 11.9637 6.75122 11.8822 6.75122C9.16176 6.75122 6.4413 6.75122 3.71542 6.75122C3.65026 6.75122 3.57967 6.75122 3.5145 6.73481C3.36789 6.69105 3.28644 6.58164 3.30816 6.42847C3.32445 6.28076 3.41676 6.1987 3.56338 6.18229C3.62311 6.17682 3.68284 6.18229 3.748 6.18229C5.09465 6.17682 6.4413 6.17682 7.78795 6.17682Z" fill="#686D43"/>
<path d="M7.78252 9.00397C9.1346 9.00397 10.4921 9.00397 11.8442 9.00397C11.9094 9.00397 11.9962 8.98209 12.0451 9.01491C12.1374 9.08056 12.2515 9.16809 12.2677 9.26108C12.284 9.34314 12.1917 9.46896 12.1103 9.53461C12.0451 9.58384 11.9311 9.57837 11.8388 9.57837C9.14003 9.57837 6.43587 9.57837 3.73714 9.57837C3.66112 9.57837 3.5851 9.57837 3.5145 9.56196C3.36789 9.5182 3.28644 9.41426 3.30816 9.25561C3.32445 9.10791 3.41676 9.02585 3.56338 9.00944C3.62311 9.00397 3.68284 9.00944 3.748 9.00944C5.08922 9.00397 6.43587 9.00397 7.78252 9.00397Z" fill="#686D43"/>
<path d="M7.18477 11.8223C8.31965 11.8223 9.45996 11.8223 10.5948 11.8223C10.6709 11.8223 10.7632 11.8004 10.812 11.8333C10.9044 11.8934 11.0238 11.9864 11.0347 12.0794C11.0455 12.167 10.9424 12.2873 10.8663 12.3639C10.8175 12.4077 10.7143 12.3967 10.6329 12.3967C8.33051 12.3967 6.02817 12.3967 3.72583 12.3967C3.64438 12.3967 3.54121 12.4077 3.49234 12.3639C3.41089 12.2928 3.31315 12.1724 3.31858 12.0849C3.32401 11.9974 3.44347 11.8989 3.53578 11.8387C3.58465 11.8004 3.68239 11.8278 3.75298 11.8278C4.89872 11.8223 6.03903 11.8223 7.18477 11.8223Z" fill="#686D43"/>
<path d="M6.37023 14.6496C7.25533 14.6496 8.14586 14.6496 9.03096 14.6496C9.10698 14.6496 9.19929 14.6278 9.24816 14.666C9.34047 14.7317 9.4545 14.8302 9.45993 14.9177C9.46536 15.0052 9.36219 15.1256 9.27531 15.1912C9.22644 15.235 9.11784 15.2186 9.04182 15.2186C7.26619 15.2186 5.496 15.2186 3.72037 15.2186C3.64435 15.2186 3.56833 15.2186 3.49774 15.1967C3.35656 15.1584 3.26425 15.0435 3.30769 14.9067C3.33484 14.8083 3.43801 14.7208 3.53032 14.6606C3.58462 14.6223 3.67693 14.6442 3.74752 14.6442C4.62719 14.6496 5.50143 14.6496 6.37023 14.6496Z" fill="#686D43"/>
<path d="M14.3789 15.3555C14.8785 15.3555 15.3455 15.3555 15.8124 15.3555C16.0514 15.3555 16.1763 15.4594 16.1708 15.6454C16.1654 15.8205 16.0405 15.9299 15.8179 15.9299C15.2694 15.9299 14.721 15.9299 14.1726 15.9299C13.9119 15.9299 13.8088 15.8314 13.8088 15.5743C13.8033 14.8522 13.8033 14.1301 13.8088 13.4025C13.8088 13.1782 13.9174 13.0579 14.0966 13.0579C14.2757 13.0579 14.3735 13.1782 14.3735 13.408C14.3735 13.9769 14.3735 14.5404 14.3735 15.1093C14.3789 15.1804 14.3789 15.257 14.3789 15.3555Z" fill="#686D43"/>
</g>
<defs>
<clipPath id="clip0_7_29277">
<rect width="18.1364" height="19.7485" fill="white" transform="translate(0.115234 0.125732)"/>
</clipPath>
</defs>
</svg>
