<svg width="59" height="38" viewBox="0 0 59 38" fill="none" xmlns="http://www.w3.org/2000/svg">
<path d="M0 7.23411C0.170607 7.02283 0.391393 6.83167 0.49175 6.58015C1.43511 4.37681 3.67307 3.14938 6.02143 3.62225C6.81425 3.79328 7.18558 3.62225 7.5569 2.85762C8.60061 0.714647 10.8888 -0.361869 13.1368 0.110993C15.2944 0.553672 16.9303 2.31433 17.0708 4.6384C17.2213 7.17374 17.1812 9.71915 17.2213 12.2646C17.2514 13.8743 17.3016 13.9347 18.9274 13.9347C26.0026 13.9347 33.0878 13.9045 40.163 13.9648C41.3773 13.9749 41.7787 13.5624 41.7687 12.3953C41.7586 9.76945 41.7586 7.14356 41.9092 4.51766C42.0396 2.31433 43.7256 0.533551 45.8231 0.110993C47.9507 -0.311564 50.1987 0.624099 51.2022 2.55579C51.7141 3.5317 52.1857 3.73292 53.2997 3.59206C56.1499 3.22987 58.7792 5.20181 58.8595 8.27038C59.0401 15.4036 59.0201 22.5367 58.8695 29.6699C58.8093 32.5976 56.2602 34.8714 53.1191 34.4086C52.1857 34.2677 51.7442 34.3985 51.2926 35.2939C50.289 37.3363 47.9306 38.3726 45.7629 37.8897C43.6554 37.4269 42.0196 35.6763 41.8891 33.4427C41.7386 30.8671 41.7386 28.2714 41.7586 25.6959C41.7687 24.4785 41.3773 24.0459 40.0927 24.0559C33.0175 24.1163 25.9323 24.0861 18.8571 24.0861C17.2715 24.0861 17.2213 24.1364 17.2012 25.8065C17.1611 28.3519 17.2012 30.8973 17.0507 33.4327C16.9202 35.7165 15.2242 37.5073 13.0765 37.9198C10.9088 38.3323 8.64075 37.3262 7.65725 35.3342C7.22572 34.4689 6.82429 34.2174 5.86086 34.4086C3.5125 34.8714 1.31468 33.5031 0.461643 31.2495C0.361286 30.9879 0.150536 30.7665 0 30.5351C0 22.7581 0 15.0011 0 7.23411ZM45.1106 18.9852C45.1106 23.5328 45.1005 28.0702 45.1206 32.6177C45.1206 33.8251 45.8632 34.64 46.8668 34.6299C47.7801 34.6299 48.5528 33.8351 48.6331 32.7184C48.6933 31.8028 48.6632 30.8873 48.6632 29.9717C48.6732 28.9153 48.7937 27.9092 50.1284 27.7785C51.403 27.6577 51.7743 28.4928 52.0653 29.5693C52.2159 30.1226 52.7578 30.7565 53.2696 30.9577C53.7312 31.1287 54.5642 30.9175 54.9255 30.5653C55.337 30.1528 55.5979 29.4083 55.6079 28.7946C55.6581 22.2953 55.6481 15.7859 55.628 9.28653C55.628 7.91825 55.0259 7.06307 54.0725 6.9524C52.8381 6.81155 52.4768 7.24417 51.9248 8.80361C51.7241 9.38714 51.0417 10.031 50.4596 10.1819C49.4058 10.4637 48.7535 9.75939 48.6833 8.50178C48.613 7.33471 48.6933 6.16765 48.5829 5.00059C48.4926 4.02468 47.5191 3.15944 46.7564 3.34054C45.8231 3.57194 45.1005 4.10517 45.1206 5.23199C45.1206 5.564 45.1206 5.89601 45.1206 6.22802C45.1106 10.4838 45.1106 14.7395 45.1106 18.9852ZM13.8092 19.1261C13.8092 14.6188 13.8292 10.1216 13.7891 5.6143C13.779 5.03077 13.6285 4.32651 13.2672 3.91401C12.9461 3.56188 12.0629 3.24999 11.7518 3.44115C11.1597 3.8134 10.5174 4.49754 10.3769 5.1515C10.1361 6.26826 10.3167 7.47557 10.2264 8.64263C10.1561 9.53805 9.77479 10.2323 8.69093 10.2524C7.65725 10.2725 7.20565 9.63866 6.97482 8.78348C6.59347 7.30453 6.12179 6.85179 4.95765 6.94234C4.00425 7.01277 3.34189 7.80758 3.33186 9.07525C3.31179 15.7054 3.31179 22.3355 3.33186 28.9656C3.33186 30.2132 4.03436 30.9979 5.00782 31.0583C6.26229 31.1287 6.75404 30.4043 6.97482 29.2775C7.15547 28.3519 7.66729 27.708 8.76118 27.7583C9.85508 27.8086 10.1561 28.5531 10.2364 29.4284C10.3167 30.3842 10.2565 31.3501 10.2866 32.3059C10.3368 33.7546 11.1196 34.7003 12.1733 34.6299C13.2572 34.5595 13.7991 33.7848 13.8092 32.2656C13.8092 27.8891 13.8092 23.5026 13.8092 19.1261ZM29.6154 17.2045C25.9122 17.2045 22.209 17.2346 18.5059 17.1843C17.5826 17.1743 17.2012 17.5063 17.2113 18.3916C17.2213 18.7639 17.2213 19.1462 17.2113 19.5185C17.1812 20.434 17.5324 20.8264 18.536 20.8163C25.8119 20.7761 33.0978 20.766 40.3737 20.8163C41.8188 20.8264 41.7486 19.9813 41.7386 19.0355C41.7386 18.0697 41.8791 17.124 40.3336 17.1642C36.7709 17.2648 33.1881 17.2045 29.6154 17.2045Z" fill="#252525"/>
</svg>
