<svg width="17" height="18" viewBox="0 0 17 18" fill="none" xmlns="http://www.w3.org/2000/svg">
<g clip-path="url(#clip0_7_29260)">
<path d="M1.1855 15.97C1.26818 15.97 1.34112 15.97 1.40921 15.97C3.78732 15.97 6.16544 15.97 8.54356 15.97C8.60191 15.97 8.66514 15.97 8.72349 15.97C8.93748 15.9853 9.07851 16.1333 9.08337 16.3426C9.08824 16.5518 8.9472 16.71 8.73322 16.7305C8.70404 16.7356 8.67486 16.7305 8.64082 16.7305C5.96118 16.7305 3.27669 16.7305 0.597051 16.7305C0.553282 16.7305 0.514377 16.7305 0.451155 16.7305C0.446292 16.659 0.441428 16.5978 0.441428 16.5365C0.397659 13.27 1.7934 10.8865 4.46818 9.28904C4.8621 9.05426 5.28033 8.86542 5.69857 8.67147C5.77152 8.63574 5.8931 8.64595 5.96605 8.68168C7.42988 9.45236 8.88884 9.45746 10.3478 8.67657C10.4499 8.62043 10.5326 8.62043 10.6347 8.66126C11.2864 8.93177 11.9235 9.22269 12.4779 9.68203C12.6433 9.81984 12.6919 9.99337 12.6189 10.1669C12.5508 10.3251 12.3904 10.417 12.2299 10.3813C12.1569 10.3659 12.084 10.3251 12.0208 10.2741C11.6122 9.95254 11.16 9.70245 10.6834 9.5136C10.5958 9.48298 10.4791 9.47788 10.3964 9.5136C8.89857 10.1873 7.41042 10.1924 5.91742 9.5034C5.85906 9.47788 5.77152 9.46767 5.71316 9.49319C4.2931 10.1567 3.06757 11.0703 2.20678 12.4585C1.5697 13.4844 1.25845 14.6226 1.1855 15.8373C1.18064 15.8781 1.1855 15.9138 1.1855 15.97Z" fill="#686D43"/>
<path d="M8.17768 0.531494C10.1862 0.531494 11.8154 2.25149 11.8105 4.3696C11.8056 6.48259 10.1667 8.18218 8.1485 8.17708C6.14972 8.17197 4.52054 6.45707 4.5254 4.34918C4.53026 2.23618 6.15944 0.531494 8.17768 0.531494ZM8.17768 1.29707C6.56309 1.29707 5.25488 2.6547 5.25488 4.34408C5.25002 6.03856 6.55336 7.4115 8.15823 7.4166C9.77282 7.4217 11.081 6.05897 11.081 4.3696C11.0859 2.67001 9.78741 1.29707 8.17768 1.29707Z" fill="#686D43"/>
<path d="M15.4336 14.3996C15.4336 16.2361 14.0193 17.6996 12.305 17.6996C10.5908 17.6996 9.17646 16.2361 9.17646 14.3996C9.17646 12.5631 10.5908 11.0996 12.305 11.0996C14.0193 11.0996 15.4336 12.5631 15.4336 14.3996Z" stroke="#686D43" stroke-width="0.6"/>
<path d="M10.7827 14.3997L11.7989 15.5997L13.8303 13.1997" stroke="#686D43" stroke-width="0.6" stroke-linecap="round" stroke-linejoin="round"/>
</g>
<defs>
<clipPath id="clip0_7_29260">
<rect width="16" height="18" fill="white" transform="translate(0.115234)"/>
</clipPath>
</defs>
</svg>
