<svg width="22" height="22" viewBox="0 0 22 22" fill="none" xmlns="http://www.w3.org/2000/svg">
<path d="M12.8327 3.66797C12.3465 3.66797 11.8801 3.86112 11.5363 4.20494C11.1925 4.54876 10.9993 5.01507 10.9993 5.5013C10.9993 5.98753 11.1925 6.45385 11.5363 6.79766C11.8801 7.14148 12.3465 7.33464 12.8327 7.33464C13.3189 7.33464 13.7852 7.14148 14.129 6.79766C14.4729 6.45385 14.666 5.98753 14.666 5.5013C14.666 5.01507 14.4729 4.54876 14.129 4.20494C13.7852 3.86112 13.3189 3.66797 12.8327 3.66797Z" stroke="white" stroke-linecap="round" stroke-linejoin="round"/>
<path d="M18.334 5.5L14.6673 5.5" stroke="white" stroke-linecap="round" stroke-linejoin="round"/>
<path d="M11 5.5L3.66667 5.5" stroke="white" stroke-linecap="round" stroke-linejoin="round"/>
<path d="M7.33268 9.16797C6.84645 9.16797 6.38014 9.36112 6.03632 9.70494C5.6925 10.0488 5.49935 10.5151 5.49935 11.0013C5.49935 11.4875 5.6925 11.9538 6.03632 12.2977C6.38014 12.6415 6.84645 12.8346 7.33268 12.8346C7.81891 12.8346 8.28523 12.6415 8.62904 12.2977C8.97286 11.9538 9.16602 11.4875 9.16602 11.0013C9.16602 10.5151 8.97286 10.0488 8.62904 9.70494C8.28523 9.36112 7.81891 9.16797 7.33268 9.16797Z" stroke="white" stroke-linecap="round" stroke-linejoin="round"/>
<path d="M18.334 11L9.16732 11" stroke="white" stroke-linecap="round" stroke-linejoin="round"/>
<path d="M5.5 11L3.66667 11" stroke="white" stroke-linecap="round" stroke-linejoin="round"/>
<path d="M15.5827 14.668C15.0965 14.668 14.6301 14.8611 14.2863 15.2049C13.9425 15.5488 13.7493 16.0151 13.7493 16.5013C13.7493 16.9875 13.9425 17.4538 14.2863 17.7977C14.6301 18.1415 15.0965 18.3346 15.5827 18.3346C16.0689 18.3346 16.5352 18.1415 16.879 17.7977C17.2229 17.4538 17.416 16.9875 17.416 16.5013C17.416 16.0151 17.2229 15.5488 16.879 15.2049C16.5352 14.8611 16.0689 14.668 15.5827 14.668Z" stroke="white" stroke-linecap="round" stroke-linejoin="round"/>
<path d="M18.334 16.5L17.4173 16.5" stroke="white" stroke-linecap="round" stroke-linejoin="round"/>
<path d="M13.75 16.5L3.66667 16.5" stroke="white" stroke-linecap="round" stroke-linejoin="round"/>
</svg>
