<svg width="24" height="24" viewBox="0 0 24 24" fill="none" xmlns="http://www.w3.org/2000/svg">
<path fill-rule="evenodd" clip-rule="evenodd" d="M17.0463 14.2523C16.157 14.2528 15.3155 14.6445 14.7565 15.3182L9.79826 12.9035C9.9296 12.4117 9.92087 11.8944 9.773 11.4071L14.8239 8.74641C15.8073 9.85506 17.4902 10.0641 18.7279 9.23145C19.9655 8.39876 20.3605 6.79169 19.644 5.50341C18.9276 4.21514 17.3299 3.65938 15.9377 4.21417C14.5455 4.76896 13.8059 6.25615 14.222 7.6641L9.17111 10.3248C8.3591 9.41389 7.04892 9.09486 5.89236 9.5264C4.73579 9.95794 3.97977 11.0479 4.00041 12.2541C4.02105 13.4603 4.81394 14.5251 5.98463 14.9188C7.15532 15.3126 8.45385 14.9512 9.23424 14.0145L14.1925 16.4292C13.8851 17.6178 14.3867 18.8654 15.4411 19.5346C16.4955 20.2038 17.8698 20.1468 18.862 19.3928C19.8542 18.6388 20.2452 17.3542 19.8352 16.1953C19.4252 15.0364 18.3047 14.2591 17.0463 14.2605V14.2523ZM17.0453 5.23438C17.9752 5.23438 18.7289 5.96857 18.7289 6.87424C18.7289 7.77992 17.9752 8.51411 17.0453 8.51411C16.1155 8.51411 15.3617 7.77992 15.3617 6.87424C15.3617 5.96857 16.1155 5.23438 17.0453 5.23438ZM6.94491 13.8422C6.01507 13.8422 5.26128 13.108 5.26128 12.2024C5.26128 11.2967 6.01507 10.5625 6.94491 10.5625C7.87475 10.5625 8.62854 11.2967 8.62854 12.2024C8.62854 13.108 7.87475 13.8422 6.94491 13.8422ZM17.0453 18.7641C16.1155 18.7641 15.3617 18.0299 15.3617 17.1242C15.3617 16.2186 16.1155 15.4844 17.0453 15.4844C17.9752 15.4844 18.7289 16.2186 18.7289 17.1242C18.7289 18.0299 17.9752 18.7641 17.0453 18.7641Z" fill="white"/>
</svg>
