<svg width="73" height="53" viewBox="0 0 73 53" fill="none" xmlns="http://www.w3.org/2000/svg">
<path d="M37.5855 51.4396C26.2284 52.1811 3.21142 46.3973 2 17.3302C9.82314 16.0943 25.621 17.0336 26.2275 30.6773M37.5855 51.4396C33.0727 47.2725 27.6377 39.6992 26.2275 30.6773M37.5855 51.4396C49.4473 51.4396 72.7166 44.6177 70.8995 17.3302C63.7363 16.5887 49.2875 18.22 48.7977 30.6773M37.5855 51.4396C44.8797 44.506 48.0833 37.3678 48.7977 30.6773M26.2275 30.6773C24.8773 22.0399 27.2163 12.0748 37.5855 2.5C43.1271 7.76762 50.1002 18.4782 48.7977 30.6773" stroke="white" stroke-width="3"/>
</svg>
