<svg width="60" height="45" viewBox="0 0 60 45" fill="none" xmlns="http://www.w3.org/2000/svg">
<path d="M59.7436 13.9979C59.5832 12.9391 58.7491 12.105 57.6903 11.9446C56.1182 11.72 48.4182 11.0141 40.8145 15.2491C39.5632 10.9179 36.9324 5.49581 31.3178 1.2929C30.4516 0.651229 29.2645 0.651229 28.4303 1.2929C27.0507 2.35165 21.2436 7.09998 18.8695 15.2491C11.362 11.1746 3.82239 11.8804 2.31447 12.105C1.25572 12.2654 0.421553 13.0996 0.261136 14.1583C-1.50345 26.6066 6.19655 35.0446 7.73655 36.6166C14.3457 43.2258 22.3024 44.3166 26.8582 44.3166C28.4624 44.3166 29.6174 44.1883 30.1949 44.0921C30.2591 44.0921 30.2911 44.06 30.3553 44.0279C30.4195 44.0279 30.5157 44.0279 30.5799 43.9958C31.2216 44.06 32.0557 44.1241 33.0824 44.1241C37.6382 44.1241 45.5949 43.0333 52.2041 36.4241C53.7761 34.8521 61.4761 26.4462 59.6795 13.9658L59.7436 13.9979ZM29.9382 6.39415C36.9003 12.6825 37.1249 21.4733 37.1249 22.5C37.1249 30.7133 32.3766 36.2637 29.8741 38.6058C22.912 32.3175 22.6874 23.5266 22.6874 22.5C22.6874 14.2866 27.4357 8.73623 29.9382 6.39415ZM4.88114 16.7891C7.67239 16.6929 12.9982 17.0779 17.9711 20.2862C17.907 21.0241 17.8749 21.7621 17.8749 22.5321C17.8749 24.3608 18.2278 32.3496 23.9386 39.3437C20.217 38.8625 15.3403 37.4187 11.2016 33.2479C10.4636 32.51 4.39989 26.1575 4.88114 16.7571V16.7891ZM48.8674 33.0875C44.6324 37.3225 39.6595 38.7662 35.9057 39.1833C38.7932 35.59 41.9374 30.0075 41.9374 22.5321C41.9374 22.115 41.9374 21.3129 41.8091 20.2862C46.8782 16.8854 52.2682 16.5004 55.1557 16.5966C55.637 25.9971 49.5732 32.3496 48.8353 33.0875H48.8674Z" fill="#252525"/>
</svg>
