<svg width="39" height="39" viewBox="0 0 39 39" fill="none" xmlns="http://www.w3.org/2000/svg">
<path d="M39 19.5C39 30.2696 30.2696 39 19.5 39C8.73045 39 0 30.2696 0 19.5C0 8.73045 8.73045 0 19.5 0C30.2696 0 39 8.73045 39 19.5ZM2.34 19.5C2.34 28.9772 10.0228 36.66 19.5 36.66C28.9772 36.66 36.66 28.9772 36.66 19.5C36.66 10.0228 28.9772 2.34 19.5 2.34C10.0228 2.34 2.34 10.0228 2.34 19.5Z" fill="#E5E5E5"/>
<path d="M6.60767 6.60768C6.11269 6.11269 5.30668 6.11009 4.84488 6.63618C2.81366 8.95023 1.35513 11.7174 0.596466 14.7139C-0.266115 18.1209 -0.191923 21.6976 0.811195 25.0658C1.81431 28.4341 3.70907 31.4686 6.29506 33.8485C8.56953 35.9417 11.3044 37.46 14.2707 38.2857C14.945 38.4735 15.6183 38.0303 15.7618 37.3452C15.9053 36.66 15.4645 35.9929 14.7919 35.7986C12.2724 35.0708 9.94991 33.7669 8.01171 31.9832C5.76189 29.9127 4.11345 27.2726 3.24074 24.3423C2.36803 21.4119 2.30348 18.3002 3.05393 15.3361C3.70043 12.7826 4.93109 10.4205 6.64194 8.43285C7.0986 7.9023 7.10266 7.10267 6.60767 6.60768Z" fill="#686D43"/>
</svg>
