<svg width="25" height="26" viewBox="0 0 25 26" fill="none" xmlns="http://www.w3.org/2000/svg">
<g clip-path="url(#clip0_7_7744)">
<path d="M23.0727 26C23.0107 24.5279 22.8062 23.0817 22.236 21.7129C21.8456 20.7703 21.325 19.9116 20.6991 19.1175C19.8129 17.9876 18.7593 17.0772 17.5571 16.3477C16.8258 15.9022 16.0387 15.5987 15.2269 15.3727C13.9564 15.0112 12.6612 14.9272 11.3535 15.0693C9.38278 15.2823 7.61655 16.0248 6.06102 17.329C5.11283 18.1232 4.30098 19.0335 3.63167 20.073C2.57812 21.7194 2.05755 23.553 1.96459 25.5287C1.95839 25.6901 1.9336 25.845 1.92121 26C1.28288 26 0.638361 26 3.6601e-05 26C-0.00616072 23.2302 0.774702 20.7186 2.29924 18.4654C3.82379 16.1992 5.8689 14.6238 8.38501 13.6747C8.29206 13.5908 8.23008 13.5197 8.15571 13.4616C7.00301 12.5577 6.19116 11.3956 5.70777 9.98162C5.4041 9.10355 5.23677 8.1932 5.29255 7.26347C5.33593 6.52744 5.4165 5.79786 5.652 5.09411C5.88749 4.39037 6.19736 3.72535 6.61258 3.11199C7.0216 2.49863 7.51119 1.96275 8.08135 1.50435C8.69488 1.01366 9.3518 0.606903 10.0893 0.368016C10.5293 0.225975 10.9755 0.122672 11.4155 0C12.153 0 12.8843 0 13.6218 0C13.6589 0.0129128 13.6961 0.0258257 13.7333 0.0322821C14.2601 0.187236 14.8054 0.290539 15.3074 0.510057C16.5655 1.0524 17.5942 1.92401 18.3937 3.07971C19.2427 4.31289 19.6703 5.69456 19.7137 7.20536C19.7881 9.75565 18.8213 11.8023 16.9311 13.3971C16.832 13.481 16.7328 13.5649 16.6151 13.6618C16.6956 13.6941 16.7452 13.7134 16.7948 13.7328C17.6128 14.0492 18.4061 14.4366 19.1436 14.9272C20.4016 15.7666 21.5047 16.7867 22.4158 18.0199C23.5127 19.4984 24.275 21.1448 24.6778 22.9655C24.7955 23.5143 24.8947 24.0631 25 24.6183C25 25.0767 25 25.5351 25 25.9935C24.3555 26 23.7172 26 23.0727 26ZM17.7616 7.56047C17.8483 4.77775 15.8032 2.13707 12.7231 1.96921C9.96533 1.82071 7.46161 4.02235 7.2633 7.0956C7.07738 9.88478 9.06672 12.8031 12.3947 12.9128C14.9914 13.0097 17.6748 10.9049 17.7616 7.56047Z" fill="white"/>
</g>
<defs>
<clipPath id="clip0_7_7744">
<rect width="25" height="26" fill="white"/>
</clipPath>
</defs>
</svg>
