<svg width="28" height="29" viewBox="0 0 28 29" fill="none" xmlns="http://www.w3.org/2000/svg">
<path d="M1.03112 28H1.0338H1.03801H1.04222H1.04643H1.05064H1.05485H1.05906H1.06327H1.06748H1.07169H1.0759H1.08011H1.08432H1.08852H1.09273H1.09694H1.10115H1.10536H1.10957H1.11378H1.11799H1.1222H1.12641H1.13062H1.13483H1.13904H1.14325H1.14745H1.15166H1.15587H1.16008H1.16429H1.1685H1.17271H1.17692H1.18113H1.18534H1.18955H1.19376H1.19796H1.20217H1.20638H1.21059H1.2148H1.21901H1.22322H1.22743C1.39119 25.8029 2.01739 23.7297 3.22618 21.8485L3.2277 21.8462C4.03399 20.5991 5.0112 19.5087 6.14742 18.5609C8.04215 16.9789 10.2064 16.0725 12.6089 15.8138C14.1865 15.6432 15.7663 15.7425 17.324 16.1836C18.2922 16.4522 19.2634 16.8216 20.1811 17.3781C21.6236 18.2498 22.8961 19.3432 23.9676 20.7033C23.9679 20.7038 23.9683 20.7042 23.9686 20.7046L23.183 21.3233C23.884 22.2091 24.4671 23.1669 24.9044 24.2183L1.03112 28ZM1.03112 28C1.19374 25.5077 1.99274 23.2327 3.40232 21.1579L3.4038 21.1557C4.9907 18.8066 7.11139 17.1772 9.74288 16.1887L11.2841 15.6097L10.0598 14.5089C10.0334 14.4852 10.0131 14.4654 9.98078 14.4339C9.97208 14.4254 9.96252 14.4161 9.95173 14.4056C9.90852 14.3636 9.83742 14.295 9.74989 14.2268L1.03112 28ZM26.7807 27.9994C26.6629 26.6063 26.3981 25.1984 25.8274 23.8336L9.74971 14.2266C8.61698 13.342 7.81932 12.2092 7.33853 10.8087L7.33737 10.8053C7.02977 9.91955 6.87307 9.03786 6.92585 8.1617L6.92591 8.16064C6.97297 7.36557 7.05726 6.65781 7.27815 6.00041C7.51804 5.28651 7.82761 4.62977 8.23311 4.03325L8.23313 4.03326L8.23701 4.02747C8.63847 3.42792 9.11721 2.90621 9.67518 2.45929C10.303 1.95938 10.9323 1.57989 11.6068 1.36227C11.9068 1.26584 12.1864 1.19292 12.4927 1.11303C12.6285 1.07761 12.7696 1.04082 12.9201 1H12.9208H12.9257H12.9305H12.9353H12.9402H12.945H12.9498H12.9547H12.9595H12.9643H12.9692H12.974H12.9788H12.9837H12.9885H12.9933H12.9982H13.003H13.0078H13.0127H13.0175H13.0223H13.0272H13.032H13.0368H13.0417H13.0465H13.0513H13.0562H13.061H13.0658H13.0707H13.0755H13.0803H13.0851H13.09H13.0948H13.0996H13.1045H13.1093H13.1141H13.119H13.1238H13.1286H13.1335H13.1383H13.1431H13.1479H13.1528H13.1576H13.1624H13.1673H13.1721H13.1769H13.1817H13.1866H13.1914H13.1962H13.2011H13.2059H13.2107H13.2155H13.2204H13.2252H13.23H13.2349H13.2397H13.2445H13.2493H13.2542H13.259H13.2638H13.2686H13.2735H13.2783H13.2831H13.288H13.2928H13.2976H13.3024H13.3073H13.3121H13.3169H13.3217H13.3266H13.3314H13.3362H13.341H13.3459H13.3507H13.3555H13.3603H13.3652H13.37H13.3748H13.3796H13.3845H13.3893H13.3941H13.3989H13.4038H13.4086H13.4134H13.4182H13.4231H13.4279H13.4327H13.4375H13.4424H13.4472H13.452H13.4568H13.4617H13.4665H13.4713H13.4761H13.4809H13.4858H13.4906H13.4954H13.5002H13.5051H13.5099H13.5147H13.5195H13.5244H13.5292H13.534H13.5388H13.5436H13.5485H13.5533H13.5581H13.5629H13.5678H13.5726H13.5774H13.5822H13.587H13.5919H13.5967H13.6015H13.6063H13.6112H13.616H13.6208H13.6256H13.6304H13.6353H13.6401H13.6449H13.6497H13.6545H13.6594H13.6642H13.669H13.6738H13.6787H13.6835H13.6883H13.6931H13.6979H13.7028H13.7076H13.7124H13.7172H13.722H13.7269H13.7317H13.7365H13.7413H13.7461H13.751H13.7558H13.7606H13.7654H13.7702H13.7751H13.7799H13.7847H13.7895H13.7943H13.7992H13.804H13.8088H13.8136H13.8184H13.8233H13.8281H13.8329H13.8377H13.8425H13.8474H13.8522H13.857H13.8618H13.8666H13.8715H13.8763H13.8811H13.8859H13.8907H13.8956H13.9004H13.9052H13.91H13.9148H13.9197H13.9245H13.9293H13.9341H13.9389H13.9438H13.9486H13.9534H13.9582H13.963H13.9679H13.9727H13.9775H13.9823H13.9871H13.992H13.9968H14.0016H14.0064H14.0112H14.016H14.0209H14.0257H14.0305H14.0353H14.0401H14.045H14.0498H14.0546H14.0594H14.0642H14.0691H14.0739H14.0787H14.0835H14.0883H14.0932H14.098H14.1028H14.1076H14.1124H14.1173H14.1221H14.1269H14.1317H14.1365H14.1414H14.1462H14.151H14.1558H14.1606H14.1655H14.1703H14.1751H14.1799H14.1847H14.1895H14.1944H14.1992H14.204H14.2088H14.2136H14.2185H14.2233H14.2281H14.2329H14.2377H14.2426H14.2474H14.2522H14.257H14.2618H14.2667H14.2715H14.2763H14.2811H14.2859H14.2908H14.2956H14.3004H14.3052H14.3101H14.3149H14.3197H14.3245H14.3293H14.3342H14.339H14.3438H14.3486H14.3534H14.3583H14.3631H14.3679H14.3727H14.3775H14.3824H14.3872H14.392H14.3968H14.4016H14.4065H14.4113H14.4161H14.4209H14.4258H14.4306H14.4354H14.4402H14.445H14.4499H14.4547H14.4595H14.4643H14.4692H14.474H14.4788H14.4836H14.4884H14.4933H14.4981H14.5029H14.5077H14.5126H14.5174H14.5222H14.527H14.5318H14.5367H14.5415H14.5463H14.5511H14.556H14.5608H14.5656H14.5704H14.5753H14.5801H14.5849H14.5897H14.5945H14.5994H14.6042H14.609H14.6138H14.6187H14.6235H14.6283H14.6331H14.638H14.6428H14.6476H14.6524H14.6573H14.6621H14.6669H14.6717H14.6766H14.6814H14.6862H14.691H14.6959H14.7007H14.7055H14.7103H14.7152H14.72H14.7248H14.7296H14.7345H14.7393H14.7441H14.749H14.7538H14.7586H14.7634H14.7683H14.7731H14.7779H14.7827H14.7876H14.7924H14.7972H14.802H14.8069H14.8117H14.8165H14.8214H14.8262H14.831H14.8358H14.8407H14.8455H14.8503H14.8552H14.86H14.8648H14.8696H14.8745H14.8793H14.8841H14.889H14.8938H14.8986H14.9034H14.9083H14.9131H14.9179H14.9228H14.9276H14.9324H14.9373H14.9421H14.9469H14.9518H14.9566H14.9614H14.9662H14.9711H14.9759H14.9807H14.9856H14.9904H14.9952H15.0001H15.0049H15.0097H15.0146H15.0194H15.0242H15.0291H15.0339H15.0387H15.0436H15.0484H15.0532H15.0581H15.0629H15.0677H15.0726H15.0774H15.0822H15.0871H15.0919H15.0967H15.1016H15.1064H15.11C15.119 1.00224 15.1282 1.00444 15.1376 1.0066C15.3736 1.07503 15.5787 1.12804 15.7654 1.17628C16.1317 1.27094 16.4271 1.34726 16.745 1.48575L16.7498 1.48781C17.9743 2.01348 18.9829 2.85866 19.7793 4.00501C20.6131 5.21165 21.0364 6.56243 21.0798 8.06557L21.0798 8.06602C21.1538 10.5944 20.2109 12.5881 18.3196 14.1773L18.3183 14.1783C18.207 14.2721 18.101 14.3615 17.9752 14.4645L16.6638 15.5387L18.2382 16.1669C18.3324 16.2045 18.3911 16.2273 18.4474 16.2492L18.4476 16.2493L18.4508 16.2505C19.3142 16.5831 20.1346 16.9838 20.8874 17.4825C22.2082 18.3601 23.3567 19.4198 24.3025 20.6949L24.3037 20.6965C25.4492 22.2341 26.2421 23.9403 26.6622 25.8291C26.763 26.2969 26.8507 26.7622 26.9419 27.2455C26.9611 27.3472 26.9804 27.4497 27 27.5531V27.5548V27.5578V27.5608V27.5638V27.5668V27.5697V27.5727V27.5757V27.5787V27.5817V27.5847V27.5877V27.5907V27.5937V27.5967V27.5997V27.6027V27.6057V27.6087V27.6117V27.6147V27.6177V27.6207V27.6237V27.6267V27.6297V27.6327V27.6357V27.6387V27.6417V27.6446V27.6476V27.6506V27.6536V27.6566V27.6596V27.6626V27.6656V27.6686V27.6716V27.6746V27.6776V27.6806V27.6836V27.6866V27.6896V27.6926V27.6956V27.6986V27.7016V27.7046V27.7076V27.7106V27.7136V27.7165V27.7195V27.7225V27.7255V27.7285V27.7315V27.7345V27.7375V27.7405V27.7435V27.7465V27.7495V27.7525V27.7555V27.7585V27.7615V27.7645V27.7675V27.7705V27.7735V27.7765V27.7795V27.7825V27.7855V27.7885V27.7914V27.7944V27.7974V27.8004V27.8034V27.8064V27.8094V27.8124V27.8154V27.8184V27.8214V27.8244V27.8274V27.8304V27.8334V27.8364V27.8394V27.8424V27.8454V27.8484V27.8514V27.8544V27.8574V27.8604V27.8633V27.8663V27.8693V27.8723V27.8753V27.8783V27.8813V27.8843V27.8873V27.8903V27.8933V27.8963V27.8993V27.9023V27.9053V27.9083V27.9113V27.9143V27.9173V27.9203V27.9233V27.9263V27.9293V27.9323V27.9352V27.9382V27.9412V27.9442V27.9472V27.9502V27.9532V27.9562V27.9592V27.9622V27.9652V27.9682V27.9712V27.9742V27.9772V27.9802V27.9832V27.9862V27.9892V27.9922V27.9952V27.9982V27.9989C26.9269 27.9991 26.8538 27.9993 26.7807 27.9994ZM14.3041 1.19789L14.3035 1.19786C10.639 1.00135 7.39321 3.90381 7.13706 7.84861C6.89818 11.4258 9.46334 15.257 13.8471 15.4022C17.2936 15.529 20.7791 12.7623 20.8925 8.4615C21.0036 4.87238 18.3504 1.41751 14.3041 1.19789Z" stroke="black" stroke-width="2"/>
</svg>
