<svg width="28" height="28" viewBox="0 0 28 28" fill="none" xmlns="http://www.w3.org/2000/svg">
<path d="M26.8834 26.2683C26.9033 26.4534 26.925 26.6569 26.9583 26.9001C26.9596 26.9106 26.9609 26.921 26.9623 26.9315H26.7734C26.5639 24.1686 25.462 21.5379 23.6197 19.4441C21.5571 17.1 18.7089 15.5907 15.6112 15.2001C13.7679 14.9445 11.8906 15.1043 10.1169 15.668C8.3452 16.231 6.7217 17.1828 5.36501 18.4536C3.03266 20.537 1.56893 23.4214 1.26474 26.5343L1.26 26.5828V26.6315C1.26 26.7182 1.25991 26.8013 1.25929 26.8815H1.03095C1.03535 26.8465 1.03971 26.8116 1.04405 26.777C1.09431 26.3754 1.14136 25.9996 1.2052 25.623C1.6057 23.3812 2.58804 21.284 4.05391 19.5412C5.52067 17.7974 7.42003 16.4698 9.56161 15.6914L9.57659 15.6859L9.59139 15.68L9.79139 15.6L11.5271 14.9057L9.98621 13.8473C9.00033 13.17 8.20442 12.2515 7.67443 11.1792C7.14443 10.107 6.89802 8.91679 6.95871 7.72225L6.95944 7.70794L6.95976 7.69361C6.98134 6.71709 7.21367 5.75676 7.64084 4.87836C8.06793 4.00012 8.6797 3.22452 9.43429 2.60461C10.1689 2.00243 11.0171 1.55422 11.9285 1.28667C12.84 1.01909 13.7961 0.937676 14.7397 1.04729C15.6833 1.1569 16.5953 1.4553 17.4212 1.9247C18.2471 2.39411 18.9701 3.02492 19.5471 3.77958C20.1241 4.53423 20.5433 5.3973 20.7798 6.31737C21.0164 7.23743 21.0653 8.19569 20.9237 9.13506C20.7822 10.0744 20.453 10.9757 19.9558 11.7852C19.4587 12.5947 18.8037 13.2959 18.0299 13.847L16.6024 14.8636L18.2039 15.5753L18.4739 15.6953L18.5051 15.7092L18.5373 15.7209C20.6358 16.4865 22.4986 17.786 23.9417 19.4911C25.3849 21.1962 26.3586 23.248 26.7668 25.4443L26.7684 25.4529L26.7702 25.4615C26.8268 25.7389 26.8528 25.9815 26.8834 26.2683ZM20.91 7.99813C20.9054 6.63246 20.4962 5.29879 19.7341 4.16553C18.972 3.03227 17.8912 2.15023 16.6282 1.63082C15.3651 1.1114 13.9765 0.97789 12.6376 1.24715C11.2988 1.51641 10.0697 2.17636 9.10568 3.14366C8.14164 4.11097 7.48584 5.34225 7.22111 6.68201C6.95637 8.02178 7.09457 9.40995 7.61825 10.6712C8.14194 11.9325 9.02761 13.0103 10.1634 13.7686C11.2993 14.5268 12.6343 14.9315 14 14.9315C14.9094 14.9315 15.8099 14.752 16.6497 14.4033C17.4896 14.0546 18.2524 13.5435 18.8944 12.8994C19.5363 12.2552 20.0448 11.4907 20.3907 10.6497C20.7366 9.80859 20.9131 8.90753 20.91 7.99813Z" stroke="black" stroke-width="2"/>
</svg>
