<svg width="12" height="13" viewBox="0 0 12 13" fill="none" xmlns="http://www.w3.org/2000/svg">
<path fill-rule="evenodd" clip-rule="evenodd" d="M6.00039 12.1004C9.09319 12.1004 11.6004 9.59319 11.6004 6.50039C11.6004 3.4076 9.09319 0.900391 6.00039 0.900391C2.9076 0.900391 0.400391 3.4076 0.400391 6.50039C0.400391 9.59319 2.9076 12.1004 6.00039 12.1004ZM8.69998 5.23418C8.87052 4.99969 8.81867 4.67134 8.58418 4.5008C8.34969 4.33026 8.02135 4.38211 7.8508 4.6166L5.41218 7.96971L4.09662 6.65416C3.8916 6.44913 3.55919 6.44913 3.35416 6.65416C3.14913 6.85919 3.14913 7.1916 3.35416 7.39662L5.10416 9.14662C5.21273 9.25519 5.36339 9.31079 5.51646 9.29878C5.66953 9.28677 5.80967 9.20836 5.89998 9.08418L8.69998 5.23418Z" fill="white"/>
</svg>
