<svg width="17" height="17" viewBox="0 0 17 17" fill="none" xmlns="http://www.w3.org/2000/svg">
<circle cx="8.17584" cy="8.06061" r="7.81061" stroke="#686D43" stroke-width="0.5"/>
<path d="M6.96588 9.36164C8.1854 8.32741 9.39515 7.29814 10.6049 6.27381C10.8049 6.10556 11.0049 5.93236 11.2049 5.76412C11.4586 5.55133 11.7512 5.54144 11.922 5.74432C12.1122 5.967 12.0732 6.31339 11.8195 6.53113C10.9073 7.31298 9.99515 8.08989 9.08296 8.87174C8.51222 9.36164 7.93662 9.84659 7.36588 10.3365C7.02442 10.6284 6.84393 10.6284 6.50247 10.3414C5.80979 9.75257 5.11222 9.1637 4.41466 8.57484C4.35125 8.5204 4.28296 8.46102 4.23418 8.39669C4.06344 8.16906 4.07808 7.8969 4.25857 7.7237C4.4732 7.52082 4.76101 7.50102 4.9854 7.69401C5.43905 8.07504 5.89271 8.46102 6.34149 8.847C6.55125 9.0103 6.75125 9.17855 6.96588 9.36164Z" fill="#686D43"/>
</svg>
