<svg width="40" height="40" viewBox="0 0 40 40" fill="none" xmlns="http://www.w3.org/2000/svg">
<path d="M15.1538 26.667C14.6382 27.8035 13.4502 28.3103 12.3981 28.8607L6.32103 32.0392C3.88075 33.3155 5.09915 36.667 7.71642 36.667C13.5367 36.667 18.1393 33.8443 23.4007 31.667C24.725 31.1188 25.3668 31.2362 26.6667 31.819" stroke="white" stroke-width="2.5" stroke-linecap="round" stroke-linejoin="round"/>
<path d="M15 31.819C16.2999 31.2362 16.9417 31.1188 18.266 31.667C23.5273 33.8443 28.13 36.667 33.9503 36.667C36.5675 36.667 37.7858 33.3155 35.3457 32.0392L29.2685 28.8607C28.2165 28.3103 27.0285 27.8035 26.5128 26.667" stroke="white" stroke-width="2.5" stroke-linecap="round" stroke-linejoin="round"/>
<path d="M16.6667 6.66634C16.6667 8.50729 18.1591 9.99967 20.0001 9.99967C21.8411 9.99967 23.3334 8.50729 23.3334 6.66634C23.3334 4.82539 21.8411 3.33301 20.0001 3.33301C18.1591 3.33301 16.6667 4.82539 16.6667 6.66634Z" stroke="white" stroke-width="2.5"/>
<path d="M20 13.333C14.4771 13.333 10 17.8102 10 23.333C15.5228 23.333 20 18.8558 20 13.333Z" stroke="white" stroke-width="2.5" stroke-linejoin="round"/>
<path d="M20 13.333C25.5228 13.333 30 17.8102 30 23.333C24.4772 23.333 20 18.8558 20 13.333Z" stroke="white" stroke-width="2.5" stroke-linejoin="round"/>
</svg>
