<svg width="35" height="36" viewBox="0 0 35 36" fill="none" xmlns="http://www.w3.org/2000/svg">
<path d="M13.2922 25.1838C13.5774 24.5551 13.299 23.8142 12.6703 23.529C12.0416 23.2438 11.3007 23.5222 11.0155 24.1509L13.2922 25.1838ZM9.39812 26.861L9.97745 27.9686L9.97751 27.9686L9.39812 26.861ZM3.32103 30.0395L3.90036 31.1471L3.90037 31.1471L3.32103 30.0395ZM20.4007 29.6673L20.8786 30.8223L20.8787 30.8223L20.4007 29.6673ZM23.1552 30.9599C23.7852 31.2424 24.5248 30.9607 24.8073 30.3307C25.0897 29.7008 24.808 28.9612 24.1781 28.6787L23.1552 30.9599ZM11.4886 28.6787C10.8587 28.9612 10.577 29.7008 10.8594 30.3307C11.1418 30.9607 11.8815 31.2424 12.5114 30.9599L11.4886 28.6787ZM15.266 29.6673L14.7879 30.8223L14.788 30.8223L15.266 29.6673ZM32.3457 30.0395L32.925 28.9319L32.925 28.9318L32.3457 30.0395ZM26.2685 26.861L25.6891 27.9686L25.6892 27.9686L26.2685 26.861ZM24.6511 24.1508C24.3659 23.5222 23.625 23.2438 22.9963 23.529C22.3677 23.8143 22.0893 24.5551 22.3745 25.1838L24.6511 24.1508ZM7 21.334H5.75C5.75 22.0243 6.30965 22.584 7 22.584V21.334ZM27 21.334V22.584C27.6904 22.584 28.25 22.0243 28.25 21.334H27ZM11.0155 24.1509C10.8844 24.4398 10.6529 24.691 10.2709 24.9526C9.8587 25.2348 9.409 25.4446 8.81872 25.7534L9.97751 27.9686C10.4393 27.727 11.1096 27.4082 11.6834 27.0153C12.2873 26.6018 12.9076 26.0313 13.2922 25.1838L11.0155 24.1509ZM8.81879 25.7533L2.7417 28.9318L3.90037 31.1471L9.97745 27.9686L8.81879 25.7533ZM2.74171 28.9318C0.937713 29.8754 0.432661 31.6899 0.934253 33.2211C1.41762 34.6968 2.83103 35.9173 4.71642 35.9173V33.4173C3.98454 33.4173 3.48012 32.9621 3.31004 32.4429C3.15818 31.9793 3.26407 31.4799 3.90036 31.1471L2.74171 28.9318ZM4.71642 35.9173C7.83618 35.9173 10.602 35.1588 13.2179 34.1501C14.5221 33.6472 15.801 33.0772 17.0639 32.5061C18.3356 31.931 19.5868 31.3569 20.8786 30.8223L19.9227 28.5123C18.5839 29.0664 17.2867 29.6616 16.0338 30.2282C14.7721 30.7987 13.5501 31.3426 12.3184 31.8175C9.86265 32.7645 7.41698 33.4173 4.71642 33.4173V35.9173ZM20.8787 30.8223C21.4474 30.5869 21.7355 30.551 21.9569 30.5662C22.2091 30.5836 22.5219 30.6759 23.1552 30.9599L24.1781 28.6787C23.5116 28.3799 22.8536 28.1221 22.1288 28.0722C21.3733 28.0201 20.6782 28.1996 19.9226 28.5123L20.8787 30.8223ZM12.5114 30.9599C13.1448 30.6759 13.4576 30.5836 13.7098 30.5662C13.9312 30.551 14.2192 30.5869 14.7879 30.8223L15.7441 28.5123C14.9884 28.1996 14.2934 28.0201 13.5379 28.0722C12.8131 28.1221 12.1551 28.3799 11.4886 28.6787L12.5114 30.9599ZM14.788 30.8223C16.0799 31.3569 17.3311 31.931 18.6028 32.5061C19.8657 33.0772 21.1446 33.6472 22.4488 34.1501C25.0648 35.1588 27.8306 35.9173 30.9503 35.9173V33.4173C28.2498 33.4173 25.8041 32.7645 23.3483 31.8175C22.1166 31.3426 20.8946 30.7987 19.6329 30.2282C18.38 29.6616 17.0828 29.0664 15.744 28.5123L14.788 30.8223ZM30.9503 35.9173C32.8357 35.9173 34.2491 34.6967 34.7324 33.2211C35.234 31.6899 34.729 29.8754 32.925 28.9319L31.7663 31.1471C32.4025 31.4799 32.5085 31.9793 32.3566 32.4429C32.1865 32.9622 31.6821 33.4173 30.9503 33.4173V35.9173ZM32.925 28.9318L26.8478 25.7533L25.6892 27.9686L31.7663 31.1471L32.925 28.9318ZM26.8479 25.7534C26.2577 25.4446 25.808 25.2349 25.3958 24.9526C25.0138 24.691 24.7823 24.4398 24.6511 24.1508L22.3745 25.1838C22.7591 26.0313 23.3794 26.6018 23.9833 27.0153C24.557 27.4082 25.2273 27.727 25.6891 27.9686L26.8479 25.7534ZM12.4167 4.66732C12.4167 7.19861 14.4686 9.25065 17 9.25065V6.75065C15.8494 6.75065 14.9167 5.81792 14.9167 4.66732H12.4167ZM17 9.25065C19.5314 9.25065 21.5833 7.19861 21.5833 4.66732H19.0833C19.0833 5.81792 18.1506 6.75065 17 6.75065V9.25065ZM21.5833 4.66732C21.5833 2.13602 19.5314 0.0839844 17 0.0839844V2.58398C18.1506 2.58398 19.0833 3.51671 19.0833 4.66732H21.5833ZM17 0.0839844C14.4686 0.0839844 12.4167 2.13602 12.4167 4.66732H14.9167C14.9167 3.51671 15.8494 2.58398 17 2.58398V0.0839844ZM17 10.084C10.7868 10.084 5.75 15.1208 5.75 21.334H8.25C8.25 16.5015 12.1675 12.584 17 12.584V10.084ZM7 22.584C13.2132 22.584 18.25 17.5472 18.25 11.334H15.75C15.75 16.1665 11.8325 20.084 7 20.084V22.584ZM17 12.584C21.8325 12.584 25.75 16.5015 25.75 21.334H28.25C28.25 15.1208 23.2132 10.084 17 10.084V12.584ZM27 20.084C22.1675 20.084 18.25 16.1665 18.25 11.334H15.75C15.75 17.5472 20.7868 22.584 27 22.584V20.084Z" fill="#202526"/>
</svg>
