<svg width="12" height="11" viewBox="0 0 12 11" fill="none" xmlns="http://www.w3.org/2000/svg">
<path fill-rule="evenodd" clip-rule="evenodd" d="M4.93993 1.24629C5.41144 0.429621 6.59019 0.429624 7.06169 1.24629L11.4568 8.85879C11.9283 9.67546 11.3389 10.6963 10.3959 10.6963H1.60573C0.662727 10.6963 0.0733505 9.67545 0.544853 8.85879L4.93993 1.24629ZM6.00078 2.99979C6.29073 2.99979 6.52578 3.23484 6.52578 3.52479V5.97479C6.52578 6.26474 6.29073 6.49979 6.00078 6.49979C5.71083 6.49979 5.47578 6.26474 5.47578 5.97479V3.52479C5.47578 3.23484 5.71083 2.99979 6.00078 2.99979ZM6.00078 9.29979C6.38738 9.29979 6.70078 8.98639 6.70078 8.59979C6.70078 8.21319 6.38738 7.89979 6.00078 7.89979C5.61418 7.89979 5.30078 8.21319 5.30078 8.59979C5.30078 8.98639 5.61418 9.29979 6.00078 9.29979Z" fill="white"/>
</svg>
