<svg width="24" height="26" viewBox="0 0 24 26" fill="none" xmlns="http://www.w3.org/2000/svg">
<path d="M9.88995 0.706765C10.9748 -0.235591 12.561 -0.235591 13.6458 0.706779L22.385 8.29825C23.0412 8.86843 23.4201 9.70783 23.4201 10.5923V23.6661C23.4201 24.9551 22.4057 26 21.1544 26H16.623C15.3717 26 14.3573 24.9551 14.3573 23.6661V16.3308C14.3573 16.1467 14.2124 15.9974 14.0336 15.9974H9.50219C9.3234 15.9974 9.17851 16.1467 9.17851 16.3308V23.6661C9.17851 24.9551 8.16414 26 6.91282 26H2.38142C1.13011 26 0.115723 24.9551 0.115723 23.6661V10.5923C0.115723 9.70783 0.494483 8.86843 1.15085 8.29825L9.88995 0.706765Z" fill="#7C8364"/>
</svg>
