<svg width="60" height="60" viewBox="0 0 60 60" fill="none" xmlns="http://www.w3.org/2000/svg">
<circle cx="30" cy="30" r="30" fill="url(#paint0_linear_1791_9854)" fill-opacity="0.4"/>
<g clip-path="url(#clip0_1791_9854)">
<path d="M29.9999 17.6799C26.2833 17.6799 23.2799 20.6834 23.2799 24.3999V27.1999H21.0399C20.0883 27.1999 19.3599 27.9284 19.3599 28.8799V42.3199C19.3599 43.2715 20.0883 43.9999 21.0399 43.9999H38.9599C39.9114 43.9999 40.6399 43.2715 40.6399 42.3199V28.8799C40.6399 27.9284 39.9114 27.1999 38.9599 27.1999H36.7199V24.3999C36.7199 20.6834 33.7164 17.6799 29.9999 17.6799ZM29.9999 18.7999C33.117 18.7999 35.5999 21.2827 35.5999 24.3999V27.1999H24.3999V24.3999C24.3999 21.2827 26.8827 18.7999 29.9999 18.7999ZM29.9999 32.7999C30.9514 32.7999 31.6799 33.5284 31.6799 34.4799C31.6799 34.9831 31.4567 35.4249 31.1199 35.7049V37.2799C31.1199 37.8968 30.6167 38.3999 29.9999 38.3999C29.383 38.3999 28.8799 37.8968 28.8799 37.2799V35.7049C28.543 35.4249 28.3199 34.9831 28.3199 34.4799C28.3199 33.5284 29.0483 32.7999 29.9999 32.7999Z" fill="#695243"/>
</g>
<defs>
<linearGradient id="paint0_linear_1791_9854" x1="5.93719e-06" y1="35.8064" x2="79.3548" y2="39.6774" gradientUnits="userSpaceOnUse">
<stop stop-color="#453F3F"/>
<stop offset="1" stop-color="#F5F5F5"/>
</linearGradient>
<clipPath id="clip0_1791_9854">
<rect width="28" height="28" fill="white" transform="translate(16 16)"/>
</clipPath>
</defs>
</svg>
