<svg width="24" height="26" viewBox="0 0 24 26" fill="none" xmlns="http://www.w3.org/2000/svg">
<path fill-rule="evenodd" clip-rule="evenodd" d="M13.934 0.706779C12.8168 -0.235591 11.1832 -0.235591 10.066 0.706765L1.06603 8.29825C0.390067 8.86843 0 9.70782 0 10.5923V23.666C0 24.9551 1.04467 26 2.33333 26H7C8.28867 26 9.33332 24.9551 9.33332 23.666V16.3308C9.33332 16.1467 9.48253 15.9974 9.66667 15.9974H14.3333C14.5175 15.9974 14.6667 16.1467 14.6667 16.3308V23.666C14.6667 24.9551 15.7113 26 17 26H21.6667C22.9553 26 24 24.9551 24 23.666V10.5923C24 9.70782 23.6099 8.86843 22.934 8.29825L13.934 0.706779ZM11.3553 2.23453C11.7277 1.9204 12.2723 1.9204 12.6447 2.23453L21.6447 9.82601C21.87 10.0161 22 10.2959 22 10.5907V23.6645C22 23.8486 21.8508 23.9979 21.6667 23.9979H17C16.8159 23.9979 16.6667 23.8486 16.6667 23.6645V16.3292C16.6667 15.0402 15.622 13.9952 14.3333 13.9952H9.66667C8.378 13.9952 7.33332 15.0402 7.33332 16.3292V23.6645C7.33332 23.8486 7.18409 23.9979 7 23.9979H2.33333C2.14924 23.9979 2 23.8486 2 23.6645V10.5907C2 10.2959 2.13003 10.0161 2.35535 9.82601L11.3553 2.23453Z" fill="#828282"/>
</svg>
