<svg width="30" height="31" viewBox="0 0 30 31" fill="none" xmlns="http://www.w3.org/2000/svg">
<g clip-path="url(#clip0_151_7940)">
<path d="M0.00657618 4.87694C0.0205251 4.75398 0.0535081 4.63409 0.104303 4.52176C0.436605 3.75389 0.998587 3.27116 1.83178 3.24865C2.66498 3.22613 3.4933 3.23114 4.32405 3.24865C4.41478 3.24413 4.50544 3.25885 4.59036 3.29187C4.67527 3.3249 4.7526 3.37551 4.81752 3.44056C4.88243 3.5056 4.93353 3.58367 4.9676 3.66986C5.00168 3.75606 5.018 3.84853 5.01554 3.94148C5.01363 4.03433 4.99384 4.12588 4.95728 4.21087C4.92073 4.29587 4.86814 4.37265 4.80253 4.43679C4.73692 4.50093 4.65959 4.55117 4.57497 4.58464C4.49034 4.61811 4.40008 4.63414 4.30939 4.63181C3.57637 4.63181 2.82381 4.63181 2.08102 4.63181C1.55569 4.63181 1.33089 4.85942 1.32845 5.39468C1.32845 6.97545 1.47261 10.1345 1.47261 10.1345V10.3196H24.6849C24.6849 10.2245 24.702 10.127 24.702 10.0319V5.31714C24.702 4.76188 24.4992 4.55177 23.969 4.54927C23.2872 4.54927 22.6031 4.54927 21.9214 4.54927C21.3301 4.54927 21.0076 3.9865 21.2934 3.49126C21.3519 3.38679 21.4373 3.30075 21.5403 3.24253C21.6432 3.18431 21.7599 3.15615 21.8774 3.1611C22.6373 3.1611 23.3996 3.14359 24.1571 3.1611C24.4076 3.16176 24.6555 3.21296 24.8866 3.31176C25.1178 3.41057 25.3276 3.55505 25.5042 3.73694C25.6807 3.91883 25.8205 4.13457 25.9156 4.37181C26.0106 4.60905 26.059 4.86314 26.0581 5.11955C26.0825 7.83087 26.0581 10.5422 26.0581 13.2535C26.0531 13.29 26.045 13.326 26.0336 13.361L24.6873 12.9934V11.8178H1.47506V25.1167C1.47506 25.3277 1.55692 25.53 1.70264 25.6792C1.84835 25.8283 2.04598 25.9121 2.25206 25.9121C5.77543 25.9121 9.30043 25.9121 12.8271 25.9121C13.0445 25.9121 13.1545 25.9596 13.2131 26.1923C13.306 26.5599 13.4404 26.9151 13.5772 27.3303H13.1178C13.1178 27.3303 5.78764 27.2353 2.12255 27.2353C0.998588 27.2353 0.35353 26.735 0.0138986 25.632C0.0138986 25.6145 -0.0129787 25.6045 0.0138986 25.592L0.00657618 4.87694Z" fill="#7C8364"/>
<circle cx="22" cy="23" r="6" fill="#7C8364"/>
<mask id="path-3-inside-1_151_7940" fill="white">
<path d="M15 23.0332C15.0017 21.1657 15.7372 19.3748 17.046 18.0513C18.3548 16.7279 20.1304 15.9796 21.9853 15.9697C25.8622 15.9697 29.0536 19.1037 29.0623 22.9387C29.0685 23.8678 28.8929 24.7889 28.5454 25.6496C28.198 26.5103 27.6856 27.2937 27.0374 27.955C26.3893 28.6163 25.6181 29.1426 24.7679 29.5039C23.9178 29.8651 23.0052 30.0543 22.0825 30.0605C21.1597 30.0667 20.2447 29.8899 19.3899 29.5401C18.535 29.1903 17.7569 28.6744 17.1 28.0218C16.4432 27.3693 15.9204 26.5929 15.5616 25.7369C15.2027 24.881 15.0149 23.9623 15.0087 23.0332H15ZM22.0203 28.9144C23.1727 28.9148 24.2994 28.5714 25.2581 27.9275C26.2168 27.2836 26.9644 26.3681 27.4066 25.2967C27.8489 24.2253 27.9658 23.0459 27.7426 21.9076C27.5195 20.7693 26.9663 19.7231 26.1529 18.9012C25.3396 18.0792 24.3025 17.5184 23.1727 17.2895C22.043 17.0606 20.8711 17.1739 19.8053 17.6151C18.7394 18.0563 17.8273 18.8056 17.1842 19.7684C16.5411 20.7311 16.1958 21.8642 16.1919 23.0245C16.1873 23.7974 16.3347 24.5636 16.6257 25.2788C16.9167 25.9941 17.3455 26.6443 17.8873 27.1918C18.4292 27.7394 19.0734 28.1735 19.7827 28.4692C20.4921 28.7648 21.2525 28.9161 22.0203 28.9144Z"/>
</mask>
<path d="M15 23.0332C15.0017 21.1657 15.7372 19.3748 17.046 18.0513C18.3548 16.7279 20.1304 15.9796 21.9853 15.9697C25.8622 15.9697 29.0536 19.1037 29.0623 22.9387C29.0685 23.8678 28.8929 24.7889 28.5454 25.6496C28.198 26.5103 27.6856 27.2937 27.0374 27.955C26.3893 28.6163 25.6181 29.1426 24.7679 29.5039C23.9178 29.8651 23.0052 30.0543 22.0825 30.0605C21.1597 30.0667 20.2447 29.8899 19.3899 29.5401C18.535 29.1903 17.7569 28.6744 17.1 28.0218C16.4432 27.3693 15.9204 26.5929 15.5616 25.7369C15.2027 24.881 15.0149 23.9623 15.0087 23.0332H15ZM22.0203 28.9144C23.1727 28.9148 24.2994 28.5714 25.2581 27.9275C26.2168 27.2836 26.9644 26.3681 27.4066 25.2967C27.8489 24.2253 27.9658 23.0459 27.7426 21.9076C27.5195 20.7693 26.9663 19.7231 26.1529 18.9012C25.3396 18.0792 24.3025 17.5184 23.1727 17.2895C22.043 17.0606 20.8711 17.1739 19.8053 17.6151C18.7394 18.0563 17.8273 18.8056 17.1842 19.7684C16.5411 20.7311 16.1958 21.8642 16.1919 23.0245C16.1873 23.7974 16.3347 24.5636 16.6257 25.2788C16.9167 25.9941 17.3455 26.6443 17.8873 27.1918C18.4292 27.7394 19.0734 28.1735 19.7827 28.4692C20.4921 28.7648 21.2525 28.9161 22.0203 28.9144Z" fill="#7C8364"/>
<path d="M15 23.0332L13 23.0314L12.9982 25.0332H15V23.0332ZM21.9853 15.9697V13.9697L21.9747 13.9698L21.9853 15.9697ZM29.0623 22.9387L27.0623 22.9433L27.0624 22.952L29.0623 22.9387ZM15.0087 23.0332L17.0087 23.02L16.9955 21.0332H15.0087V23.0332ZM22.0203 28.9144L22.021 26.9144L22.0157 26.9144L22.0203 28.9144ZM16.1919 23.0245L18.1918 23.0364L18.1919 23.0311L16.1919 23.0245ZM17 23.0351C17.0012 21.6915 17.5305 20.4057 18.4681 19.4577L15.6239 16.645C13.9439 18.3438 13.0022 20.6399 13 23.0314L17 23.0351ZM18.4681 19.4577C19.4052 18.5101 20.6737 17.9767 21.996 17.9697L21.9747 13.9698C19.5872 13.9825 17.3044 14.9458 15.6239 16.645L18.4681 19.4577ZM21.9853 17.9697C24.7858 17.9697 27.0562 20.2373 27.0623 22.9433L31.0623 22.9342C31.051 17.9701 26.9386 13.9697 21.9853 13.9697V17.9697ZM27.0624 22.952C27.0668 23.6203 26.9405 24.2826 26.6908 24.901L30.4 26.3983C30.8453 25.2953 31.0702 24.1153 31.0623 22.9255L27.0624 22.952ZM26.6908 24.901C26.4412 25.5194 26.0734 26.0813 25.6091 26.5551L28.4658 29.3549C29.2977 28.5061 29.9548 27.5013 30.4 26.3983L26.6908 24.901ZM25.6091 26.5551C25.1448 27.0288 24.593 27.4051 23.9858 27.6632L25.5501 31.3446C26.6432 30.8801 27.6338 30.2038 28.4658 29.3549L25.6091 26.5551ZM23.9858 27.6632C23.3785 27.9212 22.7273 28.0561 22.069 28.0605L22.0959 32.0604C23.2832 32.0524 24.457 31.8091 25.5501 31.3446L23.9858 27.6632ZM22.069 28.0605C21.4108 28.0649 20.7578 27.9388 20.1472 27.689L18.6325 31.3911C19.7317 31.8409 20.9086 32.0684 22.0959 32.0604L22.069 28.0605ZM20.1472 27.689C19.5367 27.4392 18.9801 27.0704 18.5096 26.603L15.6905 29.4407C16.5337 30.2784 17.5333 30.9413 18.6325 31.3911L20.1472 27.689ZM18.5096 26.603C18.039 26.1355 17.6638 25.5786 17.4061 24.9637L13.7171 26.5102C14.177 27.6071 14.8473 28.6031 15.6905 29.4407L18.5096 26.603ZM17.4061 24.9637C17.1483 24.3488 17.0131 23.6882 17.0087 23.02L13.0088 23.0465C13.0167 24.2363 13.2572 25.4132 13.7171 26.5102L17.4061 24.9637ZM15.0087 21.0332H15V25.0332H15.0087V21.0332ZM22.0195 30.9144C23.5703 30.9149 25.0853 30.4528 26.3732 29.5878L24.143 26.2672C23.5135 26.69 22.7751 26.9146 22.021 26.9144L22.0195 30.9144ZM26.3732 29.5878C27.6609 28.7229 28.6631 27.4947 29.2554 26.0597L25.5579 24.5337C25.2657 25.2416 24.7726 25.8443 24.143 26.2672L26.3732 29.5878ZM29.2554 26.0597C29.8476 24.6249 30.0039 23.0464 29.7053 21.5229L25.78 22.2924C25.9276 23.0455 25.8502 23.8256 25.5579 24.5337L29.2554 26.0597ZM29.7053 21.5229C29.4066 19.9993 28.6659 18.5973 27.5746 17.4944L24.7313 20.308C25.2667 20.849 25.6324 21.5393 25.78 22.2924L29.7053 21.5229ZM27.5746 17.4944C26.4831 16.3914 25.0898 15.6372 23.5699 15.3293L22.7756 19.2496C23.5152 19.3995 24.196 19.767 24.7313 20.308L27.5746 17.4944ZM23.5699 15.3293C22.0499 15.0213 20.4735 15.1739 19.0403 15.7671L20.5702 19.463C21.2688 19.1738 22.036 19.0998 22.7756 19.2496L23.5699 15.3293ZM19.0403 15.7671C17.6073 16.3603 16.3832 17.3668 15.5211 18.6574L18.8473 20.8793C19.2714 20.2443 19.8715 19.7522 20.5702 19.463L19.0403 15.7671ZM15.5211 18.6574C14.6591 19.9479 14.1971 21.4652 14.1919 23.0178L18.1919 23.0311C18.1944 22.2632 18.423 21.5144 18.8473 20.8793L15.5211 18.6574ZM14.1919 23.0125C14.1857 24.0476 14.3832 25.0739 14.7732 26.0325L18.4783 24.5251C18.2862 24.0532 18.1888 23.5472 18.1918 23.0364L14.1919 23.0125ZM14.7732 26.0325C15.1631 26.9911 15.7382 27.8634 16.4657 28.5986L19.309 25.7851C18.9528 25.4252 18.6703 24.9971 18.4783 24.5251L14.7732 26.0325ZM16.4657 28.5986C17.1933 29.3339 18.059 29.9175 19.0133 30.3152L20.5521 26.6231C20.0877 26.4295 19.6651 26.1449 19.309 25.7851L16.4657 28.5986ZM19.0133 30.3152C19.9676 30.713 20.9912 30.9167 22.0248 30.9144L22.0157 26.9144C21.5139 26.9155 21.0165 26.8166 20.5521 26.6231L19.0133 30.3152Z" fill="#7C8364" mask="url(#path-3-inside-1_151_7940)"/>
<path d="M24.108 3.20703H3.75045C1.6078 4.276 0.660156 5.44442 0.660156 7.10207V9.06302C0.660156 10.7207 1.59523 11.2243 3.21456 11.2243H23.5717C25.1911 11.2243 25.7831 10.7207 25.7831 9.06302V7.10207C25.7831 5.44442 26.2508 3.20703 24.108 3.20703Z" fill="#7C8364"/>
<path d="M20.4221 3.83414C20.3824 4.58414 20.3881 5.33595 20.4392 6.08523C20.5858 7.30582 18.8804 7.76854 17.7197 7.4709C16.9183 7.2658 16.498 6.8656 16.498 6.2478C16.498 4.63536 16.498 3.02291 16.498 1.41047C16.498 0.640093 17.3117 0.127343 18.4919 0.134847C19.672 0.142351 20.4172 0.6501 20.4197 1.42047C20.4221 2.19085 20.4221 3.02125 20.4221 3.83414Z" fill="white" stroke="white" stroke-miterlimit="10"/>
<path d="M9.40506 3.89171C9.36574 4.64169 9.37064 5.39342 9.41972 6.1428C9.56877 7.36339 7.85107 7.82861 6.68068 7.53097C5.87436 7.32337 5.45898 6.92318 5.45898 6.30538C5.45898 4.69293 5.45898 3.08048 5.45898 1.46804C5.45898 0.697665 6.27752 0.187417 7.46989 0.192419C8.66227 0.197422 9.40751 0.707665 9.40995 1.47804C9.41239 2.24841 9.40506 3.08382 9.40506 3.89171Z" fill="white" stroke="white" stroke-miterlimit="10"/>
<path d="M6.24327 3.87917C6.24327 3.15882 6.24327 2.43848 6.24327 1.71813C6.24327 1.05531 6.73195 0.617596 7.43565 0.607591C8.13935 0.597586 8.68178 1.0328 8.68667 1.69562C8.68667 3.14465 8.68667 4.59452 8.68667 6.04522C8.68667 6.70054 8.14425 7.16576 7.44543 7.15325C6.74662 7.14075 6.24572 6.68053 6.24327 6.0077C6.24083 5.33488 6.24327 4.58451 6.24327 3.87917Z" fill="#7C8364"/>
<path d="M19.6769 3.87185C19.6769 4.53217 19.6329 5.19499 19.6891 5.85031C19.7796 6.92583 18.7118 7.33353 17.9788 7.0709C17.7501 7.0081 17.5495 6.86668 17.4107 6.67038C17.2719 6.47407 17.2033 6.23484 17.2164 5.99288C17.2164 4.57219 17.2164 3.15484 17.2164 1.74082C17.2164 1.06049 17.7247 0.610273 18.465 0.615276C19.2054 0.620278 19.6672 1.0705 19.6696 1.74832C19.672 2.42615 19.6769 3.1615 19.6769 3.87185Z" fill="#7C8364"/>
<path d="M22.7884 23.3949L22.9732 20.0831L23 19.6051C23 19.4446 22.9058 19.2907 22.7381 19.1772C22.5704 19.0637 22.343 19 22.1058 19C21.8703 19.0036 21.646 19.0685 21.4794 19.1812C21.3128 19.2939 21.2169 19.4457 21.2116 19.6051L21.0268 22.9189L21 23.3949C21 23.5554 21.0942 23.7093 21.2619 23.8228C21.4296 23.9363 21.657 24 21.8942 24C22.1313 24 22.3588 23.9363 22.5265 23.8228C22.6942 23.7093 22.7884 23.5554 22.7884 23.3949Z" fill="white"/>
<path d="M21.3542 24.2356L24.4128 25.7194L24.8513 25.9314C25.0326 26.0062 25.241 26.0204 25.4343 25.9712C25.6276 25.9219 25.7914 25.8129 25.8927 25.6661C25.9939 25.5193 26.025 25.3457 25.9797 25.1804C25.9343 25.0151 25.816 24.8704 25.6485 24.7756L22.5872 23.2917L22.1487 23.0686C21.9674 22.9938 21.759 22.9796 21.5657 23.0288C21.3724 23.0781 21.2086 23.1871 21.1073 23.3339C21.0061 23.4807 20.975 23.6543 21.0203 23.8196C21.0657 23.9849 21.184 24.1296 21.3515 24.2244L21.3542 24.2356Z" fill="white"/>
</g>
<defs>
<clipPath id="clip0_151_7940">
<rect width="30" height="31" fill="white"/>
</clipPath>
</defs>
</svg>
