<svg width="31" height="31" viewBox="0 0 31 31" fill="none" xmlns="http://www.w3.org/2000/svg">
<g clip-path="url(#clip0_151_7951)">
<path d="M0.00669556 4.3374C0.0215905 4.21231 0.0564146 4.09048 0.109803 3.97661C0.451789 3.19406 1.02763 2.70622 1.88511 2.68335C2.74259 2.66049 3.59504 2.66557 4.45001 2.68335C4.5435 2.67913 4.63685 2.69442 4.72424 2.72826C4.81164 2.76209 4.89121 2.81375 4.95798 2.88002C5.02474 2.94629 5.07728 3.02575 5.11232 3.11343C5.14735 3.20112 5.16414 3.29516 5.16163 3.38969C5.15967 3.48401 5.1393 3.57701 5.10168 3.66335C5.06406 3.74969 5.00995 3.82768 4.94243 3.89283C4.87491 3.95799 4.79531 4.00903 4.70822 4.04303C4.62113 4.07702 4.52824 4.09331 4.4349 4.09095C3.68052 4.09095 2.90603 4.09095 2.14159 4.09095C1.60095 4.09095 1.36962 4.32216 1.36962 4.85318C1.36962 6.45641 1.51546 9.68065 1.51546 9.68065V9.86613H25.4042C25.4042 9.76958 25.4193 9.67303 25.4193 9.57394V4.78458C25.4193 4.22053 25.2105 4.00456 24.6649 4.00202C23.9633 4.00202 23.2617 4.00202 22.5602 4.00202C21.9491 4.00202 21.6172 3.43035 21.9114 2.92727C21.9713 2.82036 22.0595 2.73239 22.1661 2.67316C22.2727 2.61394 22.3934 2.5858 22.5149 2.59189C23.2969 2.59189 24.079 2.5741 24.861 2.59189C25.1187 2.59255 25.3737 2.64458 25.6114 2.74498C25.8492 2.84538 26.065 2.99218 26.2465 3.17699C26.428 3.36179 26.5716 3.58096 26.6691 3.82193C26.7667 4.06291 26.8162 4.32097 26.8149 4.58131C26.84 7.33551 26.8149 10.0897 26.8149 12.8439C26.8098 12.88 26.8023 12.9156 26.7922 12.9506L25.4042 12.5797V11.383H1.51546V24.8948C1.51546 25.1091 1.5997 25.3146 1.74967 25.4661C1.89963 25.6177 2.10302 25.7028 2.3151 25.7028C5.94451 25.7028 9.57224 25.7028 13.1983 25.7028C13.4246 25.7028 13.5353 25.7485 13.5956 25.9873C13.6912 26.3608 13.832 26.7216 13.9703 27.1409H13.5001C13.5001 27.1409 5.95625 27.0468 2.18435 27.0468C1.02763 27.0468 0.366291 26.5387 0.0142467 25.4182C0.0142467 25.4004 -0.0134139 25.3903 0.0142467 25.3776L0.00669556 4.3374Z" fill="#828282"/>
<path d="M15 22.034C15.0006 20.174 15.7356 18.3898 17.0444 17.0717C18.3532 15.7535 20.1293 15.0087 21.9842 15C25.8604 15 29.0513 18.1209 29.06 21.9399C29.06 25.9231 25.9586 29.0921 22.0387 29.0899C21.1135 29.0937 20.1968 28.9138 19.3412 28.5605C18.4857 28.2073 17.7084 27.6877 17.0541 27.0318C16.3997 26.3759 15.8814 25.5966 15.5288 24.7388C15.1763 23.881 14.9966 22.9618 15 22.034ZM22.0169 27.8906C23.1693 27.8915 24.296 27.5499 25.2548 26.9089C26.2136 26.268 26.9615 25.3565 27.4039 24.2896C27.8464 23.2226 27.9636 22.0481 27.7408 20.9145C27.5179 19.7808 26.965 18.7387 26.1519 17.92C25.3387 17.1012 24.3018 16.5425 23.1722 16.3144C22.0425 16.0863 20.8708 16.199 19.805 16.6383C18.7392 17.0775 17.8271 17.8237 17.184 18.7825C16.5409 19.7413 16.1956 20.8698 16.1917 22.0253C16.1877 22.7946 16.3354 23.5572 16.6265 24.269C16.9175 24.9809 17.346 25.628 17.8874 26.1732C18.4288 26.7183 19.0724 27.1507 19.7811 27.4455C20.4898 27.7402 21.2497 27.8915 22.0169 27.8906Z" fill="#828282"/>
<path d="M13.2865 4.08063C12.5321 4.08063 11.7777 4.08063 11.0233 4.08063C10.4249 4.08063 10.0778 3.54199 10.3369 3.04399C10.3909 2.92837 10.4774 2.83133 10.5856 2.76493C10.6938 2.69854 10.8189 2.6657 10.9454 2.6705C12.5044 2.6705 14.061 2.6705 15.6175 2.6705C15.7108 2.66664 15.8039 2.68219 15.891 2.71618C15.9781 2.75018 16.0573 2.8019 16.1238 2.86813C16.1903 2.93436 16.2426 3.01369 16.2775 3.1012C16.3124 3.18871 16.3291 3.28253 16.3266 3.37683C16.3264 3.47111 16.3073 3.56437 16.2706 3.65103C16.2338 3.73768 16.1801 3.81596 16.1128 3.88118C16.0454 3.94641 15.9657 3.99724 15.8784 4.03064C15.7912 4.06403 15.6982 4.07931 15.6049 4.07555C14.833 4.08825 14.061 4.08063 13.2865 4.08063Z" fill="#828282"/>
<path d="M6.42495 3.32344C6.42495 2.59169 6.42495 1.85995 6.42495 1.1282C6.42495 0.454897 6.92787 0.0077199 7.65459 9.75767e-05C8.38131 -0.00752475 8.93452 0.432031 8.93955 1.10534C8.9496 2.57729 8.9496 4.0501 8.93955 5.52375C8.93955 6.18943 8.3813 6.66201 7.66213 6.64677C6.94295 6.63152 6.42746 6.1691 6.42495 5.48563C6.42243 4.75897 6.42495 4.04248 6.42495 3.32344Z" fill="#828282"/>
<path d="M20.2518 3.31536C20.2518 3.98358 20.204 4.65943 20.2518 5.32511C20.3448 6.41765 19.246 6.83179 18.4916 6.565C18.2563 6.50086 18.0498 6.3572 17.9066 6.15794C17.7634 5.95869 17.6921 5.71587 17.7045 5.46993C17.7045 4.02677 17.7045 2.587 17.7045 1.15061C17.7045 0.462063 18.2275 0.00472599 18.9895 0.00980754C19.7514 0.0148891 20.2292 0.472228 20.2317 1.16078L20.2518 3.31536Z" fill="#828282"/>
<path d="M22.7911 22.3949L22.9731 19.0831L23 18.6051C23 18.4446 22.9057 18.2907 22.7377 18.1772C22.5698 18.0637 22.342 18 22.1045 18C21.8689 18.0041 21.6446 18.0691 21.4779 18.1817C21.3113 18.2943 21.215 18.4459 21.2089 18.6051L21.0269 21.9169L21 22.3949C21 22.5554 21.0943 22.7093 21.2623 22.8228C21.4302 22.9363 21.658 23 21.8955 23C22.1311 22.9959 22.3554 22.9309 22.5221 22.8182C22.6887 22.7056 22.785 22.5541 22.7911 22.3949Z" fill="#828282"/>
<path d="M21.4297 23.2326L24.3788 24.6725L24.8016 24.889C24.889 24.9388 24.9875 24.9729 25.0911 24.9891C25.1947 25.0053 25.3011 25.0034 25.4038 24.9834C25.5065 24.9635 25.6032 24.9258 25.688 24.873C25.7727 24.8201 25.8437 24.753 25.8965 24.676C25.9493 24.5989 25.9828 24.5135 25.9949 24.4251C26.007 24.3366 25.9975 24.247 25.9669 24.1618C25.9363 24.0766 25.8853 23.9976 25.8171 23.9298C25.7489 23.8619 25.6648 23.8067 25.5703 23.7674L22.6212 22.3275L22.1984 22.111C22.111 22.0612 22.0125 22.0271 21.9089 22.0109C21.8053 21.9947 21.6989 21.9966 21.5962 22.0166C21.4935 22.0365 21.3968 22.0741 21.312 22.127C21.2273 22.1799 21.1563 22.247 21.1035 22.324C21.0507 22.4011 21.0172 22.4865 21.0051 22.5749C20.993 22.6634 21.0025 22.753 21.0331 22.8382C21.0637 22.9234 21.1147 23.0024 21.1829 23.0702C21.2512 23.1381 21.3352 23.1933 21.4297 23.2326Z" fill="#828282"/>
</g>
<defs>
<clipPath id="clip0_151_7951">
<rect width="31" height="31" fill="white"/>
</clipPath>
</defs>
</svg>
